{"glyphs":{"0":{"ha":918,"x_min":81,"x_max":837,"o":"m 300 929 q 211 749 242 895 q 191 575 191 654 q 199 484 191 532 q 228 388 208 436 q 280 294 248 340 q 360 209 313 248 q 472 142 408 171 q 618 96 535 113 q 711 287 682 132 q 724 372 720 332 q 728 449 728 412 q 719 548 728 494 q 685 655 709 602 q 620 759 661 709 q 515 846 578 809 q 300 929 418 903 m 475 0 q 422 19 453 6 q 358 51 392 32 q 290 95 325 70 q 224 151 255 121 q 157 237 184 191 q 113 331 130 283 q 89 424 96 378 q 81 512 81 469 q 95 623 81 564 q 136 738 109 682 q 202 845 163 795 q 292 930 241 895 l 443 1027 q 484 1013 456 1023 q 546 984 511 1002 q 618 939 580 965 q 691 877 656 912 q 755 798 726 842 q 802 701 785 754 q 828 602 819 650 q 837 509 837 553 q 827 407 837 456 q 800 314 817 357 q 760 236 783 271 q 711 175 737 201 q 627 95 640 104 l 475 0 z "},"1":{"ha":454,"x_min":-34,"x_max":353,"o":"m 182 0 q 204 217 197 102 q 211 463 211 332 q 207 687 211 595 q 198 833 202 779 q 155 788 174 810 q 119 741 135 765 q 91 691 103 718 q 72 635 79 665 l 65 642 q -34 687 38 669 q 94 800 12 711 q 182 964 140 849 q 264 984 222 969 q 353 1025 305 998 q 322 558 322 832 l 322 534 q 328 259 323 370 q 347 87 334 148 l 353 62 q 297 52 323 59 q 249 36 271 45 q 210 18 227 27 q 182 0 193 8 z "},"2":{"ha":864,"x_min":81,"x_max":783,"o":"m 142 628 q 100 722 100 675 q 110 767 100 744 q 135 811 119 789 q 168 852 150 833 q 204 888 186 872 q 235 914 221 903 q 254 928 248 924 l 420 1025 q 601 935 571 954 q 686 876 652 903 q 741 819 720 848 q 769 761 761 791 q 779 692 778 730 q 703 529 779 586 q 590 453 660 496 q 423 351 521 409 q 320 293 370 323 q 233 238 271 263 q 150 181 195 213 l 149 176 l 172 172 q 481 140 324 140 q 783 171 643 140 q 753 84 764 125 q 739 0 743 43 l 722 4 q 463 28 648 16 l 441 29 q 231 0 357 28 q 142 77 195 19 q 81 181 81 145 q 146 274 81 235 l 359 407 q 488 492 433 455 q 579 562 543 530 q 634 623 616 593 q 652 684 652 652 q 647 719 652 704 q 630 749 642 734 q 598 779 618 764 q 547 811 578 794 q 262 926 389 899 q 205 812 205 873 q 221 759 205 781 q 275 719 237 736 l 142 628 z "},"3":{"ha":878,"x_min":81,"x_max":798,"o":"m 81 233 l 216 299 q 362 191 239 262 q 635 100 468 131 q 709 258 709 153 q 588 401 709 352 l 344 505 l 509 587 q 603 659 576 627 q 631 721 631 691 q 601 785 631 755 q 511 849 571 814 q 401 902 454 882 q 300 929 349 922 l 300 928 q 257 832 257 882 q 270 783 257 806 q 317 736 283 760 l 182 696 q 168 758 168 730 q 181 810 168 783 q 215 860 195 836 q 255 902 234 883 q 292 930 277 920 l 443 1025 q 490 1010 461 1021 q 552 980 518 999 q 621 936 585 962 q 688 875 656 909 q 731 741 731 807 q 720 686 731 713 q 684 636 708 659 q 624 597 661 613 q 538 575 587 581 q 747 465 706 505 q 784 404 770 441 q 798 317 798 366 q 783 248 798 283 q 732 176 768 214 q 644 99 673 113 l 463 0 q 254 83 392 8 q 197 121 230 96 q 121 188 163 147 q 81 233 109 198 z "},"4":{"ha":774,"x_min":0,"x_max":672,"o":"m 26 224 l 0 298 q 501 964 326 640 q 584 984 543 969 q 672 1025 625 998 q 642 568 642 834 l 642 534 q 648 260 642 371 q 667 87 653 149 l 672 62 q 617 52 643 59 q 569 36 591 45 q 530 18 547 27 q 501 0 513 8 q 525 108 517 49 q 533 239 532 168 q 469 244 506 242 q 382 246 431 246 q 174 240 267 246 q 26 224 82 234 m 510 844 q 324 585 412 715 q 155 319 235 455 q 218 314 178 316 q 314 312 257 312 l 333 312 q 532 326 467 312 l 532 366 q 531 423 532 375 q 529 559 530 471 q 524 682 528 611 q 510 844 519 752 z "},"5":{"ha":831,"x_min":34,"x_max":750,"o":"m 34 233 l 169 299 q 315 191 191 262 q 588 100 420 131 q 662 259 662 153 q 541 401 662 353 l 111 604 q 234 813 191 709 q 283 1025 276 917 l 301 1020 q 391 1002 342 1008 q 497 996 439 996 q 734 1025 602 996 q 704 937 714 979 q 690 854 693 896 l 677 861 q 441 891 563 891 q 308 861 363 891 q 277 701 277 790 l 277 686 q 699 465 640 524 q 750 323 750 414 q 747 286 750 304 q 737 251 744 269 q 717 215 730 233 q 685 176 704 197 q 596 99 623 112 l 415 0 q 206 83 345 8 q 149 121 182 96 q 73 188 116 147 q 34 233 62 198 z "},"6":{"ha":871,"x_min":81,"x_max":790,"o":"m 81 536 q 94 640 81 589 q 126 732 107 690 q 168 807 146 774 q 209 859 191 840 q 292 932 269 921 l 473 1025 q 534 1003 501 1017 q 606 967 568 988 q 663 928 629 954 q 739 862 696 902 q 760 840 751 852 q 778 817 768 829 l 643 751 q 587 803 621 776 q 506 861 553 831 q 300 924 421 915 q 216 778 245 895 q 332 669 235 710 l 651 534 q 754 456 719 505 q 790 340 790 408 q 779 273 790 304 q 746 215 767 241 q 683 144 713 174 q 627 97 654 115 l 476 0 q 436 14 463 3 q 375 43 409 24 q 303 87 341 61 q 230 148 265 113 q 165 227 195 183 q 117 326 135 271 q 90 431 99 378 q 81 536 81 483 m 190 584 q 199 487 190 537 q 228 388 208 437 q 281 293 248 338 q 361 210 314 247 q 473 143 409 172 q 618 98 536 113 q 705 292 705 149 q 625 401 705 367 q 333 526 434 482 q 222 574 233 569 q 190 596 205 582 l 190 584 z "},"7":{"ha":704,"x_min":34,"x_max":704,"o":"m 384 932 q 35 854 191 932 q 61 920 47 877 q 81 1025 75 963 l 98 1019 q 226 1001 139 1006 q 447 995 313 995 q 572 1002 509 995 q 704 1025 636 1010 q 445 544 557 775 q 258 99 334 313 l 248 61 q 34 0 149 57 l 47 9 q 328 539 108 71 q 416 742 377 645 q 485 929 456 839 q 454 931 472 930 q 413 932 436 932 l 384 932 z "},"8":{"ha":838,"x_min":83,"x_max":758,"o":"m 205 784 q 302 654 205 690 q 479 586 393 620 q 601 718 595 629 q 575 791 600 758 q 502 849 556 818 q 275 940 390 913 q 205 784 205 888 m 121 730 q 182 867 121 804 q 269 941 233 919 l 434 1025 q 557 972 500 1009 q 661 877 624 928 q 704 743 704 809 q 609 602 704 658 q 517 568 570 579 q 706 465 667 502 q 757 323 757 416 q 695 180 758 245 q 602 97 633 115 l 435 0 q 255 90 288 70 q 125 194 162 146 q 83 330 83 250 q 159 460 90 411 q 280 513 220 503 l 228 536 q 121 730 121 606 m 669 261 q 547 401 669 349 l 307 503 q 182 395 198 446 q 177 361 177 377 q 210 288 178 319 q 309 214 287 227 q 594 98 434 139 q 669 261 669 149 z "},"9":{"ha":871,"x_min":81,"x_max":789,"o":"m 789 484 q 777 385 789 433 q 744 293 764 336 q 703 218 725 251 q 663 165 681 184 q 579 92 604 105 l 398 0 q 265 58 344 14 q 208 96 241 71 q 132 163 175 122 q 111 184 121 173 q 93 208 102 196 l 228 274 q 284 221 250 249 q 365 163 318 194 q 571 100 450 109 q 656 247 627 131 q 539 355 637 314 l 220 490 q 117 567 153 519 q 81 683 81 616 q 125 815 83 761 q 245 928 192 900 l 395 1025 q 433 1011 407 1021 q 492 983 458 1001 q 564 940 526 966 q 638 879 602 914 q 705 799 675 844 q 754 699 736 754 q 781 592 772 646 q 789 484 789 539 m 681 447 q 658 594 681 519 q 585 737 635 670 q 453 854 534 804 q 253 926 371 905 q 165 733 165 876 q 245 623 165 658 q 403 555 303 597 q 646 452 503 512 q 681 429 672 441 l 681 447 z "}," ":{"ha":407,"x_min":0,"x_max":0,"o":""},"!":{"ha":407,"x_min":109,"x_max":295,"o":"m 284 113 q 286 72 284 94 q 291 22 288 49 q 236 11 263 18 q 184 -5 208 4 q 141 -24 160 -14 q 109 -43 121 -35 q 122 73 122 12 q 121 110 122 92 q 113 161 120 128 q 295 224 201 170 q 284 113 284 185 m 118 199 q 143 396 135 304 q 151 569 151 488 l 151 604 q 121 950 138 890 l 118 964 q 284 1022 199 973 l 289 1025 q 269 834 275 926 q 262 656 262 743 q 269 455 262 550 q 286 276 277 360 l 289 261 q 234 251 260 258 q 185 235 208 243 q 146 216 163 226 q 118 199 129 207 z "},"\"":{"ha":673,"x_min":136,"x_max":537,"o":"m 366 665 q 397 828 397 729 l 397 841 q 364 981 397 906 q 447 995 406 984 q 535 1025 488 1005 q 503 863 503 937 q 512 781 503 818 q 532 722 521 743 q 537 711 537 710 q 439 693 484 705 q 366 665 395 681 m 138 665 q 168 828 168 729 l 168 841 q 136 981 168 906 q 218 995 177 984 q 307 1025 260 1005 q 275 866 275 937 q 283 782 275 819 q 303 722 292 745 q 309 711 309 710 q 211 693 256 705 q 138 665 166 681 z "},"#":{"ha":958,"x_min":102,"x_max":857,"o":"m 102 553 q 129 622 115 579 q 147 724 142 665 l 165 719 q 223 707 189 711 q 306 700 258 703 q 298 783 302 747 q 288 845 294 819 l 283 862 q 366 876 324 865 q 454 906 407 886 q 437 807 444 859 q 427 694 431 754 q 459 694 443 694 q 492 694 475 694 l 526 694 q 518 777 522 741 q 508 838 514 812 l 504 855 q 586 869 545 859 q 675 899 627 880 q 648 698 655 810 q 850 724 761 705 q 820 635 830 677 q 806 553 809 594 l 789 557 q 727 568 763 564 q 644 576 691 572 l 644 541 q 644 512 644 528 q 645 477 644 496 q 757 487 705 480 q 857 504 810 494 q 826 415 837 456 q 812 333 816 374 l 795 337 q 733 347 770 343 q 650 355 697 351 q 658 273 654 308 q 669 214 662 238 l 675 197 q 572 178 616 191 q 504 151 528 165 q 520 252 513 200 q 530 361 526 304 q 494 361 505 361 q 468 362 484 361 q 430 362 453 362 q 437 280 433 315 q 449 221 441 245 l 454 203 q 352 185 395 198 q 283 158 309 172 q 299 255 293 205 q 309 358 305 304 q 205 349 255 355 q 109 333 155 342 q 135 402 122 359 q 154 504 149 445 l 172 498 q 313 479 216 486 q 313 528 313 504 q 311 579 313 551 q 202 569 254 576 q 102 553 151 563 m 531 581 q 506 582 515 581 q 487 582 496 582 q 464 583 477 583 q 424 583 450 583 l 424 548 q 424 514 424 532 q 425 475 425 496 q 461 474 443 474 q 498 473 479 473 l 533 473 q 533 504 533 494 q 532 531 532 514 q 531 581 532 549 z "},"$":{"ha":878,"x_min":81,"x_max":798,"o":"m 354 1077 q 436 1096 395 1082 q 525 1137 477 1111 q 509 996 515 1074 l 553 972 q 593 948 571 962 q 637 915 615 933 q 681 875 660 897 q 721 829 703 853 l 586 763 q 541 813 563 792 q 500 848 519 835 q 497 727 498 791 q 495 593 496 664 q 747 465 702 509 q 798 323 798 412 q 784 251 798 285 q 732 176 771 216 q 644 99 670 112 l 509 26 q 519 -51 513 -23 l 525 -75 q 470 -86 496 -79 q 422 -102 444 -93 q 382 -120 400 -111 q 354 -138 365 -130 q 363 -62 359 -102 q 371 26 368 -21 q 254 83 326 45 q 197 121 230 96 q 121 188 163 147 q 100 210 109 198 q 81 233 90 221 l 216 299 q 264 254 228 281 q 362 191 300 226 l 379 182 q 383 318 382 246 q 384 469 384 389 l 384 488 q 315 517 343 505 q 269 536 286 529 q 130 718 130 591 q 191 853 130 791 q 279 930 253 918 l 363 985 l 358 1054 l 354 1077 m 709 259 q 588 401 709 353 l 495 440 q 497 270 496 346 q 503 132 499 193 q 566 115 533 123 q 635 100 599 107 q 709 259 709 153 m 214 771 q 294 669 214 698 l 381 637 q 369 909 376 784 q 330 921 350 916 q 288 929 309 926 l 287 928 q 214 771 214 856 z "},"%":{"ha":1068,"x_min":102,"x_max":966,"o":"m 697 355 q 672 300 683 329 q 661 238 661 272 q 682 181 661 209 q 753 132 703 154 q 847 96 810 107 q 866 122 861 114 q 875 142 871 131 q 882 169 879 153 q 886 213 884 184 q 882 239 886 224 q 867 268 877 254 q 840 296 857 283 q 801 319 824 309 q 697 355 749 340 m 576 222 q 582 273 577 249 q 600 320 587 297 q 632 363 612 342 q 684 404 652 385 l 763 450 q 794 440 774 447 q 837 420 814 433 q 882 390 859 407 q 924 347 905 372 q 955 292 943 322 q 966 223 966 261 q 955 156 966 185 q 926 104 943 126 q 891 68 909 83 q 859 46 873 54 l 780 0 q 721 21 756 5 q 654 64 686 37 q 599 130 622 91 q 576 222 576 170 m 241 930 q 226 903 231 916 q 216 875 220 890 q 208 845 211 860 q 205 819 205 830 q 214 779 205 798 q 244 741 222 759 q 301 705 265 722 q 391 671 336 688 q 421 724 412 698 q 430 784 430 749 q 427 808 430 795 q 416 837 425 822 q 390 866 407 851 q 343 894 372 880 q 241 930 310 909 m 120 798 q 125 846 120 822 q 141 892 130 869 q 174 937 153 915 q 228 979 195 959 l 307 1025 q 338 1016 318 1023 q 380 996 357 1008 q 426 965 402 983 q 468 922 449 947 q 498 867 486 898 q 510 800 510 837 q 497 728 510 758 q 468 676 485 697 q 432 641 450 654 q 403 621 414 627 l 323 575 q 278 590 304 579 q 224 619 252 602 q 174 660 197 637 q 139 711 151 684 q 124 754 130 733 q 120 798 119 776 m 102 60 q 268 251 168 127 q 507 559 369 375 q 794 1026 728 857 q 822 1008 805 1018 q 861 990 839 999 q 910 974 884 981 q 965 964 936 967 q 882 865 930 924 q 777 730 834 805 q 657 569 720 656 q 529 388 594 482 q 398 195 463 294 q 273 0 333 97 q 184 41 225 26 q 102 60 143 56 z "},"&":{"ha":1025,"x_min":83,"x_max":991,"o":"m 435 0 q 315 58 359 35 q 255 90 271 80 q 172 147 205 120 q 119 202 138 174 q 91 259 99 229 q 83 330 83 288 q 104 400 86 368 q 152 455 123 432 q 215 493 182 478 q 280 513 248 508 l 228 536 q 121 730 121 606 q 182 867 121 804 q 269 941 235 920 l 434 1025 q 550 976 496 1009 q 639 903 603 942 l 544 821 q 484 860 516 842 q 416 893 451 878 q 346 920 382 908 q 275 941 311 932 q 218 782 218 864 q 219 754 218 768 q 224 727 220 741 l 229 705 q 700 278 421 492 q 766 613 766 433 q 789 594 774 603 q 829 576 805 585 q 880 561 854 567 q 933 556 905 555 q 849 381 895 460 q 751 239 804 303 q 868 154 808 197 q 991 69 928 112 q 954 64 971 68 q 918 52 936 60 q 881 33 899 44 q 838 0 862 22 q 786 67 823 25 q 684 170 748 110 q 602 97 650 137 l 435 0 m 658 195 l 595 252 q 467 368 520 321 q 379 446 413 416 q 307 503 345 476 q 245 465 270 483 q 204 430 220 448 q 183 396 189 413 q 177 361 177 379 q 186 321 177 340 q 210 288 195 303 q 299 220 255 249 q 390 170 343 192 q 487 131 437 149 q 594 98 537 113 q 628 146 612 122 q 658 195 644 170 z "},"'":{"ha":444,"x_min":136,"x_max":309,"o":"m 138 665 q 168 828 168 729 l 168 841 q 136 981 168 906 q 218 995 177 984 q 307 1025 260 1005 q 275 866 275 937 q 283 782 275 819 q 303 722 292 745 q 309 711 309 710 q 211 693 256 705 q 138 665 166 681 z "},"(":{"ha":637,"x_min":102,"x_max":604,"o":"m 426 -220 q 320 -130 363 -182 q 244 -35 275 -77 q 195 39 213 7 q 155 125 172 79 q 126 221 138 171 q 108 326 114 272 q 102 433 102 379 q 118 613 102 524 q 166 790 135 701 q 208 883 182 836 q 267 973 234 930 q 340 1053 300 1016 q 424 1114 380 1090 q 574 1167 487 1149 l 564 1160 q 333 896 415 1057 q 233 515 250 735 q 231 465 231 489 q 239 361 231 412 q 261 257 247 309 q 398 8 313 103 q 604 -121 483 -86 l 426 -220 z "},")":{"ha":637,"x_min":34,"x_max":536,"o":"m 212 1167 q 317 1078 275 1128 q 393 982 362 1025 q 443 907 424 940 q 483 822 465 869 q 512 725 500 776 q 530 620 524 673 q 536 512 536 566 q 519 333 536 421 q 471 157 503 244 q 412 33 449 94 q 324 -79 375 -28 q 208 -168 273 -130 q 64 -220 143 -205 l 74 -213 q 303 49 220 -112 q 405 433 387 210 q 407 483 407 458 q 394 611 406 548 q 360 730 381 673 q 312 837 340 787 q 253 923 284 886 q 34 1068 163 1031 l 212 1167 z "},"*":{"ha":859,"x_min":102,"x_max":758,"o":"m 102 786 q 126 803 112 793 q 156 829 140 814 q 190 865 172 845 q 227 911 208 886 l 239 898 q 373 793 290 848 q 364 886 370 844 q 349 962 358 927 l 344 979 q 446 998 403 985 q 515 1025 489 1011 q 497 913 504 970 q 489 795 491 856 q 563 848 530 823 q 620 898 595 874 l 633 911 q 701 831 669 860 q 758 786 732 802 q 651 745 705 768 q 544 693 598 722 q 650 644 597 666 q 758 605 703 623 q 634 479 679 545 l 621 491 q 573 530 605 507 q 493 586 542 554 q 500 488 496 528 q 511 427 505 449 l 515 410 q 433 396 474 407 q 349 368 391 386 l 344 366 q 374 591 368 476 q 288 532 321 557 q 238 491 255 507 l 225 479 q 102 605 180 545 q 210 644 157 623 q 315 693 262 666 q 208 745 261 722 q 102 786 155 768 z "},"+":{"ha":767,"x_min":54,"x_max":713,"o":"m 54 387 q 80 452 66 410 q 100 557 94 494 l 117 552 q 323 526 198 531 q 314 661 319 608 q 302 741 309 714 l 298 758 q 469 802 378 764 q 437 525 439 666 q 713 557 578 528 q 683 469 693 510 q 669 387 672 427 l 652 391 q 572 402 625 397 q 438 411 519 408 q 447 297 441 348 q 464 206 453 246 l 469 189 q 416 181 442 186 q 368 169 391 176 q 328 156 346 163 q 298 142 310 149 q 325 414 324 270 q 185 406 253 413 q 54 387 118 399 z "},",":{"ha":444,"x_min":0,"x_max":370,"o":"m 0 -181 q 126 5 45 -163 q 191 190 182 121 q 217 179 201 184 q 253 169 233 174 q 297 160 273 163 q 346 157 321 157 l 370 158 q 248 -5 341 134 q 179 -211 197 -106 q 19 -180 99 -182 l 0 -181 z "},"-":{"ha":767,"x_min":54,"x_max":713,"o":"m 54 387 q 80 452 66 410 q 100 557 94 494 l 117 552 q 427 525 222 525 q 713 557 564 525 q 683 469 693 511 q 669 387 672 428 l 652 391 q 361 414 511 414 l 338 414 q 54 387 192 414 z "},".":{"ha":389,"x_min":102,"x_max":288,"o":"m 102 -45 q 115 72 115 11 q 114 109 115 90 q 106 159 113 127 q 288 222 193 168 q 277 112 277 184 q 278 70 277 93 q 283 20 280 47 q 228 10 256 17 q 177 -6 201 3 q 133 -26 153 -16 q 102 -45 114 -36 z "},"/":{"ha":758,"x_min":0,"x_max":758,"o":"m 0 -86 q 355 553 210 259 q 587 1128 503 854 q 675 1085 616 1107 q 758 1066 714 1072 q 461 503 608 814 q 171 -146 284 144 q 0 -86 82 -96 z "},":":{"ha":389,"x_min":102,"x_max":288,"o":"m 277 489 q 278 447 277 470 q 283 397 280 425 q 228 387 256 394 q 177 371 201 380 q 133 351 153 361 q 102 332 114 341 q 115 449 115 388 q 114 486 115 467 q 106 536 113 504 q 288 600 193 545 q 277 489 277 561 m 277 112 q 278 70 277 93 q 283 20 280 47 q 228 10 256 17 q 177 -6 201 3 q 133 -26 153 -16 q 102 -45 114 -36 q 115 72 115 11 q 114 109 115 90 q 106 159 113 127 q 288 222 193 168 q 277 112 277 184 z "},";":{"ha":445,"x_min":0,"x_max":374,"o":"m 363 478 q 365 443 363 463 q 370 396 367 422 q 315 386 342 393 q 263 369 288 378 q 220 350 239 360 q 189 331 201 340 q 201 448 201 387 q 200 484 201 466 q 193 535 199 503 q 374 598 280 544 q 363 478 363 559 m 0 -181 q 126 5 45 -163 q 191 190 182 121 q 217 179 201 184 q 253 169 233 174 q 297 160 273 163 q 346 157 321 157 l 370 158 q 248 -5 341 134 q 179 -211 197 -106 q 98 -188 136 -195 q 19 -180 59 -180 l 0 -181 z "},"<":{"ha":848,"x_min":54,"x_max":746,"o":"m 54 378 q 95 464 79 422 q 115 549 110 507 l 142 552 q 273 614 205 581 q 403 683 340 648 q 524 750 467 717 q 628 811 582 783 q 704 859 673 839 q 745 888 735 879 q 687 749 707 850 q 433 637 642 749 q 256 505 260 545 q 321 439 273 472 q 449 369 370 406 q 650 280 576 311 q 746 247 724 250 q 729 218 738 237 q 711 177 720 200 q 695 128 702 154 q 685 76 688 102 q 404 255 636 117 q 54 378 167 363 z "},"=":{"ha":768,"x_min":54,"x_max":713,"o":"m 55 296 q 81 361 66 319 q 100 467 95 404 l 118 461 q 428 434 222 434 q 713 467 565 434 q 683 378 694 420 q 669 296 673 337 l 652 300 q 362 323 511 323 l 338 323 q 55 296 193 323 m 54 517 q 80 582 66 540 q 100 688 94 625 l 117 682 q 427 655 222 655 q 713 688 564 655 q 683 600 693 641 q 669 517 672 558 l 652 521 q 361 545 511 545 l 338 545 q 54 517 192 545 z "},">":{"ha":848,"x_min":102,"x_max":793,"o":"m 793 585 q 752 497 767 538 q 733 414 738 456 l 706 412 q 575 349 642 382 q 444 281 508 315 q 323 213 380 246 q 220 153 265 180 q 143 104 174 125 q 102 76 113 84 q 161 214 140 114 q 415 326 205 214 q 592 458 588 418 q 399 595 557 522 q 198 683 272 652 q 102 717 124 713 q 137 786 128 763 q 153 836 146 810 q 163 888 159 862 q 444 709 212 847 q 793 585 681 600 z "},"?":{"ha":841,"x_min":81,"x_max":760,"o":"m 475 113 q 477 72 475 94 q 482 22 479 49 q 427 11 454 18 q 375 -5 399 4 q 332 -24 351 -14 q 300 -43 313 -35 q 313 73 313 12 q 312 110 313 92 q 304 161 311 128 q 486 224 392 170 q 475 113 475 185 m 306 208 q 290 286 290 249 q 355 412 290 358 l 447 477 q 557 560 508 522 q 634 684 634 619 q 629 717 634 701 q 612 747 625 732 q 580 778 600 762 q 529 811 559 793 q 243 926 374 898 q 186 812 186 873 q 202 759 186 781 q 256 719 218 736 l 123 628 q 92 676 102 652 q 81 727 81 701 q 91 769 81 747 q 116 813 101 791 q 150 853 132 834 q 185 888 168 873 q 216 914 202 904 q 235 928 229 924 l 401 1025 q 582 935 552 954 q 668 874 634 903 q 722 818 702 846 q 751 760 743 790 q 760 694 759 730 l 760 692 q 746 613 760 648 q 703 547 732 578 q 629 487 673 516 q 523 423 584 457 l 459 388 q 434 365 441 376 q 427 342 427 354 q 448 311 427 326 l 306 208 z "},"@":{"ha":842,"x_min":68,"x_max":774,"o":"m 462 -260 q 404 -240 436 -254 q 336 -205 371 -226 q 265 -157 300 -184 q 200 -96 230 -130 q 144 -24 170 -63 q 104 58 119 14 q 77 161 85 114 q 68 248 68 209 q 77 335 71 292 q 98 421 84 378 q 136 507 113 464 q 195 592 159 551 q 238 637 218 618 q 279 670 258 657 l 433 766 q 510 737 467 758 q 594 685 553 716 q 666 613 634 653 q 715 528 699 573 q 744 385 741 463 q 768 87 751 178 l 774 62 q 720 52 746 59 q 672 37 694 45 q 632 18 650 28 q 603 0 614 9 q 629 339 629 179 q 624 438 629 399 q 604 500 618 477 q 552 558 580 535 q 485 600 524 582 q 397 632 446 617 q 280 664 349 647 q 234 594 257 635 q 191 503 210 553 q 161 398 172 454 q 150 275 150 342 q 166 175 150 231 q 222 56 183 120 q 284 -17 243 19 q 378 -82 326 -52 q 491 -135 431 -113 q 613 -165 552 -157 l 462 -260 m 489 0 q 456 16 477 5 q 407 46 435 28 q 350 91 379 64 q 293 155 320 118 q 258 281 258 222 q 290 379 264 338 q 356 447 316 420 q 444 489 395 475 q 543 503 492 503 q 394 406 442 457 q 345 296 345 354 q 358 248 346 269 q 387 210 370 228 q 418 179 404 192 q 441 161 433 166 q 604 94 541 100 l 489 0 z "},"A":{"ha":865,"x_min":0,"x_max":865,"o":"m 865 62 q 812 52 838 59 q 764 37 786 45 q 724 18 741 28 q 694 0 706 9 q 659 123 684 41 q 596 330 635 205 q 523 335 559 333 q 449 337 487 337 q 429 337 438 337 q 414 336 420 336 q 222 324 296 336 l 216 323 q 158 153 178 216 q 138 68 138 90 l 138 60 q 0 0 43 41 q 99 214 47 94 q 210 483 151 334 q 342 939 317 754 l 345 966 q 516 1025 428 975 q 654 511 537 823 q 865 62 779 173 m 575 397 l 546 490 q 468 721 500 637 q 418 825 435 804 q 273 479 382 772 l 243 399 q 316 393 277 395 q 397 391 354 391 l 411 391 q 575 397 512 391 z "},"B":{"ha":918,"x_min":61,"x_max":838,"o":"m 134 0 q 157 196 149 104 q 164 370 164 288 q 156 557 164 470 q 138 716 149 644 l 134 739 q 217 759 176 744 q 300 797 258 773 l 305 800 q 282 615 290 696 q 274 469 274 533 q 274 452 274 460 q 275 437 274 444 q 287 210 281 294 q 296 95 292 125 l 328 79 q 452 62 395 62 q 564 80 513 62 q 659 134 616 98 q 698 210 686 173 q 711 283 711 247 q 671 411 711 360 q 557 478 632 462 q 524 481 541 481 q 305 411 443 481 l 405 584 q 545 787 545 648 q 509 868 545 836 q 401 900 473 900 q 326 891 367 899 q 240 868 284 884 q 150 829 195 852 q 61 772 104 805 l 106 950 q 182 980 155 970 q 216 994 209 991 q 313 1018 265 1009 q 408 1026 361 1026 q 491 1017 456 1026 q 550 993 526 1008 q 626 916 601 958 q 651 824 651 873 q 635 751 650 786 q 596 687 620 716 q 544 636 572 658 q 487 603 515 614 q 510 605 498 604 q 532 606 522 606 q 628 593 585 606 q 705 557 671 579 q 764 505 739 534 q 805 444 789 475 q 829 380 821 412 q 838 320 838 348 q 831 257 838 286 q 820 213 825 229 q 768 113 800 154 q 696 45 736 71 q 611 8 656 20 q 517 -3 565 -3 q 471 -2 489 -3 q 452 0 454 -1 l 305 62 q 251 52 277 59 q 202 36 224 45 q 163 18 180 27 q 134 0 145 8 z "},"C":{"ha":886,"x_min":81,"x_max":805,"o":"m 805 328 q 799 311 802 316 q 711 175 758 222 q 655 119 676 139 q 627 95 634 100 l 475 0 q 385 36 437 10 q 281 103 333 62 q 185 198 229 144 q 118 319 141 252 q 91 417 100 370 q 81 512 81 465 q 97 631 81 570 q 141 749 113 692 q 208 852 170 805 q 292 930 247 899 l 443 1027 q 489 1011 462 1022 q 549 982 516 1000 q 620 937 583 964 q 694 874 656 911 q 733 829 715 852 l 598 763 q 536 829 568 802 q 468 876 504 857 q 391 908 432 895 q 300 929 350 920 l 300 928 q 211 749 241 895 q 191 573 191 651 q 199 482 191 530 q 228 386 208 434 q 281 293 248 338 q 361 208 313 247 q 472 140 408 170 q 618 96 536 111 q 682 271 682 152 q 668 374 682 326 l 805 328 z "},"D":{"ha":935,"x_min":61,"x_max":857,"o":"m 135 0 q 157 196 150 104 q 165 367 165 287 q 157 547 165 459 q 139 716 149 634 l 135 739 q 217 759 176 744 q 306 800 258 773 q 282 616 290 699 q 275 467 275 534 l 275 437 q 288 199 283 283 q 296 95 293 114 l 328 79 q 431 60 381 60 q 627 157 547 60 q 682 245 660 203 q 719 327 705 286 q 738 411 732 368 q 744 502 744 453 q 736 598 744 555 q 712 680 728 642 q 671 749 696 717 q 612 811 646 781 q 510 871 570 848 q 373 894 450 894 q 298 885 338 894 q 218 861 258 877 q 137 823 177 845 q 61 772 97 800 l 106 950 l 216 994 q 311 1017 267 1008 q 390 1025 354 1025 q 454 1020 419 1025 q 528 1002 488 1015 q 611 964 568 988 q 701 901 654 939 q 761 836 732 875 q 810 745 789 796 q 844 633 831 694 q 857 501 857 572 q 841 364 857 427 q 802 248 826 300 q 746 156 777 196 q 682 90 714 116 q 571 23 627 45 q 452 0 514 1 l 306 62 q 245 51 271 58 q 199 35 219 44 q 163 17 178 26 q 135 0 148 8 z "},"E":{"ha":718,"x_min":102,"x_max":684,"o":"m 353 28 q 102 0 237 28 q 124 213 117 100 q 131 454 131 326 q 124 760 131 637 q 106 941 117 882 l 102 964 q 184 984 143 969 q 273 1025 225 998 q 356 1000 315 1010 q 449 990 397 990 q 644 1025 538 990 q 589 854 594 935 q 378 922 463 861 q 311 976 338 954 q 271 1011 284 998 q 242 563 242 825 l 242 551 q 562 627 429 560 q 535 557 549 602 q 517 456 522 513 l 498 462 q 270 485 421 485 l 243 485 q 265 98 245 207 q 297 93 286 93 q 684 171 530 93 q 658 107 671 147 q 638 0 645 66 l 621 5 q 353 28 547 28 z "},"F":{"ha":642,"x_min":102,"x_max":643,"o":"m 273 1025 q 358 999 317 1007 q 449 990 399 990 q 643 1025 538 990 q 589 854 594 935 q 472 874 524 857 q 378 922 420 891 q 307 980 333 956 q 271 1018 281 1004 q 249 810 256 923 q 242 563 242 697 l 242 551 q 562 627 429 560 q 534 554 547 599 q 517 456 522 509 l 498 462 q 399 479 460 473 q 253 485 338 486 l 243 485 q 250 239 245 338 q 267 87 256 140 l 273 62 q 217 52 243 59 q 169 36 191 45 q 130 18 147 27 q 102 0 113 8 q 124 214 117 101 q 131 455 131 327 q 123 757 130 635 q 106 941 117 879 l 102 964 q 184 983 143 969 q 273 1025 225 998 z "},"G":{"ha":879,"x_min":81,"x_max":777,"o":"m 623 96 q 633 183 629 142 q 636 260 636 224 l 636 279 q 630 378 635 331 q 611 470 625 425 l 606 486 q 688 505 647 490 q 777 546 730 519 q 734 299 734 444 l 734 282 q 770 79 734 155 l 777 62 q 721 52 747 59 q 673 36 695 45 q 634 17 651 26 q 606 0 616 8 q 614 47 610 24 q 622 92 618 71 l 475 0 q 418 20 450 7 q 352 54 386 34 q 282 101 317 75 q 216 161 248 128 q 159 234 185 195 q 118 319 134 273 q 81 512 81 423 q 97 631 81 570 q 141 749 113 692 q 208 852 170 805 q 292 930 247 899 l 443 1027 q 488 1011 461 1022 q 549 982 515 1000 q 619 938 582 964 q 694 874 656 911 q 733 829 715 852 l 598 763 q 536 829 568 802 q 468 876 504 857 q 391 907 432 895 q 300 929 350 920 l 300 928 q 211 749 241 895 q 191 573 191 651 q 201 472 191 525 q 236 366 211 418 q 302 265 260 314 q 408 176 344 216 q 623 96 503 115 z "},"H":{"ha":889,"x_min":102,"x_max":787,"o":"m 102 0 q 131 456 131 202 q 130 529 131 492 q 106 941 125 827 l 102 964 q 268 1022 184 974 l 273 1025 q 242 570 243 837 q 425 559 329 559 q 437 559 431 559 q 644 573 582 559 q 621 941 639 828 l 616 964 q 783 1022 699 974 l 787 1025 q 757 558 757 833 q 757 534 757 547 q 782 87 757 208 l 787 62 q 705 43 741 57 q 616 0 646 22 q 646 463 646 205 q 646 486 646 474 q 488 495 580 495 q 439 494 463 495 q 243 484 276 490 q 267 87 245 193 l 273 62 q 190 43 227 57 q 102 0 131 22 z "},"I":{"ha":374,"x_min":102,"x_max":273,"o":"m 102 0 q 131 456 131 203 q 130 529 131 493 q 106 941 125 826 l 102 964 q 268 1022 184 974 l 273 1025 q 242 558 242 832 q 242 534 242 547 q 267 87 242 209 l 273 62 q 190 43 227 57 q 102 0 131 22 z "},"J":{"ha":761,"x_min":0,"x_max":659,"o":"m 0 198 l 135 264 q 199 196 167 224 q 267 151 231 169 q 343 120 302 134 q 433 98 384 107 q 502 274 473 132 q 516 526 516 345 l 516 543 q 510 736 516 637 q 492 941 504 836 l 488 964 q 571 984 530 969 q 659 1025 612 998 q 636 829 644 928 q 628 628 628 730 q 632 456 628 522 q 638 372 635 390 q 613 302 632 341 q 566 225 593 263 q 506 153 538 188 q 441 97 473 119 l 291 0 q 248 15 275 5 q 187 43 220 25 q 116 89 154 62 q 39 153 78 115 q 19 175 28 164 q 0 198 9 186 z "},"K":{"ha":829,"x_min":102,"x_max":761,"o":"m 102 0 q 124 215 117 102 q 131 456 131 328 q 124 756 130 635 q 106 941 117 878 l 102 964 q 184 984 143 969 q 273 1025 225 998 q 242 534 242 833 q 242 472 242 502 q 243 414 243 443 q 423 657 306 486 q 554 860 510 785 q 598 958 598 935 l 598 967 q 746 1025 706 987 q 471 637 644 915 q 511 522 488 579 q 566 397 533 465 q 646 249 599 330 q 761 60 693 167 q 679 41 720 56 q 590 0 637 26 q 499 267 551 141 q 373 495 446 393 q 249 265 300 386 q 256 161 252 205 q 267 87 260 117 l 273 62 q 217 52 243 59 q 169 36 191 45 q 130 18 147 27 q 102 0 113 8 z "},"L":{"ha":650,"x_min":102,"x_max":684,"o":"m 353 28 q 102 0 237 28 q 124 215 117 102 q 131 456 131 328 q 124 756 130 635 q 106 941 117 878 l 102 964 q 184 984 143 969 q 273 1025 225 998 q 242 558 242 833 l 242 534 q 265 98 242 224 q 297 93 283 93 q 684 171 530 93 q 657 104 671 147 q 638 0 644 61 l 621 5 q 353 28 547 28 z "},"M":{"ha":1156,"x_min":34,"x_max":1122,"o":"m 34 0 q 125 502 68 113 q 172 860 154 694 q 107 964 137 925 q 190 983 148 968 q 278 1025 252 1004 l 278 1023 l 279 1025 l 279 1023 q 427 536 299 941 q 555 201 519 244 q 700 547 592 255 q 826 917 802 823 q 813 944 823 926 l 802 966 q 968 1023 884 975 l 972 1026 l 972 1025 l 972 1025 q 1011 543 972 807 q 1110 87 1058 224 q 1122 62 1119 64 q 1040 43 1076 57 q 951 0 981 22 q 953 32 953 13 q 905 532 951 160 q 863 790 886 686 l 762 543 q 630 87 656 273 q 627 67 627 68 l 627 60 q 461 3 545 51 l 456 0 q 319 515 435 205 q 217 766 264 663 q 177 499 198 652 q 136 76 144 266 l 136 60 q 37 3 84 50 l 34 0 z "},"N":{"ha":876,"x_min":61,"x_max":774,"o":"m 70 954 l 61 964 q 232 1025 163 976 q 311 804 264 913 q 418 589 358 694 q 544 381 477 483 q 683 184 610 279 q 691 467 691 320 l 691 490 q 687 764 690 654 q 675 938 684 875 l 672 964 q 707 974 691 967 q 735 989 722 981 q 774 1025 748 998 q 761 815 765 927 q 757 571 757 703 q 760 288 757 408 q 772 85 764 168 l 774 62 q 721 52 747 59 q 673 37 695 45 q 633 18 650 28 q 604 0 615 9 q 347 506 588 83 l 215 732 q 213 578 213 661 q 216 288 213 410 q 228 83 220 165 l 231 60 q 129 0 182 51 q 147 469 147 202 l 147 488 q 145 693 147 602 q 138 857 143 785 q 100 916 117 891 q 70 954 83 940 z "},"O":{"ha":918,"x_min":81,"x_max":837,"o":"m 300 929 q 211 749 243 895 q 191 575 191 654 q 195 508 191 540 q 258 324 206 419 q 408 176 307 239 q 618 96 505 117 l 619 97 q 711 287 682 132 q 728 449 728 376 q 724 517 728 484 q 661 701 714 603 q 515 846 612 789 q 300 929 418 903 m 475 0 q 353 53 427 13 q 224 151 284 91 q 118 319 149 228 q 81 509 81 421 q 81 512 81 511 q 123 712 81 608 q 209 852 154 789 q 292 930 252 903 l 443 1027 q 566 972 486 1016 q 694 874 626 940 q 802 701 771 797 q 837 513 836 600 q 837 509 837 513 q 799 311 837 400 q 711 175 762 226 q 627 95 641 104 l 475 0 z "},"P":{"ha":905,"x_min":61,"x_max":823,"o":"m 136 0 q 158 196 151 104 q 165 370 165 288 q 158 552 165 465 q 140 716 150 638 l 136 739 q 218 759 177 744 q 307 800 259 773 q 283 618 291 701 q 275 467 275 535 q 275 445 275 455 q 276 422 275 435 q 277 394 277 410 q 279 354 278 378 l 292 348 q 444 317 376 317 q 532 330 490 317 q 606 367 573 343 q 661 426 640 391 q 691 505 683 461 q 697 550 695 529 q 700 591 700 572 q 692 657 700 625 q 673 718 685 689 q 645 771 661 747 q 612 813 629 795 q 572 844 596 829 q 517 871 548 859 q 451 889 487 882 q 373 896 414 896 q 299 887 338 896 q 220 863 260 879 q 139 825 180 848 q 61 774 99 803 l 106 952 q 186 984 159 973 q 216 996 214 995 q 320 1020 277 1012 q 391 1027 363 1027 q 463 1020 422 1027 q 546 996 503 1012 q 628 957 588 980 q 701 903 669 933 q 751 844 728 877 q 789 774 773 811 q 814 696 806 736 q 823 610 823 655 q 815 540 823 578 q 791 463 807 502 q 747 388 776 423 q 680 325 719 353 q 588 279 641 296 q 468 262 536 262 q 379 270 423 262 q 292 289 336 277 l 282 291 q 292 147 288 200 q 301 78 296 94 l 307 62 q 249 52 275 59 q 202 37 223 45 q 165 18 181 28 q 136 0 149 9 z "},"Q":{"ha":918,"x_min":81,"x_max":893,"o":"m 475 0 q 423 19 453 6 q 359 50 393 31 q 290 95 325 69 q 224 151 256 120 q 157 237 184 191 q 113 330 130 283 q 89 423 96 377 q 81 512 81 469 q 95 623 81 564 q 136 738 109 682 q 202 845 163 795 q 292 930 241 895 l 443 1027 q 484 1013 456 1023 q 546 984 511 1002 q 618 939 580 965 q 691 877 656 912 q 755 798 726 842 q 802 701 785 754 q 828 602 819 650 q 837 509 837 553 q 827 407 837 456 q 800 315 817 358 q 761 237 783 273 q 711 175 738 201 l 705 169 l 736 122 q 893 -39 845 -29 q 811 -59 852 -44 q 722 -100 770 -73 q 619 90 686 1 l 475 0 m 300 929 q 211 749 242 895 q 191 575 191 654 q 199 485 191 532 q 227 389 208 437 q 279 294 247 340 q 358 210 311 247 q 468 143 405 173 q 613 98 531 113 q 522 188 557 155 q 470 231 486 221 q 523 240 497 233 q 572 256 549 248 q 612 275 594 265 q 641 293 629 284 q 659 249 648 273 q 687 197 670 225 q 706 260 698 227 q 719 326 713 293 q 726 391 724 359 q 728 449 728 422 q 719 548 728 494 q 685 655 709 601 q 618 760 661 709 q 509 850 575 810 q 300 929 415 909 z "},"R":{"ha":904,"x_min":61,"x_max":829,"o":"m 136 0 q 158 196 151 104 q 165 370 165 288 q 158 552 165 465 q 140 716 150 638 l 136 739 q 218 759 177 744 q 307 800 259 773 q 283 618 291 701 q 275 467 275 535 q 275 445 275 455 q 276 422 275 435 q 277 394 277 410 q 279 354 278 378 l 292 348 q 444 317 376 317 q 531 331 490 318 q 607 368 572 345 q 662 427 641 392 q 691 505 683 461 q 697 550 695 529 q 700 591 700 572 q 692 657 700 625 q 673 718 685 689 q 645 771 661 747 q 612 813 629 795 q 572 844 596 829 q 517 871 548 859 q 451 889 487 882 q 373 896 414 896 q 299 887 338 896 q 220 863 260 879 q 139 825 180 848 q 61 774 99 803 l 106 952 q 186 984 159 973 q 216 996 214 995 q 320 1020 277 1012 q 391 1027 363 1027 q 463 1020 422 1027 q 546 996 503 1012 q 628 957 588 980 q 701 903 669 933 q 751 844 728 877 q 789 774 773 811 q 814 696 806 736 q 823 614 823 655 q 816 541 823 577 q 794 468 809 505 q 751 394 779 431 q 681 326 724 358 q 663 313 671 318 l 662 313 q 743 173 701 235 q 829 60 785 110 q 747 41 788 56 q 659 0 706 26 q 559 271 595 203 q 543 269 552 270 q 522 266 534 267 q 496 263 510 264 q 468 262 481 262 q 379 270 423 262 q 292 289 336 277 l 282 291 q 292 147 288 200 q 301 78 296 94 l 307 62 q 249 52 275 59 q 201 36 222 45 q 164 17 180 26 q 136 0 148 8 z "},"S":{"ha":878,"x_min":81,"x_max":798,"o":"m 430 1027 q 474 1011 447 1023 q 535 982 502 1000 q 606 938 569 964 q 682 874 644 911 q 702 852 692 863 q 721 829 712 841 l 586 763 q 523 830 555 802 q 454 876 491 857 q 377 907 418 894 q 288 929 336 920 q 214 771 214 878 q 294 669 214 697 q 747 465 680 531 q 784 404 770 441 q 798 317 798 366 q 782 247 798 281 q 732 176 767 213 q 644 99 670 112 l 463 0 q 254 83 392 8 q 197 121 230 96 q 121 188 163 147 q 100 210 109 198 q 81 233 90 221 l 216 299 q 362 191 239 262 q 635 100 468 131 q 709 259 709 153 q 588 401 709 349 q 357 498 437 465 q 269 536 278 532 q 130 716 130 589 q 191 853 130 789 q 279 930 254 918 l 430 1027 z "},"T":{"ha":680,"x_min":-34,"x_max":714,"o":"m 252 0 q 274 214 267 101 q 281 455 281 327 q 274 747 281 628 q 258 930 267 865 q 102 905 175 924 q -34 854 30 886 q -7 923 -20 880 q 12 1025 6 966 l 29 1019 q 389 994 109 994 q 714 1025 574 994 q 684 938 694 979 q 670 854 673 897 l 656 863 q 416 929 573 918 q 398 746 404 842 q 392 534 392 651 q 398 260 393 371 q 417 87 404 149 l 422 62 q 365 52 391 59 q 317 36 338 45 q 279 17 296 26 q 252 0 263 8 z "},"U":{"ha":917,"x_min":102,"x_max":815,"o":"m 102 964 q 184 984 142 969 q 273 1025 225 998 q 250 810 258 930 q 243 544 243 691 q 243 443 243 480 q 245 395 244 406 q 345 178 254 253 q 589 98 410 123 l 589 99 q 658 274 631 133 q 672 526 672 346 l 672 543 q 666 738 672 639 q 648 941 660 837 l 644 964 q 727 984 686 969 q 815 1025 768 998 q 791 825 800 926 q 783 618 783 724 q 787 449 783 513 q 794 372 791 385 q 771 308 789 345 q 726 232 753 271 q 666 157 699 193 q 597 97 633 121 l 428 -1 q 401 5 417 0 q 364 18 385 9 q 318 40 342 27 q 268 69 293 52 q 219 105 243 85 q 178 149 196 125 q 122 342 122 240 q 130 530 130 459 l 130 549 q 106 941 130 816 l 102 964 z "},"V":{"ha":865,"x_min":0,"x_max":865,"o":"m 520 60 q 438 41 479 56 q 349 0 397 26 q 303 233 338 105 q 212 515 269 360 q 96 795 149 684 q 0 964 44 907 q 52 974 26 966 q 101 989 78 981 q 142 1007 124 998 q 171 1025 161 1017 q 218 862 181 983 q 319 536 255 740 q 448 201 412 243 q 593 547 484 254 q 693 831 659 728 q 727 958 727 934 l 727 966 q 865 1025 824 985 q 770 823 823 943 q 655 543 718 703 q 523 87 548 273 l 520 60 z "},"W":{"ha":1204,"x_min":0,"x_max":1204,"o":"m 0 964 q 55 974 28 966 q 105 990 82 981 q 144 1008 127 999 q 171 1025 161 1017 q 319 536 192 937 q 448 201 412 243 q 566 475 479 249 l 551 515 q 339 964 425 852 q 391 974 365 966 q 441 989 418 981 q 482 1008 464 998 q 510 1025 500 1017 q 626 638 531 933 q 702 854 676 774 q 727 958 727 933 l 727 966 q 865 1025 824 985 q 656 545 768 836 q 787 201 751 243 q 932 547 825 256 q 1032 831 998 729 q 1066 958 1066 933 l 1066 966 q 1204 1025 1163 987 q 1108 821 1161 940 q 994 543 1056 701 q 862 87 887 272 l 859 60 q 777 41 818 56 q 688 0 736 26 q 597 384 671 160 q 550 225 568 299 q 523 87 532 152 l 520 60 q 438 41 479 56 q 349 0 397 26 q 212 515 327 204 q 0 964 85 852 z "},"X":{"ha":804,"x_min":20,"x_max":783,"o":"m 783 58 q 701 38 742 53 q 612 -3 660 24 q 519 189 576 82 q 385 427 463 295 q 305 297 341 356 q 245 193 269 238 q 206 116 220 147 q 191 60 191 85 q 109 41 150 56 q 20 0 68 26 q 190 234 107 115 q 353 481 273 354 l 338 505 q 138 801 217 686 q 20 964 58 916 q 75 974 49 966 q 123 990 101 981 q 162 1008 145 999 q 191 1026 180 1018 q 289 815 232 923 q 419 589 345 707 q 571 847 520 755 q 621 966 621 939 q 782 1024 749 994 q 662 855 744 977 q 454 536 579 733 q 783 58 615 288 z "},"Y":{"ha":865,"x_min":0,"x_max":865,"o":"m 0 964 q 55 974 28 966 q 105 990 82 981 q 144 1008 127 999 q 171 1025 161 1017 q 225 873 195 949 q 290 722 254 798 q 368 573 326 647 q 460 429 410 500 q 593 621 514 458 q 693 841 659 757 q 727 966 727 925 q 865 1025 827 987 q 637 612 787 905 q 499 317 522 385 q 507 180 503 237 q 520 87 512 123 l 526 62 q 471 52 497 59 q 423 36 445 45 q 383 18 401 27 q 355 0 366 8 q 371 137 364 66 q 380 284 377 208 q 289 478 335 387 q 194 651 242 569 q 0 964 55 911 z "},"Z":{"ha":779,"x_min":54,"x_max":724,"o":"m 54 0 l 67 9 q 348 539 128 71 q 437 742 397 645 q 505 929 476 839 q 431 933 458 932 q 395 935 404 935 q 112 854 272 935 q 138 919 123 877 q 157 1025 152 962 l 175 1019 q 467 995 256 995 q 724 1025 587 995 q 446 491 617 885 l 283 95 q 367 92 327 92 q 724 171 575 96 q 697 105 711 148 q 678 0 684 63 q 530 25 617 19 q 313 31 443 31 q 54 0 195 31 z "},"[":{"ha":566,"x_min":115,"x_max":532,"o":"m 115 -236 q 137 30 130 -135 q 144 422 144 194 q 139 784 144 616 q 121 1100 134 951 l 117 1123 q 199 1142 158 1128 q 288 1183 240 1157 q 398 1154 337 1154 q 463 1162 429 1154 q 532 1185 496 1171 q 478 1014 483 1095 q 440 1024 459 1015 q 402 1047 421 1034 q 363 1079 383 1061 q 327 1113 344 1096 q 300 1145 311 1130 q 286 1170 290 1160 q 263 912 271 1072 q 256 525 256 751 l 256 501 q 279 -138 256 -12 q 307 -143 296 -143 q 412 -122 358 -143 q 520 -62 466 -102 q 494 -129 507 -86 q 475 -233 480 -172 l 457 -228 q 304 -208 391 -208 q 115 -236 250 -208 z "},"\\":{"ha":758,"x_min":0,"x_max":758,"o":"m 758 -86 q 587 -146 676 -96 q 297 503 474 144 q 0 1066 151 814 q 83 1085 45 1072 q 171 1128 142 1107 q 403 553 255 854 q 758 -86 549 256 z "},"]":{"ha":566,"x_min":34,"x_max":450,"o":"m 91 1182 l 109 1177 q 261 1156 174 1156 q 450 1185 315 1156 q 428 919 435 1084 q 421 526 421 755 q 426 165 421 332 q 445 -151 431 -3 l 449 -174 q 367 -194 408 -179 q 278 -235 326 -208 q 168 -205 229 -205 q 103 -214 136 -205 q 34 -236 70 -222 q 87 -65 83 -146 q 125 -76 106 -66 q 163 -99 143 -85 q 202 -129 182 -113 q 237 -162 221 -146 q 264 -195 253 -179 q 280 -221 276 -212 q 302 37 295 -123 q 310 424 310 197 l 310 448 q 287 1086 310 961 q 258 1092 269 1092 q 153 1071 207 1092 q 45 1011 100 1050 q 72 1078 58 1035 q 91 1182 85 1121 z "},"^":{"ha":833,"x_min":54,"x_max":779,"o":"m 483 1025 q 583 831 482 983 q 779 651 673 709 q 727 641 753 648 q 677 626 701 634 q 636 608 654 617 q 608 590 618 598 q 472 793 585 659 q 384 883 400 880 q 282 781 328 836 q 193 652 235 726 l 193 643 q 54 585 92 623 l 71 609 q 178 733 132 679 q 253 831 224 788 q 297 906 283 873 q 312 964 312 938 q 395 984 353 969 q 483 1025 436 998 z "},"_":{"ha":767,"x_min":54,"x_max":713,"o":"m 54 0 q 80 65 66 23 q 100 171 94 108 l 117 165 q 427 138 222 138 q 713 171 564 138 q 683 83 693 124 q 669 0 672 41 l 652 4 q 361 28 511 28 l 338 28 q 54 0 192 28 z "},"`":{"ha":522,"x_min":102,"x_max":420,"o":"m 420 828 q 336 799 372 820 l 275 765 l 272 777 q 231 857 260 813 q 214 880 221 873 q 147 932 181 910 l 102 962 q 245 1025 193 987 l 249 1018 q 287 939 275 956 q 309 910 302 917 q 369 857 334 883 q 420 828 394 839 z "},"a":{"ha":738,"x_min":68,"x_max":670,"o":"m 83 570 q 143 644 101 610 l 175 670 l 330 766 q 425 727 368 756 q 527 653 479 699 q 611 528 587 595 q 640 385 637 463 q 665 87 644 193 l 670 62 q 587 43 624 57 q 499 0 528 22 q 525 364 525 183 q 525 382 525 373 q 500 500 525 460 q 382 599 458 564 q 182 660 315 631 q 171 601 171 643 q 180 532 171 574 l 83 570 m 356 0 q 233 57 317 14 q 111 155 170 90 q 68 280 68 222 q 68 283 68 281 q 144 416 78 366 q 422 503 255 502 q 183 334 216 427 q 176 296 176 314 q 198 240 176 264 q 296 161 256 181 q 498 94 419 101 l 356 0 z "},"b":{"ha":795,"x_min":102,"x_max":728,"o":"m 585 100 q 634 228 623 165 q 645 338 645 288 q 640 389 645 361 q 589 511 626 458 q 475 606 551 570 q 274 671 401 642 l 418 766 q 515 724 451 757 q 616 651 562 700 q 701 522 676 593 q 728 380 728 446 l 728 378 q 699 229 728 304 q 621 117 667 149 l 597 96 l 443 0 q 347 39 401 11 q 245 113 283 73 q 154 232 181 182 q 131 350 131 282 q 132 381 131 367 q 138 588 138 446 q 138 656 138 626 q 107 938 134 817 l 102 962 q 184 981 148 968 q 273 1025 243 1003 q 242 652 245 877 q 240 439 240 511 q 241 385 241 398 q 272 266 241 307 q 393 168 308 210 q 585 100 470 130 z "},"c":{"ha":692,"x_min":68,"x_max":624,"o":"m 378 -3 q 282 37 338 7 q 180 111 227 66 q 97 236 121 168 q 68 381 68 307 q 101 531 75 475 q 168 636 127 590 q 209 673 186 656 l 353 767 q 450 726 386 758 q 551 652 497 701 q 595 599 567 637 l 486 525 q 410 608 452 578 q 213 667 361 642 l 212 667 q 170 544 193 630 q 154 429 154 482 q 157 385 154 407 q 208 263 166 326 q 325 165 250 199 q 525 103 395 133 l 526 104 q 536 163 536 121 q 528 232 536 189 l 624 194 q 564 119 606 153 q 533 94 533 94 l 378 -3 z "},"d":{"ha":774,"x_min":68,"x_max":673,"o":"m 530 463 q 410 610 496 555 q 213 670 355 646 l 212 669 q 170 547 193 633 q 154 431 154 486 q 157 387 154 410 q 208 266 166 330 q 325 168 248 203 q 516 108 392 136 q 532 422 531 248 q 530 463 532 443 m 673 1025 q 644 569 644 821 q 645 496 644 544 q 669 83 649 208 l 673 60 q 507 3 591 51 l 503 0 q 514 85 509 41 l 378 0 q 282 39 338 10 q 180 113 218 73 q 97 239 126 172 q 68 381 68 300 q 68 384 68 384 q 101 534 71 463 q 168 639 122 584 q 209 675 182 656 l 353 766 q 450 728 392 759 q 528 675 487 709 q 507 941 522 804 l 504 954 l 503 962 l 503 964 q 669 1022 584 974 l 673 1025 z "},"e":{"ha":707,"x_min":68,"x_max":640,"o":"m 378 -3 q 282 37 338 7 q 180 111 226 67 q 97 236 121 168 q 68 378 74 292 l 68 381 q 101 531 68 454 q 168 636 126 590 q 209 673 186 655 l 351 766 q 474 709 387 754 q 596 612 537 677 q 640 486 640 544 q 640 483 640 485 q 564 350 629 400 q 285 263 452 264 q 534 429 495 335 q 542 468 542 449 q 542 469 542 469 q 542 471 542 470 q 518 526 542 499 q 411 605 481 570 q 217 671 292 664 q 170 544 191 629 q 154 429 154 477 q 157 385 154 406 q 208 263 167 324 q 325 165 250 201 q 525 103 390 134 l 526 104 q 536 163 536 121 q 528 232 536 189 l 624 194 q 564 119 606 153 q 533 94 533 94 l 378 -3 z "},"f":{"ha":635,"x_min":37,"x_max":669,"o":"m 102 0 q 133 397 133 193 q 132 478 133 441 q 131 513 131 496 q 37 501 81 509 q 58 553 48 519 q 66 601 64 574 l 77 597 q 126 589 92 593 q 117 650 122 628 l 143 714 q 227 854 175 787 q 387 1024 315 969 l 398 1021 q 484 985 437 1009 q 585 911 536 957 q 669 785 644 855 l 546 735 q 441 857 502 819 q 299 910 364 903 q 259 751 277 859 q 245 583 248 679 q 328 583 287 583 q 513 601 422 583 l 512 597 q 486 501 489 540 l 475 503 q 283 517 430 513 q 245 518 261 518 q 245 499 245 509 l 245 482 q 269 83 245 294 l 273 60 q 106 3 191 51 l 102 0 z "},"g":{"ha":782,"x_min":68,"x_max":681,"o":"m 660 56 q 567 -79 634 -2 q 484 -157 522 -131 l 333 -254 q 260 -225 269 -230 q 169 -155 224 -205 q 130 -110 147 -133 l 252 -49 l 312 -104 q 460 -156 367 -156 q 475 -156 467 -156 l 476 -155 q 544 20 519 -121 q 554 113 553 75 q 556 306 556 256 q 556 326 556 317 q 555 380 555 367 q 524 500 555 459 q 407 598 481 564 q 212 666 336 631 q 162 538 174 601 q 151 428 151 478 q 157 376 151 404 q 207 254 170 307 q 321 159 245 196 q 522 94 394 124 l 378 0 q 281 41 347 8 q 180 115 235 65 q 96 244 120 173 q 68 388 68 320 q 98 536 68 462 q 175 649 130 616 l 199 669 l 353 766 q 450 726 400 753 q 551 652 494 701 q 662 529 637 579 l 664 385 q 675 158 669 206 q 681 109 681 110 l 660 56 z "},"h":{"ha":800,"x_min":102,"x_max":732,"o":"m 102 0 q 124 216 117 102 q 131 456 131 329 q 124 756 130 635 q 106 941 117 878 l 102 964 q 184 984 142 969 q 268 1022 225 998 l 273 1025 q 254 862 261 949 q 243 674 246 775 l 392 766 q 436 751 411 762 q 488 726 460 741 q 543 690 515 711 q 596 645 571 670 q 641 591 621 621 q 673 528 661 562 q 702 385 700 463 q 711 212 705 286 q 727 87 718 138 l 732 62 q 678 52 704 59 q 630 36 652 45 q 590 18 608 27 q 562 0 572 8 q 588 344 588 178 q 586 396 587 373 q 582 438 585 419 q 575 472 580 456 q 563 500 571 487 q 518 553 543 530 q 455 594 492 576 q 367 629 418 613 q 244 660 315 645 l 243 660 q 242 609 243 635 q 242 558 242 584 l 242 534 q 248 260 243 371 q 267 87 254 149 l 273 62 q 217 52 243 59 q 169 36 191 45 q 130 18 147 27 q 102 0 113 8 z "},"i":{"ha":389,"x_min":102,"x_max":288,"o":"m 102 803 q 115 920 115 859 q 114 956 115 938 q 110 993 113 975 l 106 1007 q 283 1067 193 1016 l 288 1070 q 277 960 277 1031 q 278 918 277 941 q 283 868 280 895 q 228 858 256 865 q 177 841 201 850 q 133 822 153 832 q 102 803 114 812 m 113 0 q 133 186 126 102 q 139 338 139 270 q 138 440 139 393 q 134 531 137 488 q 127 614 132 574 q 117 695 123 654 l 113 706 q 196 725 155 711 q 279 764 237 740 l 284 766 q 250 440 250 649 l 250 416 q 279 87 250 226 l 284 62 q 229 52 255 59 q 181 36 203 45 q 141 18 159 27 q 113 0 124 8 z "},"j":{"ha":389,"x_min":-8,"x_max":288,"o":"m 102 803 q 115 920 115 859 q 114 956 115 938 q 110 993 113 975 l 106 1007 q 283 1067 193 1016 l 288 1070 q 277 960 277 1031 q 278 918 277 941 q 283 868 280 895 q 228 858 256 865 q 177 841 201 850 q 133 822 153 832 q 102 803 114 812 m -8 -250 q 126 16 84 -127 q 140 267 140 63 l 140 284 q 134 478 140 379 q 117 683 128 577 l 113 706 q 195 725 154 711 q 279 764 236 740 l 283 766 q 260 571 268 669 q 252 370 252 472 q 257 212 252 277 q 269 117 261 147 q 261 97 269 115 q 239 48 254 78 q 205 -17 225 19 q 159 -88 184 -53 q -1 -252 71 -208 l -8 -250 z "},"k":{"ha":709,"x_min":102,"x_max":709,"o":"m 102 0 q 124 216 117 102 q 131 456 131 329 q 124 756 130 635 q 106 941 117 878 l 102 964 q 184 984 142 969 q 273 1025 225 998 q 242 558 242 832 l 242 534 q 242 474 242 503 q 243 418 242 446 q 273 447 252 427 q 322 497 294 468 q 383 560 351 526 q 447 629 416 594 q 507 697 479 664 q 553 757 534 730 l 560 766 q 607 729 584 744 q 646 709 631 714 q 465 552 580 661 l 397 485 q 709 58 488 269 q 626 38 667 53 q 538 -3 585 24 q 317 396 439 245 q 247 290 267 335 q 255 172 250 222 q 267 87 260 121 l 273 62 q 217 52 243 59 q 169 36 191 45 q 130 18 147 27 q 102 0 113 8 z "},"l":{"ha":374,"x_min":102,"x_max":273,"o":"m 102 0 q 131 456 131 203 q 130 529 131 493 q 106 941 125 826 l 102 964 q 268 1022 184 974 l 273 1025 q 242 558 242 832 q 242 534 242 547 q 267 87 242 209 l 273 62 q 190 43 227 57 q 102 0 131 22 z "},"m":{"ha":1260,"x_min":102,"x_max":1192,"o":"m 102 0 q 127 338 127 203 q 127 411 127 405 q 105 695 125 569 l 102 706 q 268 764 184 715 l 273 766 q 243 674 259 726 l 392 766 q 488 727 431 756 q 589 653 541 699 l 852 766 q 947 727 890 756 q 1049 653 1000 699 q 1133 528 1109 596 q 1162 385 1160 463 q 1187 87 1168 188 l 1192 62 q 1109 43 1147 57 q 1021 0 1050 22 q 1048 344 1048 178 q 1047 382 1047 366 q 1023 500 1047 460 q 905 599 981 562 q 688 657 783 657 q 600 643 640 657 q 673 528 651 589 q 702 385 700 463 q 727 87 708 188 l 732 62 q 650 43 687 57 q 562 0 591 22 q 588 344 588 178 q 587 382 587 366 q 563 500 587 460 q 445 599 522 560 q 244 660 377 633 l 243 660 q 239 440 239 610 l 239 416 q 267 87 239 226 l 273 62 q 190 43 227 57 q 102 0 131 22 z "},"n":{"ha":800,"x_min":102,"x_max":732,"o":"m 102 0 q 127 338 127 203 q 127 411 127 405 q 105 695 125 569 l 102 706 q 268 764 184 715 l 273 766 q 243 674 259 726 l 392 766 q 488 727 431 756 q 589 653 541 699 q 673 528 649 596 q 702 385 700 463 q 727 87 708 188 l 732 62 q 650 43 687 57 q 562 0 591 22 q 588 344 588 178 q 587 382 587 366 q 563 500 587 460 q 445 599 522 560 q 244 660 377 633 l 243 660 q 239 440 239 610 l 239 416 q 267 87 239 226 l 273 62 q 190 43 227 57 q 102 0 131 22 z "},"o":{"ha":730,"x_min":68,"x_max":663,"o":"m 213 667 l 212 667 q 170 544 193 630 q 154 429 154 482 q 157 385 154 408 q 208 263 166 325 q 325 165 250 199 q 525 103 395 133 l 526 104 q 564 238 542 140 q 578 345 578 297 q 574 391 578 371 q 524 512 564 450 q 407 610 492 562 q 213 667 340 647 m 378 -3 q 282 37 338 7 q 180 111 227 66 q 97 236 121 168 q 68 378 68 305 q 68 381 68 380 q 101 531 68 454 q 168 636 127 593 q 209 673 187 656 l 353 767 q 450 726 386 758 q 551 652 497 701 q 635 523 611 594 q 663 382 663 447 l 663 379 q 633 231 663 286 q 556 118 587 146 q 533 94 539 103 l 378 -3 z "},"p":{"ha":774,"x_min":102,"x_max":707,"o":"m 245 303 q 366 156 279 211 q 562 96 422 119 l 563 97 q 580 137 570 110 q 599 198 590 164 q 615 268 608 231 q 621 335 621 304 q 611 407 621 370 q 580 480 601 445 q 527 547 559 516 q 450 599 495 578 q 369 629 417 614 q 258 659 321 644 q 242 345 244 519 l 245 303 m 102 -258 q 124 -43 117 -156 q 131 197 131 71 q 124 498 130 376 q 106 683 117 619 l 102 706 q 184 725 142 711 q 273 766 225 740 q 267 725 269 746 q 261 682 264 704 l 397 766 q 444 750 417 761 q 498 723 471 739 q 551 690 526 708 q 594 653 576 672 q 642 594 621 625 q 677 531 663 564 q 700 461 692 498 q 707 382 707 425 q 697 306 703 338 q 681 245 691 273 q 653 190 670 218 q 607 127 635 163 q 590 111 600 119 q 566 91 580 102 l 422 0 q 344 27 391 5 q 248 91 298 50 q 256 -40 250 26 q 269 -175 261 -106 l 273 -196 l 273 -198 q 190 -217 231 -203 q 102 -258 149 -232 z "},"q":{"ha":795,"x_min":67,"x_max":887,"o":"m 524 -259 q 554 113 551 -110 q 556 292 556 239 l 556 313 q 555 380 555 352 q 551 429 554 408 q 543 467 549 450 q 524 500 536 484 q 476 555 503 532 q 412 596 449 578 q 327 631 376 615 q 212 666 277 648 q 181 602 193 633 q 163 541 170 570 q 154 483 156 511 q 151 428 151 454 q 162 346 151 385 q 195 271 174 306 q 248 208 216 236 q 321 159 279 179 q 407 125 357 142 q 522 94 457 109 l 378 0 q 348 10 369 2 q 301 31 328 18 q 244 64 275 44 q 186 110 214 83 q 134 169 157 136 q 96 244 110 203 q 75 318 82 283 q 68 388 67 353 q 77 466 68 426 q 100 542 85 506 q 134 606 115 577 q 175 649 153 634 l 199 669 l 353 766 q 399 749 372 761 q 454 722 427 737 q 508 688 482 706 q 551 652 534 670 q 602 594 581 621 q 638 540 624 567 q 659 483 652 513 q 665 416 665 453 q 662 329 665 389 q 659 165 659 269 l 659 109 q 673 -79 659 9 q 796 -7 730 -62 q 806 -39 799 -21 q 825 -79 814 -58 q 852 -122 836 -100 q 887 -165 867 -144 l 869 -164 q 820 -168 857 -164 q 722 -181 784 -172 q 682 -190 707 -183 q 630 -206 658 -196 q 574 -230 602 -216 q 524 -259 547 -243 z "},"r":{"ha":640,"x_min":102,"x_max":673,"o":"m 102 0 q 121 186 115 102 q 127 338 127 270 q 126 440 127 393 q 123 531 125 488 q 116 614 120 574 q 105 695 111 654 l 102 706 q 184 725 143 711 q 268 764 225 740 l 273 766 q 258 723 266 747 q 243 674 251 700 l 392 766 q 459 740 419 759 q 541 691 500 722 q 619 620 583 661 q 673 528 655 579 l 551 477 q 487 563 523 528 q 413 620 451 598 q 338 652 375 642 q 273 662 302 662 q 244 660 258 662 l 243 660 q 240 580 241 635 q 239 440 239 526 l 239 416 q 267 87 239 226 l 273 62 q 220 52 246 59 q 172 36 195 45 q 131 18 149 27 q 102 0 113 8 z "},"s":{"ha":684,"x_min":68,"x_max":616,"o":"m 349 -4 q 250 37 296 18 q 195 63 222 47 q 143 98 168 79 q 99 136 119 116 q 68 175 79 155 l 189 251 q 207 219 191 237 q 259 181 223 201 q 352 141 295 161 q 494 104 410 121 q 528 215 528 163 q 447 308 528 286 l 430 313 q 394 318 414 315 q 348 324 373 321 q 232 347 283 332 q 146 383 181 361 q 91 435 111 405 q 69 505 71 465 q 76 544 71 526 q 93 583 81 562 q 125 626 104 604 q 177 673 145 648 l 321 767 q 408 730 371 747 q 472 697 444 714 q 522 662 500 681 q 564 619 543 644 l 446 547 q 378 608 422 576 q 181 667 332 640 l 180 667 q 155 624 165 650 q 144 568 144 599 q 164 520 144 539 q 215 489 184 501 q 284 470 246 477 q 359 458 323 463 q 602 343 564 437 q 616 276 616 311 q 612 244 616 260 q 600 210 609 229 q 573 168 590 191 q 528 118 555 146 q 497 95 521 111 l 349 -4 z "},"t":{"ha":408,"x_min":-34,"x_max":442,"o":"m 119 0 q 141 216 134 102 q 148 456 148 329 q 148 496 148 477 q 147 529 148 514 l 143 684 q 51 678 94 682 q -34 667 7 674 q -17 707 -24 682 q -5 766 -9 732 l 6 763 q 59 754 26 757 q 140 750 92 752 q 132 861 136 813 q 123 941 128 908 l 119 964 q 201 984 160 969 q 290 1025 242 998 q 263 749 271 904 q 359 754 315 750 q 442 766 404 759 q 414 667 420 720 l 404 669 q 345 677 380 675 q 260 682 309 680 q 259 621 260 652 q 259 558 259 591 l 259 534 q 265 260 260 371 q 284 87 271 149 l 290 62 q 239 52 265 59 q 190 36 214 45 q 148 17 167 26 q 119 0 129 7 z "},"u":{"ha":800,"x_min":68,"x_max":699,"o":"m 68 704 q 122 714 96 707 q 171 730 149 721 q 210 749 193 739 q 239 766 227 758 q 212 422 212 588 q 215 370 214 393 q 218 329 216 347 q 224 295 220 310 q 237 266 229 279 q 282 214 257 237 q 345 172 308 191 q 434 137 382 153 q 557 106 485 121 q 561 186 559 132 q 562 326 562 241 l 562 350 q 554 527 560 445 q 533 680 549 610 l 528 704 q 582 714 556 707 q 630 730 608 721 q 670 749 652 739 q 699 766 687 758 q 679 580 686 664 q 673 429 673 496 q 674 326 673 373 q 677 235 675 278 q 684 152 680 192 q 695 71 688 112 l 699 60 q 616 41 657 56 q 532 3 575 26 l 528 0 q 542 43 534 20 q 557 92 549 66 l 408 0 q 339 27 380 7 q 257 76 298 46 q 180 147 216 106 q 127 239 145 188 q 98 381 100 304 q 89 554 95 480 q 73 680 83 629 l 68 704 z "},"v":{"ha":687,"x_min":0,"x_max":688,"o":"m 269 0 q 153 404 237 215 q 74 573 112 498 q 0 705 35 648 q 41 715 20 708 q 81 730 62 722 q 115 749 100 739 q 138 766 130 758 q 254 434 153 668 q 378 191 355 199 q 491 396 425 237 q 575 699 575 599 l 575 707 q 688 766 656 728 q 617 588 648 665 q 564 455 587 512 q 524 356 541 397 q 494 283 507 314 q 471 229 481 252 q 454 183 462 205 q 437 139 446 161 q 419 87 429 117 q 416 62 416 80 q 273 3 338 49 l 269 0 z "},"w":{"ha":1260,"x_min":68,"x_max":1158,"o":"m 68 704 q 122 714 96 707 q 171 730 149 721 q 210 749 193 739 q 239 766 227 758 q 212 422 212 588 q 215 370 214 393 q 218 329 216 347 q 224 295 220 310 q 237 266 229 279 q 307 197 264 227 q 397 148 349 168 q 492 119 445 129 q 572 109 538 109 q 661 123 620 109 q 584 242 608 178 q 558 381 560 307 q 549 554 555 480 q 533 680 543 629 l 528 704 q 582 714 556 707 q 630 730 608 721 q 670 749 652 739 q 699 766 687 758 q 672 422 672 588 q 674 370 673 393 q 677 329 675 347 q 684 295 680 310 q 697 266 689 279 q 742 214 717 237 q 805 172 768 191 q 893 137 842 153 q 1016 106 945 121 l 1017 106 q 1020 186 1019 132 q 1021 326 1021 241 l 1021 350 q 1014 527 1020 445 q 993 680 1008 610 l 987 704 q 1042 714 1016 707 q 1090 730 1068 721 q 1129 749 1112 739 q 1158 766 1147 758 q 1139 580 1145 664 q 1133 429 1133 496 q 1134 326 1133 373 q 1137 235 1135 278 q 1144 152 1139 192 q 1155 71 1148 112 l 1158 60 q 1076 41 1117 56 q 987 0 1035 26 q 1002 43 994 20 q 1017 92 1009 66 l 868 0 q 826 14 850 5 q 775 38 802 24 q 722 71 749 52 q 671 113 695 90 l 408 0 q 339 27 380 7 q 257 76 298 46 q 180 147 216 106 q 127 239 145 188 q 98 381 100 304 q 89 554 95 480 q 73 680 83 629 l 68 704 z "},"x":{"ha":649,"x_min":0,"x_max":650,"o":"m 3 706 q 31 711 14 707 q 71 722 49 715 q 119 741 94 730 q 170 766 144 751 l 175 749 q 225 636 189 705 q 326 475 262 568 q 458 672 412 602 q 510 755 504 742 l 515 766 q 568 737 543 747 q 610 725 593 728 q 360 425 526 644 l 382 393 q 650 62 582 114 q 484 0 554 41 l 478 16 q 295 316 453 76 l 288 328 q 99 9 113 87 l 94 0 q 0 43 56 27 q 256 374 58 87 q 3 706 112 589 z "},"y":{"ha":800,"x_min":68,"x_max":699,"o":"m 68 704 q 122 714 96 707 q 171 730 149 721 q 210 749 193 739 q 239 766 227 758 q 212 422 212 588 q 215 370 214 393 q 218 329 216 347 q 224 295 220 310 q 237 266 229 279 q 282 214 257 237 q 345 172 308 191 q 434 137 382 153 q 556 106 485 121 l 557 106 q 558 157 557 132 q 558 208 558 182 l 558 232 q 552 507 557 395 q 533 680 547 618 l 528 704 q 582 714 556 707 q 630 730 608 721 q 670 749 652 739 q 699 766 687 758 q 676 551 684 664 q 669 311 669 437 q 676 10 670 132 q 694 -175 683 -111 l 699 -198 q 616 -217 658 -203 q 528 -258 575 -232 q 547 -96 539 -182 q 557 92 554 -9 l 408 0 q 339 27 380 7 q 257 76 298 46 q 180 147 216 106 q 127 239 145 188 q 98 381 100 304 q 89 554 95 480 q 73 680 83 629 l 68 704 z "},"z":{"ha":656,"x_min":34,"x_max":622,"o":"m 34 0 l 41 9 q 163 184 106 93 q 270 374 220 275 q 397 669 397 631 q 359 673 376 673 q 325 674 343 674 q 288 674 306 674 q 58 595 186 664 q 83 661 69 618 q 103 766 98 703 l 121 761 q 357 736 202 736 q 614 766 477 736 q 255 109 469 578 l 251 94 q 284 93 273 93 q 305 93 294 93 q 323 92 315 93 q 622 171 468 92 q 596 105 610 148 q 576 0 582 63 l 559 5 q 443 25 515 19 q 269 31 370 31 q 34 0 174 31 z "},"{":{"ha":578,"x_min":4,"x_max":612,"o":"m 4 386 q 16 412 9 395 q 29 451 22 429 q 41 500 36 473 q 50 557 47 527 l 67 551 q 109 542 85 546 q 163 536 132 538 q 177 671 165 600 q 206 807 189 741 q 246 930 222 873 q 296 1024 270 987 l 433 1201 q 503 1131 479 1164 q 534 1079 526 1099 q 547 1040 547 1056 l 458 922 q 442 979 452 951 q 420 1029 433 1007 q 394 1064 408 1050 q 363 1078 379 1078 l 353 1077 q 314 1022 332 1062 q 281 919 296 982 q 257 772 267 857 q 243 587 247 688 l 241 527 l 243 457 q 256 372 245 423 q 287 252 267 321 q 370 61 326 132 q 521 -126 444 -59 l 522 -125 q 551 -32 551 -77 l 549 -10 l 612 -57 q 574 -100 593 -81 q 543 -134 555 -119 l 458 -244 q 423 -221 442 -237 q 377 -181 404 -206 q 324 -119 351 -156 q 269 -31 297 -82 q 224 70 243 16 q 193 179 205 123 q 173 293 180 235 q 163 408 165 351 q 81 399 120 404 q 4 386 41 393 z "},"|":{"ha":401,"x_min":115,"x_max":286,"o":"m 115 -157 q 145 450 145 47 l 144 524 q 119 1035 138 821 l 115 1058 q 286 1118 198 1067 q 256 553 256 926 l 256 529 q 281 -70 256 49 l 286 -94 q 203 -113 240 -100 q 115 -157 144 -135 z "},"}":{"ha":578,"x_min":-34,"x_max":574,"o":"m 574 571 q 562 545 569 562 q 549 506 555 528 q 537 456 543 484 q 529 400 532 429 l 511 406 q 416 421 475 416 q 401 286 412 356 q 373 150 389 216 q 332 27 356 83 q 283 -67 308 -30 l 145 -244 q 76 -175 99 -208 q 42 -121 52 -142 q 31 -83 31 -99 l 121 35 q 136 -22 127 5 q 158 -72 146 -50 q 185 -107 170 -94 q 216 -121 199 -121 l 226 -120 l 227 -119 q 264 -66 246 -106 q 297 37 282 -26 q 321 184 311 100 q 336 370 332 269 q 337 400 336 386 q 337 430 337 415 l 335 500 q 322 585 334 534 q 292 705 311 635 q 208 896 252 825 q 58 1083 135 1016 q 27 989 28 1034 q 29 967 27 978 l -34 1014 q 5 1058 -14 1039 q 35 1091 24 1076 l 121 1201 q 157 1178 136 1194 q 202 1138 178 1163 q 254 1076 227 1112 q 309 988 281 1039 q 354 887 336 940 q 386 777 373 833 q 405 663 398 721 q 416 549 412 606 q 498 558 458 553 q 574 571 537 564 z "},"~":{"ha":757,"x_min":59,"x_max":697,"o":"m 59 361 q 127 531 127 451 l 126 544 l 131 545 q 226 583 178 583 q 291 566 258 583 q 358 513 324 548 q 455 473 397 473 q 563 500 503 473 q 697 581 623 528 q 638 416 638 493 l 639 401 l 634 401 q 535 359 586 359 q 407 431 473 359 q 313 469 372 469 q 59 361 219 469 z "},"":{"ha":407,"x_min":0,"x_max":0,"o":""},"":{"ha":407,"x_min":115,"x_max":301,"o":"m 290 959 q 292 917 290 940 q 297 867 294 895 q 242 857 269 864 q 190 841 214 850 q 147 821 166 831 q 115 802 127 811 q 128 919 128 858 q 127 956 128 937 q 119 1006 126 974 q 301 1069 207 1015 q 293 1022 295 1050 q 290 959 291 995 m 289 826 q 264 629 272 721 q 256 456 256 536 l 256 420 q 286 75 269 135 l 289 60 q 118 0 208 52 q 138 191 132 99 q 145 369 145 282 q 138 570 145 475 q 121 749 130 665 l 118 764 q 173 773 146 766 q 221 790 199 781 q 260 808 243 799 q 289 826 277 818 z "},"":{"ha":692,"x_min":68,"x_max":624,"o":"m 275 -140 q 286 -56 281 -99 q 294 31 291 -14 l 282 37 q 231 67 259 47 q 177 114 203 87 q 130 173 151 141 q 97 236 108 204 q 68 378 68 305 q 85 483 73 438 q 114 560 96 527 q 155 621 131 593 q 209 673 178 649 l 289 725 q 284 767 287 748 q 279 802 282 786 l 275 825 q 358 844 317 829 q 446 885 399 859 q 436 813 441 850 q 429 736 432 777 l 450 726 q 484 706 467 717 q 520 681 502 696 q 556 647 538 667 q 595 599 575 627 l 486 525 q 454 568 471 549 q 420 601 437 587 q 416 418 416 514 l 416 395 q 417 251 416 317 q 421 130 418 184 q 525 103 467 116 q 536 163 536 121 q 528 232 536 191 l 624 194 q 564 119 606 153 q 533 94 533 94 l 429 29 q 435 -19 432 1 q 441 -53 437 -39 l 446 -77 q 392 -88 418 -81 q 343 -104 366 -95 q 304 -122 321 -113 q 275 -140 286 -132 m 294 651 q 213 667 258 659 l 212 667 q 195 626 205 653 q 176 566 185 600 q 160 496 167 532 q 154 429 154 460 q 161 367 154 401 q 186 298 169 332 q 232 232 204 263 q 302 177 260 200 q 304 316 304 244 q 301 502 304 416 q 294 651 298 587 z "},"":{"ha":718,"x_min":28,"x_max":684,"o":"m 97 -3 q 120 193 113 94 q 128 399 128 292 q 77 394 102 397 q 28 387 52 391 q 44 426 36 400 q 57 486 53 452 q 93 478 78 480 q 127 474 107 475 l 127 475 q 125 572 127 529 q 118 650 123 616 q 143 720 124 681 q 190 796 163 759 q 250 868 218 833 q 315 925 283 902 l 465 1022 q 493 1004 473 1016 q 539 975 513 993 q 592 931 564 956 q 644 874 620 907 l 509 808 q 481 852 496 831 q 444 887 465 872 q 392 912 422 903 q 323 924 363 922 q 254 748 283 890 q 240 496 240 677 l 240 469 l 272 467 q 504 486 407 467 q 476 387 479 425 l 465 389 q 387 397 444 393 q 241 404 330 402 q 248 259 243 332 q 260 109 253 186 l 265 98 q 297 93 283 93 q 684 171 530 93 q 657 104 671 147 q 638 0 644 61 l 621 5 q 353 28 547 28 q 97 -3 237 31 z "},"":{"ha":1060,"x_min":102,"x_max":958,"o":"m 541 205 q 461 229 506 212 q 374 273 416 247 q 303 195 332 231 q 259 130 274 159 q 197 179 237 153 q 102 222 157 204 q 272 332 137 235 l 288 348 q 241 429 257 384 q 227 517 226 474 q 238 583 231 555 q 257 633 246 612 q 280 671 268 655 q 304 701 292 688 l 290 715 q 120 826 155 813 q 173 846 149 835 q 218 870 198 858 q 253 895 237 882 q 277 918 268 907 q 397 770 309 858 l 515 832 q 575 815 555 822 q 617 798 595 808 q 663 774 640 787 q 781 920 749 861 q 806 897 790 909 q 842 872 821 884 q 886 848 862 859 q 938 828 910 836 q 878 794 920 821 q 768 718 836 766 l 754 704 q 788 658 774 682 q 811 610 802 634 q 825 562 821 585 q 829 515 829 538 q 812 424 829 466 q 769 347 795 382 l 788 328 q 958 218 923 231 q 905 197 930 209 q 861 174 880 186 q 826 149 841 161 q 801 126 810 136 q 681 275 770 186 l 541 205 m 366 713 q 348 686 359 704 q 328 645 338 668 q 312 594 319 621 q 304 541 304 568 q 316 490 304 517 q 351 439 328 464 q 407 393 374 414 q 485 359 441 372 q 574 337 522 347 q 696 315 627 326 q 712 343 703 323 q 731 387 722 363 q 746 438 740 412 q 753 486 753 464 q 748 522 753 502 q 730 563 744 543 q 690 607 716 584 q 622 651 665 631 q 516 687 579 671 q 366 713 454 703 z "},"":{"ha":865,"x_min":0,"x_max":865,"o":"m 0 964 q 57 975 30 967 q 107 991 85 982 q 146 1009 130 1000 q 171 1025 163 1019 q 243 825 201 928 q 340 622 286 723 q 486 618 406 618 q 540 619 513 618 q 595 623 567 620 q 694 842 661 759 q 727 958 727 925 l 727 966 q 865 1025 827 987 q 772 868 827 967 q 646 629 718 770 q 708 637 677 632 q 772 650 739 643 q 742 562 752 604 q 728 479 731 521 l 711 484 q 646 493 678 489 q 582 500 614 497 l 533 397 q 650 408 591 400 q 772 429 710 416 q 742 341 753 382 q 728 258 732 300 l 711 262 q 500 285 608 280 q 508 169 504 218 q 520 87 513 119 l 526 62 q 471 52 497 59 q 423 36 445 45 q 383 18 401 27 q 355 0 366 8 q 371 137 364 66 q 380 286 377 208 q 244 278 310 285 q 114 258 178 271 q 140 324 125 281 q 159 429 154 366 l 177 424 q 244 411 207 416 q 326 402 281 406 l 276 503 q 194 493 234 499 q 113 479 153 488 q 139 545 125 503 q 159 650 153 587 l 201 640 l 194 651 q 0 964 55 911 m 408 507 q 434 468 421 488 q 460 429 447 449 q 529 504 490 446 q 475 506 502 505 q 408 507 448 507 z "},"":{"ha":401,"x_min":115,"x_max":286,"o":"m 115 -157 q 143 95 143 -53 l 142 140 q 119 372 138 307 l 115 389 q 286 433 198 395 q 254 168 254 323 l 254 155 q 281 -94 254 12 l 286 -111 q 203 -125 241 -115 q 115 -157 149 -138 m 115 529 q 142 775 142 629 l 141 822 q 119 1057 136 992 l 115 1074 q 286 1118 198 1081 q 254 853 254 1009 l 254 840 q 281 592 254 698 l 286 574 q 203 561 242 570 q 115 529 149 547 z "},"":{"ha":775,"x_min":102,"x_max":673,"o":"m 189 648 q 141 702 157 672 q 125 762 125 731 q 128 788 125 774 q 138 819 130 802 q 159 854 145 836 q 194 894 172 873 q 234 930 227 926 l 378 1025 q 463 989 427 1005 q 527 956 499 972 q 577 921 555 939 q 621 877 600 902 l 503 805 q 435 865 476 836 q 238 925 389 898 q 213 884 224 909 q 201 831 201 859 q 219 782 202 801 q 264 749 236 762 q 332 729 293 736 q 416 716 371 722 q 659 601 621 694 q 673 538 673 567 q 669 503 673 520 q 655 466 665 485 q 629 425 646 446 q 586 376 612 403 q 635 319 621 349 q 649 257 649 290 q 647 237 649 250 q 637 207 644 224 q 617 171 630 191 q 581 131 604 152 q 541 94 547 98 l 397 0 q 313 36 349 19 q 248 69 277 52 q 197 104 220 85 q 153 148 174 123 l 273 219 q 340 159 295 191 q 536 100 386 127 q 550 117 543 106 q 562 139 556 127 q 570 166 567 152 q 574 195 574 180 q 556 243 572 224 q 510 275 539 262 q 443 295 481 288 q 358 309 404 303 q 115 424 153 330 q 102 485 102 456 q 105 519 102 503 q 118 555 109 536 q 144 596 127 574 q 189 648 161 618 m 566 389 q 585 473 585 433 q 504 566 585 543 q 451 576 471 573 q 405 582 430 578 q 210 635 278 597 q 190 551 190 592 q 271 459 190 482 l 288 454 q 316 449 294 452 q 376 441 338 446 q 486 420 439 433 q 566 389 533 408 z "},"":{"ha":694,"x_min":102,"x_max":593,"o":"m 582 941 q 584 900 582 922 q 589 850 585 877 q 533 839 561 846 q 482 823 506 832 q 438 804 458 814 q 407 785 419 793 q 420 901 420 840 q 419 938 420 920 q 415 975 418 956 l 411 989 q 593 1052 498 998 q 582 941 582 1013 m 277 939 q 278 898 277 920 q 283 848 280 875 q 228 837 256 844 q 177 821 201 830 q 133 802 153 812 q 102 783 114 791 q 115 899 115 838 q 114 936 115 918 q 110 972 113 954 l 106 987 q 288 1050 193 996 q 277 939 277 1011 z "},"":{"ha":855,"x_min":54,"x_max":801,"o":"m 428 903 q 513 891 469 903 q 599 858 557 880 q 677 803 640 836 q 741 727 713 770 q 785 629 769 683 q 801 511 801 575 q 791 425 801 470 q 760 337 781 380 q 709 255 740 294 q 636 186 678 216 q 543 139 595 157 q 428 122 491 122 q 288 150 354 122 q 163 237 221 178 q 54 511 54 351 q 163 787 54 674 q 428 903 273 903 m 428 848 q 305 824 361 848 q 201 749 250 800 q 129 640 153 700 q 104 515 104 581 q 125 397 104 456 q 187 289 146 338 q 288 208 228 239 q 428 176 349 176 q 550 200 492 176 q 656 275 607 224 q 750 511 750 374 q 728 633 750 572 q 665 741 706 693 q 564 819 623 789 q 428 848 504 848 m 357 281 q 233 370 279 313 q 183 507 187 427 q 191 564 182 536 q 216 617 200 591 q 253 666 231 644 q 299 704 274 688 l 419 765 q 457 754 433 762 q 508 732 480 746 q 563 700 535 719 q 624 645 591 680 l 519 587 q 487 626 500 613 q 452 648 473 639 q 398 665 431 658 q 312 680 365 673 q 298 652 306 669 q 285 615 291 635 q 275 575 279 595 q 271 540 271 555 q 278 497 271 519 q 300 453 285 475 q 340 413 315 432 q 399 381 364 394 q 461 362 425 372 q 548 343 498 353 l 552 361 q 550 384 553 372 q 541 429 548 397 l 646 396 q 589 334 625 357 l 568 319 l 438 254 q 357 281 410 259 z "},"":{"ha":767,"x_min":54,"x_max":713,"o":"m 54 328 q 80 393 66 351 q 100 498 94 435 l 117 493 q 427 466 222 466 q 713 498 564 466 q 683 410 693 452 q 669 328 672 369 l 652 332 q 361 355 511 355 l 338 355 q 54 328 192 355 m 472 502 l 476 524 q 480 547 478 536 q 484 570 482 558 l 373 511 q 304 536 334 525 q 251 558 275 547 q 207 584 227 570 q 168 615 186 597 q 132 705 132 652 q 157 765 132 737 q 224 812 182 792 q 318 843 265 832 q 425 854 370 854 q 435 844 433 854 q 428 835 435 837 q 287 777 334 808 q 239 711 239 746 q 253 679 239 694 q 291 651 268 664 q 341 628 313 638 q 397 610 370 617 q 449 597 425 602 q 486 592 473 593 q 496 755 496 672 l 496 767 q 488 817 496 796 q 466 852 480 838 q 432 877 451 867 q 390 896 412 888 q 327 915 364 905 q 238 934 289 924 l 235 905 q 241 865 235 892 l 245 847 l 140 881 l 146 892 q 167 920 155 907 q 197 943 180 932 l 220 959 l 349 1023 q 415 1004 380 1017 q 482 970 449 990 q 543 923 515 949 q 585 864 570 896 q 601 819 595 842 q 608 769 607 795 q 632 565 612 642 l 635 553 l 623 552 q 538 535 570 547 q 491 513 507 523 l 472 502 z "},"":{"ha":932,"x_min":68,"x_max":830,"o":"m 390 408 q 450 579 441 494 q 509 593 477 579 q 584 637 541 608 q 681 713 627 667 q 806 821 736 758 l 830 837 q 772 699 792 799 l 762 699 l 753 694 q 634 609 689 656 q 532 507 579 563 q 621 419 534 492 q 825 283 754 306 q 807 255 817 273 q 789 214 798 237 q 773 164 781 191 q 764 112 766 138 q 583 308 705 218 q 390 408 432 408 m 68 407 q 109 495 94 454 q 128 578 123 536 q 187 592 155 578 q 262 636 219 606 q 359 711 304 666 q 484 819 414 757 l 508 836 q 450 697 470 798 l 440 697 l 431 693 q 312 608 367 654 q 210 506 257 562 q 299 418 212 490 q 503 281 432 304 q 485 253 494 271 q 467 212 475 235 q 451 163 458 189 q 441 111 444 137 q 261 307 383 216 q 68 407 110 407 z "},"":{"ha":767,"x_min":54,"x_max":713,"o":"m 54 387 q 82 459 70 415 q 100 557 94 503 l 117 552 q 416 525 222 525 q 713 557 563 525 q 663 414 680 485 q 646 267 646 343 q 649 201 646 231 q 657 141 652 172 q 479 108 555 141 q 518 203 500 126 q 539 406 536 279 q 330 412 517 412 q 54 387 182 412 z "},"":{"ha":767,"x_min":54,"x_max":713,"o":"m 54 387 q 80 452 66 410 q 100 557 94 494 l 117 552 q 427 525 222 525 q 713 557 564 525 q 683 469 693 511 q 669 387 672 428 l 652 391 q 361 414 511 414 l 338 414 q 54 387 192 414 z "},"":{"ha":855,"x_min":54,"x_max":801,"o":"m 197 618 l 232 744 q 277 761 261 755 q 302 769 294 766 l 303 769 q 413 786 372 786 q 465 780 436 786 q 522 761 493 774 q 578 730 551 749 q 627 686 606 711 q 661 629 648 661 q 673 557 673 597 l 673 556 q 669 516 673 537 q 655 475 665 496 q 628 435 645 455 q 582 395 611 415 q 664 283 621 328 q 728 389 707 332 q 750 511 750 445 q 728 633 750 572 q 665 741 706 693 q 564 819 623 789 q 428 848 504 848 q 305 824 361 848 q 201 749 250 800 q 129 640 153 700 q 104 511 104 581 q 113 435 104 473 q 139 361 121 397 q 183 293 156 325 q 248 234 210 260 q 261 332 256 284 q 265 429 265 380 q 260 523 265 478 q 250 610 256 567 l 245 633 l 256 634 q 351 663 307 640 l 372 674 l 368 654 q 355 566 359 609 q 351 480 351 523 l 351 465 q 353 427 351 452 l 353 427 q 439 412 402 412 q 495 420 469 412 q 541 445 521 429 q 571 486 561 460 q 581 545 581 511 q 566 607 581 578 q 532 655 552 636 q 479 684 514 671 q 397 696 444 696 q 351 691 375 696 q 303 677 327 686 q 258 657 280 669 q 219 634 237 646 l 197 618 m 428 903 q 513 891 469 903 q 599 858 557 880 q 677 803 640 836 q 741 727 713 770 q 785 629 769 683 q 801 511 801 575 q 791 425 801 470 q 761 337 782 380 q 709 255 740 294 q 636 186 678 216 q 543 139 595 157 q 428 122 491 122 q 288 150 354 122 q 163 237 221 178 q 54 511 54 351 q 163 787 54 673 q 428 903 275 903 m 626 248 q 600 239 613 244 q 574 227 587 233 l 560 220 l 557 231 q 502 366 520 332 q 479 363 487 363 q 454 362 471 363 q 404 366 428 362 q 355 374 379 369 q 360 310 358 334 q 365 279 362 286 l 373 258 l 359 257 q 300 243 321 252 q 261 224 279 235 q 341 187 299 199 q 428 176 383 176 q 532 193 483 176 q 626 248 581 211 z "},"":{"ha":655,"x_min":102,"x_max":553,"o":"m 553 1027 q 522 939 535 993 q 508 856 512 900 l 496 861 q 331 889 454 883 l 312 890 q 102 855 203 890 q 146 1026 139 943 l 153 1023 q 337 996 214 996 l 350 996 q 553 1027 490 996 z "},"":{"ha":553,"x_min":81,"x_max":472,"o":"m 202 930 q 189 906 193 915 q 180 884 184 897 q 172 856 176 872 q 166 814 169 840 q 211 735 166 771 q 353 671 256 700 l 359 680 q 384 729 374 701 q 392 784 393 758 q 387 815 391 800 q 374 844 384 831 q 347 870 364 857 q 300 895 329 884 q 202 930 259 911 m 269 1025 q 305 1013 279 1023 q 360 985 330 1003 q 415 941 389 967 q 453 882 441 916 q 472 800 472 838 l 472 798 q 459 727 472 758 q 428 674 446 696 q 392 640 410 652 q 365 621 374 627 l 285 575 q 243 589 269 578 q 190 617 218 600 q 138 658 163 634 q 100 711 113 682 q 81 798 81 754 q 85 839 81 817 q 100 886 90 862 q 133 933 111 909 q 190 979 154 958 l 269 1025 z "},"":{"ha":768,"x_min":55,"x_max":713,"o":"m 55 114 q 87 202 71 143 q 100 285 96 237 l 118 279 q 428 252 224 252 q 713 285 565 252 q 669 114 676 197 l 652 118 q 362 142 513 142 l 338 142 q 55 114 191 142 m 55 549 q 87 637 71 578 q 100 720 96 672 l 118 715 q 323 689 197 694 q 303 903 317 850 l 299 920 q 470 964 380 926 q 437 688 440 829 q 713 720 579 691 q 669 549 676 631 l 652 553 q 439 574 600 568 q 465 369 444 448 l 470 351 q 387 337 426 347 q 299 305 329 321 q 326 576 324 432 q 55 549 182 575 z "},"":{"ha":617,"x_min":102,"x_max":515,"o":"m 112 856 q 124 893 113 873 q 151 928 136 912 q 181 957 166 945 q 201 972 195 969 l 298 1025 q 368 994 343 1006 q 403 976 393 981 q 450 944 431 960 q 481 913 469 929 q 499 880 494 897 q 505 842 505 862 q 495 787 505 809 q 461 747 484 766 q 399 707 437 729 q 304 654 360 684 q 255 627 279 640 q 210 601 231 614 l 173 577 q 250 566 212 570 q 325 562 288 562 l 332 562 q 496 578 417 562 l 515 583 l 506 562 q 491 520 497 541 q 484 478 485 499 l 483 467 l 463 471 q 321 484 423 477 q 310 484 312 484 q 258 480 286 484 q 193 469 229 476 q 163 489 178 475 q 135 518 149 503 q 111 549 121 534 q 102 574 102 564 q 142 631 102 606 l 260 700 q 329 745 300 726 q 377 779 358 764 q 406 808 397 794 q 416 836 416 821 q 404 866 416 853 q 363 894 393 878 q 287 929 323 915 q 214 951 250 944 q 191 897 189 926 q 199 879 191 886 q 222 864 207 871 l 240 856 l 144 793 l 138 800 q 112 856 112 827 z "},"":{"ha":653,"x_min":102,"x_max":553,"o":"m 343 486 q 216 529 310 486 q 184 548 203 534 q 136 584 164 562 q 111 607 121 595 l 102 618 l 202 660 q 232 633 213 646 q 281 606 251 620 q 352 579 311 592 q 444 558 393 566 q 479 627 477 581 q 414 689 479 665 l 246 750 l 367 802 q 418 836 404 822 q 433 860 433 849 q 417 887 433 875 q 368 916 401 899 q 252 954 307 945 q 233 916 233 935 q 239 897 233 905 q 263 877 245 888 l 284 864 l 172 836 l 169 843 q 159 879 159 865 q 168 910 159 895 q 189 937 177 925 q 215 959 201 948 q 238 975 229 969 l 330 1024 q 365 1015 346 1021 q 405 998 384 1008 q 447 974 427 987 q 484 944 468 960 q 512 867 512 912 q 491 818 512 842 q 427 783 470 793 q 492 754 467 768 q 530 728 516 741 q 548 701 543 715 q 553 669 553 687 q 551 646 553 657 q 545 625 549 635 q 531 602 540 614 q 509 578 523 591 q 454 537 473 544 l 343 486 z "},"":{"ha":522,"x_min":102,"x_max":420,"o":"m 102 828 q 153 857 128 839 q 214 910 189 883 q 235 939 220 917 q 277 1025 248 956 q 420 962 329 987 l 375 932 q 309 880 341 910 q 291 857 301 873 q 250 777 262 813 q 247 765 247 766 l 186 799 q 102 828 151 820 z "},"":{"ha":800,"x_min":68,"x_max":699,"o":"m 71 -180 q 101 -18 101 -117 q 100 233 101 134 q 98 381 100 332 q 73 680 92 581 l 68 704 q 122 714 96 707 q 171 730 149 721 q 210 749 193 739 q 239 766 227 758 q 212 422 212 588 q 215 370 214 393 q 218 329 216 347 q 224 295 220 310 q 237 266 229 279 q 282 214 257 237 q 345 172 308 191 q 434 137 382 153 q 556 106 485 121 l 557 106 q 561 186 559 132 q 562 326 562 241 l 562 350 q 554 527 560 445 q 533 680 549 610 l 528 704 q 582 714 556 707 q 630 730 608 721 q 670 749 652 739 q 699 766 687 758 q 679 580 686 664 q 673 429 673 496 q 674 326 673 373 q 677 235 675 278 q 684 152 680 192 q 695 71 688 112 l 699 60 q 616 41 657 56 q 532 3 575 26 l 528 0 q 542 43 534 20 q 557 92 549 66 l 408 0 q 369 13 392 4 q 321 35 347 22 q 269 66 296 48 q 218 107 242 84 q 208 20 208 61 q 216 -63 208 -26 q 236 -123 224 -100 q 241 -135 241 -136 q 144 -153 189 -140 q 71 -180 99 -165 z "},"":{"ha":795,"x_min":68,"x_max":694,"o":"m 524 0 q 554 372 551 147 q 556 487 555 436 q 556 576 557 537 q 555 641 555 613 q 552 689 555 668 q 543 727 549 710 q 524 759 536 743 q 476 814 503 791 q 412 856 449 837 q 327 890 376 874 q 212 925 277 907 q 163 801 175 861 q 151 687 151 740 q 163 603 151 644 q 196 528 174 563 q 250 466 218 494 q 321 418 281 437 q 522 353 395 382 l 378 259 q 346 270 368 262 q 298 292 325 278 q 241 325 271 305 q 184 371 212 345 q 133 430 156 397 q 96 503 109 463 q 68 647 68 583 q 77 725 68 685 q 100 801 85 765 q 134 865 115 836 q 175 908 153 893 l 199 928 l 353 1025 q 403 1007 376 1019 q 458 980 431 996 q 509 947 485 965 q 551 911 534 930 q 605 849 583 877 q 641 795 627 821 q 660 740 654 768 q 665 675 665 711 q 662 586 665 644 q 658 435 658 528 q 665 247 658 332 q 689 87 672 161 l 694 62 q 629 50 657 58 l 629 734 l 589 734 l 589 35 q 524 0 547 17 z "},"":{"ha":389,"x_min":102,"x_max":288,"o":"m 277 494 q 278 453 277 475 q 283 403 280 430 q 228 392 256 399 q 177 376 201 385 q 133 357 153 367 q 102 338 114 347 q 115 454 115 393 q 114 491 115 473 q 106 542 113 509 q 288 605 193 551 q 277 494 277 566 z "},"":{"ha":448,"x_min":102,"x_max":347,"o":"m 170 45 q 347 -111 347 12 q 282 -233 347 -195 l 273 -237 q 102 -290 191 -241 q 226 -94 226 -178 q 170 45 224 -31 z "},"":{"ha":450,"x_min":34,"x_max":349,"o":"m 210 510 q 228 634 223 569 q 233 777 233 699 q 223 930 231 866 q 159 884 185 908 q 120 830 132 859 q 34 857 92 848 q 138 913 68 867 q 210 996 176 938 q 349 1027 271 1000 q 330 915 336 976 q 324 779 324 853 q 330 639 324 694 q 349 542 335 583 q 313 537 333 541 q 274 530 294 534 q 238 520 255 526 q 210 510 220 515 z "},"":{"ha":767,"x_min":54,"x_max":713,"o":"m 54 328 q 80 393 66 351 q 100 498 94 435 l 117 493 q 427 466 222 466 q 713 498 564 466 q 683 410 693 452 q 669 328 672 369 l 652 332 q 361 355 511 355 l 338 355 q 54 328 192 355 m 395 515 q 363 524 381 517 q 322 539 345 530 q 275 561 300 548 q 228 591 250 574 q 187 629 205 609 q 157 673 168 650 q 139 722 146 699 q 133 770 132 745 q 141 823 133 795 q 165 877 149 851 q 202 925 180 903 q 252 964 224 948 l 372 1025 q 419 1012 393 1021 q 474 988 446 1003 q 533 954 503 974 q 584 906 563 933 q 620 845 606 879 q 634 770 634 811 q 624 703 634 732 q 598 651 613 673 q 568 615 584 629 q 543 594 553 601 l 526 581 l 525 579 l 395 515 m 507 604 q 518 630 512 613 q 531 667 525 647 q 541 708 536 688 q 545 747 545 729 l 545 748 q 541 782 545 764 q 527 818 537 800 q 497 855 516 837 q 447 889 477 873 q 371 919 416 905 q 265 941 326 932 q 239 883 245 902 q 229 844 233 865 q 224 802 224 823 q 235 753 224 777 q 263 708 245 729 q 304 669 281 686 q 354 642 328 652 q 415 624 377 633 q 507 604 453 614 z "},"":{"ha":932,"x_min":102,"x_max":864,"o":"m 542 539 q 481 368 491 450 q 313 284 424 368 q 126 127 239 228 l 102 111 q 160 249 140 149 l 170 249 l 179 253 q 400 440 306 330 q 311 528 397 456 q 107 665 178 641 q 149 753 129 692 q 168 836 163 792 q 349 640 227 730 q 542 539 500 539 m 864 541 q 804 370 813 452 q 635 286 746 370 q 448 128 562 229 l 424 112 q 482 250 462 150 l 492 250 l 501 254 q 722 441 628 331 q 633 530 719 457 q 429 666 500 642 q 471 754 451 694 q 490 837 485 793 q 671 641 549 732 q 864 541 822 541 z "},"":{"ha":900,"x_min":0,"x_max":806,"o":"m 659 0 q 686 122 685 50 q 603 126 644 126 l 582 126 q 499 123 537 126 q 429 118 462 120 l 407 155 q 535 308 473 223 q 659 494 597 392 q 806 524 730 499 q 779 291 779 425 l 779 273 q 787 125 783 182 q 801 45 792 68 l 806 32 q 718 19 755 28 q 659 0 681 9 m 667 432 q 577 295 616 361 q 513 167 539 229 q 603 161 530 161 l 619 161 q 686 167 640 161 l 686 187 l 683 286 q 678 349 682 312 q 667 432 674 385 m 0 -86 q 196 249 106 89 q 358 558 285 409 q 488 849 431 708 q 587 1128 545 991 q 616 1111 599 1120 q 656 1092 634 1101 q 705 1076 679 1083 q 758 1066 730 1069 q 461 503 608 814 q 300 161 372 322 q 171 -146 228 0 q 82 -105 123 -120 q 0 -86 41 -91 m 178 508 q 201 742 201 612 q 199 845 201 799 q 191 928 196 891 q 127 882 153 906 q 88 828 100 857 q 2 854 59 846 q 106 911 36 865 q 178 994 144 936 q 317 1025 245 1000 q 298 912 304 974 q 292 777 292 851 q 313 552 292 612 l 317 540 q 235 527 271 536 q 178 508 199 517 z "},"":{"ha":1027,"x_min":2,"x_max":926,"o":"m 522 389 q 534 427 522 408 q 561 462 546 446 q 591 490 576 478 q 612 506 606 503 l 708 559 q 779 527 754 538 q 813 509 804 515 q 862 476 843 492 q 893 445 882 460 q 910 412 905 429 q 916 375 915 395 q 908 329 916 348 q 886 295 901 311 q 848 264 871 279 q 792 231 825 249 q 716 189 759 212 q 621 134 673 165 l 583 111 q 742 96 661 96 q 827 100 787 96 q 906 112 867 104 l 926 116 l 916 95 q 901 53 907 74 q 894 12 895 33 l 893 0 l 873 5 q 731 17 833 11 q 720 18 723 18 q 670 14 699 17 q 604 2 642 10 q 572 23 587 9 q 544 52 557 37 q 521 83 530 67 q 512 107 512 98 q 553 164 512 140 l 670 234 q 735 276 707 257 q 785 310 764 294 q 815 340 805 326 q 826 370 826 355 q 815 398 827 389 q 787 419 804 408 q 747 441 769 431 q 703 460 725 452 q 660 475 680 469 q 625 485 639 481 q 601 430 601 463 q 633 397 603 410 l 650 390 l 554 328 l 549 334 q 522 389 522 361 m 32 -86 q 228 249 138 89 q 390 558 317 409 q 520 849 463 708 q 619 1128 577 991 q 648 1111 631 1120 q 688 1092 666 1101 q 736 1076 711 1083 q 790 1066 762 1069 q 493 503 640 814 q 332 161 404 322 q 203 -146 260 0 l 198 -144 q 114 -105 155 -120 q 32 -86 73 -91 m 178 510 q 201 744 201 614 q 198 857 201 810 q 191 930 195 903 q 127 884 153 908 q 88 830 100 859 q 2 857 59 848 q 46 876 20 862 q 106 913 72 890 q 178 996 144 938 q 317 1027 245 1002 q 292 791 292 931 l 292 779 q 313 554 292 615 l 317 542 q 233 528 270 538 q 178 510 196 519 z "},"":{"ha":1083,"x_min":47,"x_max":981,"o":"m 834 0 q 861 122 860 50 q 778 126 819 126 l 757 126 q 674 123 712 126 q 604 118 637 120 l 582 155 q 710 308 648 223 q 834 494 772 392 q 981 524 905 499 q 954 291 954 425 l 954 273 q 962 125 958 182 q 981 32 967 68 q 893 19 930 28 q 834 0 856 9 m 842 432 q 752 295 791 361 q 688 167 714 229 q 778 161 705 161 l 794 161 q 861 167 814 161 l 861 187 l 858 286 q 853 349 857 312 q 842 432 849 385 m 47 620 l 147 662 q 175 636 156 649 q 223 610 193 624 q 295 582 254 595 q 388 560 336 568 q 424 629 424 584 q 408 664 424 649 q 359 691 391 680 l 191 752 l 312 804 q 362 837 347 823 q 378 862 378 850 q 362 889 378 877 q 313 918 347 901 q 196 956 251 948 q 178 918 178 937 q 183 899 178 907 q 208 879 189 890 l 229 866 l 117 838 q 104 881 104 865 q 112 909 104 895 q 132 936 120 923 q 157 959 143 948 q 183 977 171 969 l 275 1026 q 306 1018 289 1023 q 344 1002 323 1012 q 387 979 365 992 q 428 947 409 965 q 457 872 457 908 q 436 820 457 844 q 372 785 414 795 q 438 755 414 769 q 476 728 463 742 q 493 697 489 713 q 496 659 496 682 q 484 616 494 635 q 454 580 474 597 q 423 553 437 563 q 399 539 409 544 l 288 488 q 161 531 241 494 q 113 559 141 541 q 56 609 85 578 l 47 620 m 199 -87 q 395 248 306 88 q 557 558 484 408 q 687 849 630 707 q 787 1128 745 990 q 816 1110 798 1120 q 856 1091 833 1100 q 904 1075 878 1082 q 958 1065 930 1068 q 661 502 807 813 q 499 160 572 321 q 370 -147 427 -1 q 282 -106 323 -121 q 199 -87 241 -92 z "},"":{"ha":841,"x_min":82,"x_max":760,"o":"m 532 959 q 533 917 532 940 q 538 867 535 895 q 483 857 511 864 q 432 841 456 850 q 388 821 408 831 q 357 802 369 811 q 370 919 370 858 q 369 956 370 937 q 361 1006 368 974 q 543 1069 448 1015 q 532 959 532 1031 m 536 817 q 552 739 552 775 q 487 612 552 666 l 395 548 q 284 465 334 503 q 208 341 208 406 q 212 308 208 323 q 229 277 217 292 q 262 246 241 262 q 313 214 282 231 q 599 98 467 127 q 655 212 655 151 q 639 266 655 243 q 585 306 623 288 l 718 397 q 750 348 740 373 q 760 298 760 323 q 750 255 760 277 q 725 212 741 233 q 692 171 710 191 q 656 136 673 151 q 626 110 640 121 q 607 97 612 100 l 440 0 q 260 90 290 71 q 173 150 208 122 q 119 207 139 178 q 91 264 99 235 q 82 330 83 294 l 82 332 q 96 411 82 376 q 139 477 110 446 q 213 538 168 508 q 319 602 258 568 l 382 637 q 408 660 400 649 q 415 682 415 671 q 393 713 415 699 l 536 817 z "},"":{"ha":865,"x_min":0,"x_max":865,"o":"m 865 62 q 812 52 838 59 q 764 37 786 45 q 724 18 741 28 q 694 0 706 9 q 659 123 684 41 q 596 330 635 205 q 523 335 559 333 q 449 337 487 337 q 429 337 438 337 q 414 336 420 336 q 222 324 296 336 l 216 323 q 158 153 178 216 q 138 68 138 90 l 138 60 q 0 0 43 41 q 99 214 47 94 q 210 483 151 334 q 342 939 317 754 l 345 966 q 516 1025 428 975 q 654 511 537 823 q 865 62 779 173 m 575 397 l 546 490 q 468 721 500 637 q 418 825 435 804 q 273 479 382 772 l 243 399 q 316 393 277 395 q 397 391 354 391 l 411 391 q 575 397 512 391 m 565 1090 q 480 1061 516 1082 l 420 1027 l 416 1038 q 376 1119 405 1075 q 358 1141 366 1135 q 292 1194 326 1172 l 246 1223 q 390 1287 338 1249 l 393 1280 q 431 1200 419 1217 q 453 1172 447 1179 q 513 1119 478 1145 q 565 1090 538 1101 z "},"":{"ha":865,"x_min":0,"x_max":865,"o":"m 865 62 q 812 52 838 59 q 764 37 786 45 q 724 18 741 28 q 694 0 706 9 q 659 123 684 41 q 596 330 635 205 q 523 335 559 333 q 449 337 487 337 q 429 337 438 337 q 414 336 420 336 q 222 324 296 336 l 216 323 q 158 153 178 216 q 138 68 138 90 l 138 60 q 0 0 43 41 q 99 214 47 94 q 210 483 151 334 q 342 939 317 754 l 345 966 q 516 1025 428 975 q 654 511 537 823 q 865 62 779 173 m 575 397 l 546 490 q 468 721 500 637 q 418 825 435 804 q 273 479 382 772 l 243 399 q 316 393 277 395 q 397 391 354 391 l 411 391 q 575 397 512 391 m 340 1090 q 392 1119 367 1101 q 452 1172 427 1145 q 474 1200 458 1179 q 515 1287 486 1217 q 659 1223 568 1249 l 614 1194 q 547 1141 580 1172 q 530 1119 540 1135 q 489 1038 500 1075 q 486 1027 486 1027 l 425 1061 q 340 1090 389 1082 z "},"":{"ha":865,"x_min":0,"x_max":865,"o":"m 865 62 q 812 52 838 59 q 764 37 786 45 q 724 18 741 28 q 694 0 706 9 q 659 123 684 41 q 596 330 635 205 q 523 335 559 333 q 449 337 487 337 q 429 337 438 337 q 414 336 420 336 q 222 324 296 336 l 216 323 q 158 153 178 216 q 138 68 138 90 l 138 60 q 0 0 43 41 q 99 214 47 94 q 210 483 151 334 q 342 939 317 754 l 345 966 q 516 1025 428 975 q 654 511 537 823 q 865 62 779 173 m 575 397 l 546 490 q 468 721 500 637 q 418 825 435 804 q 273 479 382 772 l 243 399 q 316 393 277 395 q 397 391 354 391 l 411 391 q 575 397 512 391 m 334 1135 q 383 1211 367 1168 l 387 1222 q 471 1251 435 1230 l 532 1285 l 535 1274 q 576 1193 547 1238 q 593 1171 586 1177 q 660 1118 626 1140 l 705 1088 q 562 1025 614 1063 q 520 1112 532 1095 q 498 1140 504 1134 q 464 1173 483 1157 q 416 1145 442 1163 q 357 1093 395 1131 q 334 1064 345 1080 q 313 1025 320 1043 q 233 1072 286 1063 q 334 1135 307 1108 z "},"":{"ha":865,"x_min":0,"x_max":865,"o":"m 865 62 q 812 52 838 59 q 764 37 786 45 q 724 18 741 28 q 694 0 706 9 q 659 123 684 41 q 596 330 635 205 q 523 335 559 333 q 449 337 487 337 q 429 337 438 337 q 414 336 420 336 q 222 324 296 336 l 216 323 q 158 153 178 216 q 138 68 138 90 l 138 60 q 0 0 43 41 q 99 214 47 94 q 210 483 151 334 q 342 939 317 754 l 345 966 q 516 1025 428 975 q 654 511 537 823 q 865 62 779 173 m 575 397 l 546 490 q 468 721 500 637 q 418 825 435 804 q 273 479 382 772 l 243 399 q 316 393 277 395 q 397 391 354 391 l 411 391 q 575 397 512 391 m 199 1034 q 218 1063 210 1051 q 264 1209 264 1134 l 264 1222 l 266 1229 q 319 1253 285 1253 q 435 1181 366 1253 q 532 1141 473 1141 q 711 1241 573 1143 l 687 1201 q 652 1068 652 1135 l 652 1053 l 650 1047 q 600 1026 627 1026 q 484 1099 551 1026 q 396 1137 448 1137 l 389 1137 q 199 1034 343 1137 z "},"":{"ha":865,"x_min":0,"x_max":865,"o":"m 865 62 q 812 52 838 59 q 764 37 786 45 q 724 18 741 28 q 694 0 706 9 q 659 123 684 41 q 596 330 635 205 q 523 335 559 333 q 449 337 487 337 q 429 337 438 337 q 414 336 420 336 q 222 324 296 336 l 216 323 q 158 153 178 216 q 138 68 138 90 l 138 60 q 0 0 43 41 q 99 214 47 94 q 210 483 151 334 q 342 939 317 754 l 345 966 q 516 1025 428 975 q 654 511 537 823 q 865 62 779 173 m 575 397 l 546 490 q 468 721 500 637 q 418 825 435 804 q 273 479 382 772 l 243 399 q 316 393 277 395 q 397 391 354 391 l 411 391 q 575 397 512 391 m 665 1184 q 667 1142 665 1165 q 672 1093 669 1120 q 617 1082 644 1089 q 565 1066 589 1075 q 522 1046 541 1057 q 490 1027 503 1036 q 503 1144 503 1083 q 502 1181 503 1162 q 498 1217 501 1199 l 494 1232 q 676 1295 582 1240 q 665 1184 665 1256 m 360 1182 q 362 1140 360 1163 q 367 1090 363 1118 q 312 1080 339 1087 q 260 1064 284 1073 q 217 1044 236 1055 q 185 1025 197 1034 q 198 1142 198 1081 q 197 1179 198 1160 q 193 1215 196 1197 l 189 1230 q 371 1293 277 1238 q 360 1182 360 1254 z "},"":{"ha":865,"x_min":0,"x_max":865,"o":"m 865 62 q 812 52 838 59 q 764 37 786 45 q 724 18 741 28 q 694 0 706 9 q 659 123 684 41 q 596 330 635 205 q 523 335 559 333 q 449 337 487 337 q 429 337 438 337 q 414 336 420 336 q 222 324 296 336 l 216 323 q 158 153 178 216 q 138 68 138 90 l 138 60 q 0 0 43 41 q 99 214 47 94 q 210 483 151 334 q 342 939 317 754 l 345 966 q 516 1025 428 975 q 654 511 537 823 q 865 62 779 173 m 575 397 l 546 490 q 468 721 500 637 q 418 825 435 804 q 273 479 382 772 l 243 399 q 316 393 277 395 q 397 391 354 391 l 411 391 q 575 397 512 391 m 507 1157 q 474 1209 507 1188 q 368 1242 441 1230 q 352 1218 355 1225 q 345 1203 348 1211 q 342 1186 342 1194 q 350 1164 342 1174 q 374 1146 357 1155 q 418 1128 391 1137 q 481 1112 444 1120 l 487 1117 q 507 1157 507 1134 m 418 1323 q 459 1310 433 1321 q 511 1282 486 1299 q 554 1235 537 1264 q 572 1174 572 1206 l 572 1173 q 562 1127 572 1147 q 540 1093 553 1107 q 513 1070 527 1079 q 491 1056 499 1061 l 431 1025 q 399 1035 418 1027 q 358 1054 379 1042 q 319 1081 338 1065 q 292 1116 300 1097 q 277 1173 277 1144 q 280 1202 277 1186 q 292 1233 283 1217 q 317 1264 300 1249 q 359 1293 333 1280 l 418 1323 z "},"":{"ha":1185,"x_min":0,"x_max":1152,"o":"m 821 28 q 570 0 705 28 q 592 213 585 100 q 599 454 599 326 l 599 488 q 566 490 582 490 q 537 491 551 491 q 492 490 512 491 q 451 489 471 490 q 408 485 431 488 q 349 476 385 482 q 138 68 138 148 l 138 60 q 0 0 39 39 q 79 133 7 13 q 286 480 151 253 l 564 949 l 570 960 l 570 964 q 652 984 611 969 q 736 1022 693 998 l 741 1025 q 823 999 782 1008 q 917 990 865 990 q 1111 1025 1006 990 q 1057 854 1062 935 q 846 922 931 861 q 779 976 806 954 q 739 1011 752 998 q 710 563 710 825 l 710 551 q 1030 627 897 560 q 1003 557 1017 602 q 985 456 990 513 l 966 462 q 738 485 889 485 l 711 485 q 733 98 713 207 q 765 93 753 93 q 1152 171 998 93 q 1126 107 1139 147 q 1106 0 1113 66 l 1088 5 q 821 28 1015 28 m 597 547 q 593 702 596 633 q 587 823 591 770 q 400 571 519 776 l 389 552 q 463 545 424 547 l 477 545 q 542 545 512 545 q 597 547 572 546 z "},"":{"ha":886,"x_min":81,"x_max":805,"o":"m 805 328 q 799 311 802 316 q 711 175 758 221 q 654 119 675 139 q 627 95 633 99 l 505 18 q 598 -113 598 -24 q 534 -235 598 -197 l 524 -239 q 358 -290 443 -243 l 353 -292 q 477 -96 477 -180 q 443 11 477 -47 q 352 54 400 26 q 258 122 303 83 q 175 212 212 162 q 118 319 138 261 q 91 417 100 370 q 81 512 81 465 q 97 631 81 570 q 141 748 113 692 q 208 852 170 804 q 292 930 247 900 l 443 1027 q 489 1011 462 1022 q 549 982 516 1000 q 620 937 583 964 q 694 874 656 911 q 733 829 715 852 l 598 763 q 536 829 568 802 q 468 876 504 857 q 391 908 432 895 q 300 929 350 920 l 300 928 q 211 749 241 895 q 191 573 191 651 q 199 481 191 530 q 229 385 208 433 q 281 292 249 337 q 361 208 314 246 q 473 140 409 169 q 618 96 536 111 q 682 271 682 152 q 668 374 682 326 l 805 328 z "},"":{"ha":718,"x_min":102,"x_max":684,"o":"m 353 28 q 102 0 237 28 q 124 213 117 100 q 131 454 131 326 q 124 760 131 637 q 106 941 117 882 l 102 964 q 184 984 143 969 q 273 1025 225 998 q 356 1000 315 1010 q 449 990 397 990 q 644 1025 538 990 q 589 854 594 935 q 378 922 463 861 q 311 976 338 954 q 271 1011 284 998 q 242 563 242 825 l 242 551 q 562 627 429 560 q 535 557 549 602 q 517 456 522 513 l 498 462 q 270 485 421 485 l 243 485 q 265 98 245 207 q 297 93 286 93 q 684 171 530 93 q 658 107 671 147 q 638 0 645 66 l 621 5 q 353 28 547 28 m 564 1090 q 479 1061 515 1082 l 419 1027 l 416 1038 q 375 1119 404 1075 q 357 1141 365 1135 q 291 1194 325 1172 l 245 1223 q 389 1287 337 1249 l 393 1280 q 431 1200 418 1217 q 452 1172 446 1179 q 513 1119 477 1145 q 564 1090 538 1101 z "},"":{"ha":718,"x_min":102,"x_max":684,"o":"m 353 28 q 102 0 237 28 q 124 213 117 100 q 131 454 131 326 q 124 760 131 637 q 106 941 117 882 l 102 964 q 184 984 143 969 q 273 1025 225 998 q 356 1000 315 1010 q 449 990 397 990 q 644 1025 538 990 q 589 854 594 935 q 378 922 463 861 q 311 976 338 954 q 271 1011 284 998 q 242 563 242 825 l 242 551 q 562 627 429 560 q 535 557 549 602 q 517 456 522 513 l 498 462 q 270 485 421 485 l 243 485 q 265 98 245 207 q 297 93 286 93 q 684 171 530 93 q 658 107 671 147 q 638 0 645 66 l 621 5 q 353 28 547 28 m 303 1090 q 355 1119 330 1101 q 415 1172 390 1145 q 437 1200 421 1179 q 478 1287 449 1217 q 622 1223 530 1249 l 576 1194 q 510 1141 543 1172 q 492 1119 503 1135 q 452 1038 463 1075 q 448 1027 448 1027 l 388 1061 q 303 1090 352 1082 z "},"":{"ha":718,"x_min":76,"x_max":684,"o":"m 353 28 q 102 0 237 28 q 124 213 117 100 q 131 454 131 326 q 124 760 131 637 q 106 941 117 882 l 102 964 q 184 984 143 969 q 273 1025 225 998 q 356 1000 315 1010 q 449 990 397 990 q 644 1025 538 990 q 589 854 594 935 q 378 922 463 861 q 311 976 338 954 q 271 1011 284 998 q 242 563 242 825 l 242 551 q 562 627 429 560 q 535 557 549 602 q 517 456 522 513 l 498 462 q 270 485 421 485 l 243 485 q 265 98 245 207 q 297 93 286 93 q 684 171 530 93 q 658 107 671 147 q 638 0 645 66 l 621 5 q 353 28 547 28 m 178 1135 q 227 1211 210 1168 l 230 1222 q 315 1251 278 1230 l 375 1285 l 378 1274 q 419 1193 390 1238 q 437 1171 429 1177 q 503 1118 469 1140 l 549 1088 q 405 1025 457 1063 q 363 1112 376 1095 q 342 1140 347 1134 q 307 1173 326 1157 q 260 1145 286 1163 q 201 1093 238 1131 q 178 1064 188 1080 q 156 1025 163 1043 q 76 1072 129 1063 q 178 1135 151 1108 z "},"":{"ha":718,"x_min":102,"x_max":684,"o":"m 353 28 q 102 0 237 28 q 124 213 117 100 q 131 454 131 326 q 124 760 131 637 q 106 941 117 882 l 102 964 q 184 984 143 969 q 273 1025 225 998 q 356 1000 315 1010 q 449 990 397 990 q 644 1025 538 990 q 589 854 594 935 q 378 922 463 861 q 311 976 338 954 q 271 1011 284 998 q 242 563 242 825 l 242 551 q 562 627 429 560 q 535 557 549 602 q 517 456 522 513 l 498 462 q 270 485 421 485 l 243 485 q 265 98 245 207 q 297 93 286 93 q 684 171 530 93 q 658 107 671 147 q 638 0 645 66 l 621 5 q 353 28 547 28 m 610 1184 q 612 1142 610 1165 q 617 1093 614 1120 q 562 1082 589 1089 q 510 1066 534 1075 q 467 1046 486 1057 q 435 1027 448 1036 q 448 1144 448 1083 q 447 1181 448 1162 q 444 1217 446 1199 l 439 1232 q 621 1295 527 1240 q 610 1184 610 1256 m 305 1182 q 307 1140 305 1163 q 312 1090 309 1118 q 257 1080 284 1087 q 205 1064 229 1073 q 162 1044 181 1055 q 130 1025 142 1034 q 143 1142 143 1081 q 142 1179 143 1160 q 138 1215 141 1197 l 134 1230 q 316 1293 222 1238 q 305 1182 305 1254 z "},"":{"ha":374,"x_min":7,"x_max":326,"o":"m 102 0 q 131 456 131 203 q 130 529 131 493 q 106 941 125 826 l 102 964 q 268 1022 184 974 l 273 1025 q 242 558 242 832 q 242 534 242 547 q 267 87 242 209 l 273 62 q 190 43 227 57 q 102 0 131 22 m 326 1090 q 241 1061 277 1082 l 181 1027 l 178 1038 q 137 1119 166 1075 q 119 1141 127 1135 q 53 1194 87 1172 l 7 1223 q 151 1287 99 1249 l 155 1280 q 193 1200 180 1217 q 214 1172 208 1179 q 275 1119 239 1145 q 326 1090 300 1101 z "},"":{"ha":374,"x_min":46,"x_max":365,"o":"m 102 0 q 131 456 131 203 q 130 529 131 493 q 106 941 125 826 l 102 964 q 268 1022 184 974 l 273 1025 q 242 558 242 832 q 242 534 242 547 q 267 87 242 209 l 273 62 q 190 43 227 57 q 102 0 131 22 m 46 1090 q 98 1119 73 1101 q 158 1172 133 1145 q 180 1200 164 1179 q 221 1287 192 1217 q 365 1223 273 1249 l 319 1194 q 253 1141 286 1172 q 235 1119 245 1135 q 195 1038 206 1075 q 191 1027 191 1027 l 131 1061 q 46 1090 95 1082 z "},"":{"ha":374,"x_min":-31,"x_max":442,"o":"m 102 0 q 131 456 131 203 q 130 529 131 493 q 106 941 125 826 l 102 964 q 268 1022 184 974 l 273 1025 q 242 558 242 832 q 242 534 242 547 q 267 87 242 209 l 273 62 q 190 43 227 57 q 102 0 131 22 m 71 1135 q 120 1211 104 1168 l 123 1222 q 208 1251 172 1230 l 269 1285 l 272 1274 q 313 1193 283 1238 q 330 1171 323 1177 q 397 1118 363 1140 l 442 1088 q 298 1025 351 1063 q 257 1112 269 1095 q 235 1140 241 1134 q 201 1173 220 1157 q 153 1145 179 1163 q 94 1093 132 1131 q 71 1064 81 1080 q 50 1025 57 1043 q -31 1072 22 1063 q 71 1135 44 1108 z "},"":{"ha":423,"x_min":-33,"x_max":458,"o":"m 127 0 q 156 456 156 203 q 155 529 156 493 q 131 941 150 826 l 127 964 q 293 1022 210 974 l 298 1025 q 267 558 267 832 q 267 534 267 547 q 292 87 267 209 l 298 62 q 215 43 252 57 q 127 0 156 22 m 447 1184 q 449 1142 447 1165 q 454 1093 450 1120 q 398 1082 426 1089 q 347 1066 371 1075 q 303 1046 323 1057 q 272 1027 284 1036 q 285 1144 285 1083 q 284 1181 285 1162 q 280 1217 283 1199 l 276 1232 q 458 1295 363 1240 q 447 1184 447 1256 m 142 1182 q 143 1140 142 1163 q 149 1090 145 1118 q 93 1080 121 1087 q 42 1064 66 1073 q -2 1044 18 1055 q -33 1025 -21 1034 q -20 1142 -20 1081 q -21 1179 -20 1160 q -25 1215 -22 1197 l -29 1230 q 153 1293 58 1238 q 142 1182 142 1254 z "},"":{"ha":935,"x_min":20,"x_max":857,"o":"m 135 0 q 157 196 150 104 q 165 367 165 287 q 165 395 165 381 q 164 421 165 408 q 20 409 57 417 q 37 449 29 424 q 49 509 45 475 q 96 499 71 502 q 160 496 121 497 q 151 608 157 553 q 139 716 146 663 l 135 739 q 217 759 176 744 q 306 800 258 773 q 284 632 292 708 q 275 492 276 555 q 328 491 304 492 q 375 490 351 490 q 488 495 437 490 q 581 509 538 500 l 580 506 q 553 409 558 462 l 543 412 q 314 425 492 425 q 295 425 304 425 q 276 424 286 425 q 296 95 290 130 l 328 79 q 431 60 381 60 q 627 157 547 60 q 682 245 660 203 q 719 327 705 286 q 738 411 732 368 q 744 502 744 453 q 736 598 744 555 q 712 680 728 642 q 671 749 696 717 q 612 811 646 781 q 510 871 570 848 q 373 894 450 894 q 298 885 338 894 q 218 861 258 877 q 137 823 177 845 q 61 772 97 800 l 106 950 l 216 994 q 311 1017 267 1008 q 390 1025 354 1025 q 454 1020 419 1025 q 528 1002 488 1015 q 611 964 568 988 q 701 901 654 939 q 761 836 732 875 q 810 745 789 796 q 844 633 831 694 q 857 501 857 572 q 842 365 857 428 q 802 250 827 302 q 746 157 778 197 q 682 90 715 117 q 452 0 574 2 l 306 62 q 245 51 271 58 q 199 35 219 44 q 163 17 178 26 q 135 0 148 8 z "},"":{"ha":876,"x_min":61,"x_max":774,"o":"m 70 954 l 61 964 q 232 1025 163 976 q 311 804 264 913 q 418 589 358 694 q 544 381 477 483 q 683 184 610 279 q 691 467 691 320 l 691 490 q 687 764 690 654 q 675 938 684 875 l 672 964 q 707 974 691 967 q 735 989 722 981 q 774 1025 748 998 q 761 815 765 927 q 757 571 757 703 q 760 288 757 408 q 772 85 764 168 l 774 62 q 721 52 747 59 q 673 37 695 45 q 633 18 650 28 q 604 0 615 9 q 347 506 588 83 l 215 732 q 213 578 213 661 q 216 288 213 410 q 228 83 220 165 l 231 60 q 129 0 182 51 q 147 469 147 202 l 147 488 q 145 693 147 602 q 138 857 143 785 q 100 916 117 891 q 70 954 83 940 m 199 1034 q 218 1063 210 1051 q 264 1209 264 1134 l 264 1222 l 266 1229 q 319 1253 285 1253 q 435 1181 366 1253 q 532 1141 473 1141 q 711 1241 573 1143 l 687 1201 q 652 1068 652 1135 l 652 1053 l 650 1047 q 600 1026 627 1026 q 484 1099 551 1026 q 396 1137 448 1137 l 389 1137 q 199 1034 343 1137 z "},"":{"ha":918,"x_min":81,"x_max":837,"o":"m 300 929 q 211 749 243 895 q 191 575 191 654 q 195 508 191 540 q 258 324 206 419 q 408 176 307 239 q 618 96 505 117 l 619 97 q 711 287 682 132 q 728 449 728 376 q 724 517 728 484 q 661 701 714 603 q 515 846 612 789 q 300 929 418 903 m 475 0 q 353 53 427 13 q 224 151 284 91 q 118 319 149 228 q 81 509 81 421 q 81 512 81 511 q 123 712 81 608 q 209 852 154 789 q 292 930 252 903 l 443 1027 q 566 972 486 1016 q 694 874 626 940 q 802 701 771 797 q 837 513 836 600 q 837 509 837 513 q 799 311 837 400 q 711 175 762 226 q 627 95 641 104 l 475 0 m 524 1090 q 439 1061 475 1082 l 378 1027 l 375 1038 q 334 1119 363 1075 q 317 1141 324 1135 q 250 1194 284 1172 l 205 1223 q 349 1287 296 1249 l 352 1280 q 390 1200 378 1217 q 412 1172 406 1179 q 472 1119 437 1145 q 524 1090 497 1101 z "},"":{"ha":918,"x_min":81,"x_max":837,"o":"m 300 929 q 211 749 243 895 q 191 575 191 654 q 195 508 191 540 q 258 324 206 419 q 408 176 307 239 q 618 96 505 117 l 619 97 q 711 287 682 132 q 728 449 728 376 q 724 517 728 484 q 661 701 714 603 q 515 846 612 789 q 300 929 418 903 m 475 0 q 353 53 427 13 q 224 151 284 91 q 118 319 149 228 q 81 509 81 421 q 81 512 81 511 q 123 712 81 608 q 209 852 154 789 q 292 930 252 903 l 443 1027 q 566 972 486 1016 q 694 874 626 940 q 802 701 771 797 q 837 513 836 600 q 837 509 837 513 q 799 311 837 400 q 711 175 762 226 q 627 95 641 104 l 475 0 m 370 1090 q 421 1119 396 1101 q 481 1172 456 1145 q 503 1200 488 1179 q 545 1287 515 1217 q 688 1223 597 1249 l 643 1194 q 576 1141 609 1172 q 559 1119 569 1135 q 518 1038 530 1075 q 515 1027 515 1027 l 454 1061 q 370 1090 418 1082 z "},"":{"ha":918,"x_min":81,"x_max":837,"o":"m 300 929 q 211 749 243 895 q 191 575 191 654 q 195 508 191 540 q 258 324 206 419 q 408 176 307 239 q 618 96 505 117 l 619 97 q 711 287 682 132 q 728 449 728 376 q 724 517 728 484 q 661 701 714 603 q 515 846 612 789 q 300 929 418 903 m 475 0 q 353 53 427 13 q 224 151 284 91 q 118 319 149 228 q 81 509 81 421 q 81 512 81 511 q 123 712 81 608 q 209 852 154 789 q 292 930 252 903 l 443 1027 q 566 972 486 1016 q 694 874 626 940 q 802 701 771 797 q 837 513 836 600 q 837 509 837 513 q 799 311 837 400 q 711 175 762 226 q 627 95 641 104 l 475 0 m 335 1135 q 384 1211 368 1168 l 387 1222 q 472 1251 435 1230 l 532 1285 l 536 1274 q 576 1193 547 1238 q 594 1171 587 1177 q 661 1118 627 1140 l 706 1088 q 562 1025 614 1063 q 521 1112 533 1095 q 499 1140 505 1134 q 465 1173 484 1157 q 417 1145 443 1163 q 358 1093 395 1131 q 335 1064 345 1080 q 313 1025 321 1043 q 233 1072 286 1063 q 335 1135 308 1108 z "},"":{"ha":918,"x_min":81,"x_max":837,"o":"m 300 929 q 211 749 243 895 q 191 575 191 654 q 195 508 191 540 q 258 324 206 419 q 408 176 307 239 q 618 96 505 117 l 619 97 q 711 287 682 132 q 728 449 728 376 q 724 517 728 484 q 661 701 714 603 q 515 846 612 789 q 300 929 418 903 m 475 0 q 353 53 427 13 q 224 151 284 91 q 118 319 149 228 q 81 509 81 421 q 81 512 81 511 q 123 712 81 608 q 209 852 154 789 q 292 930 252 903 l 443 1027 q 566 972 486 1016 q 694 874 626 940 q 802 701 771 797 q 837 513 836 600 q 837 509 837 513 q 799 311 837 400 q 711 175 762 226 q 627 95 641 104 l 475 0 m 199 1034 q 218 1063 210 1051 q 264 1209 264 1134 l 264 1222 l 266 1229 q 319 1253 285 1253 q 435 1181 366 1253 q 532 1141 473 1141 q 711 1241 573 1143 l 687 1201 q 652 1068 652 1135 l 652 1053 l 650 1047 q 600 1026 627 1026 q 484 1099 551 1026 q 396 1137 448 1137 l 389 1137 q 199 1034 343 1137 z "},"":{"ha":918,"x_min":81,"x_max":837,"o":"m 300 929 q 211 749 243 895 q 191 575 191 654 q 195 508 191 540 q 258 324 206 419 q 408 176 307 239 q 618 96 505 117 l 619 97 q 711 287 682 132 q 728 449 728 376 q 724 517 728 484 q 661 701 714 603 q 515 846 612 789 q 300 929 418 903 m 475 0 q 353 53 427 13 q 224 151 284 91 q 118 319 149 228 q 81 509 81 421 q 81 512 81 511 q 123 712 81 608 q 209 852 154 789 q 292 930 252 903 l 443 1027 q 566 972 486 1016 q 694 874 626 940 q 802 701 771 797 q 837 513 836 600 q 837 509 837 513 q 799 311 837 400 q 711 175 762 226 q 627 95 641 104 l 475 0 m 694 1184 q 695 1142 694 1165 q 701 1093 697 1120 q 645 1082 673 1089 q 594 1066 618 1075 q 550 1046 570 1057 q 519 1027 531 1036 q 532 1144 532 1083 q 531 1181 532 1162 q 527 1217 530 1199 l 523 1232 q 705 1295 610 1240 q 694 1184 694 1256 m 389 1182 q 390 1140 389 1163 q 395 1090 392 1118 q 340 1080 368 1087 q 289 1064 313 1073 q 245 1044 264 1055 q 214 1025 226 1034 q 227 1142 227 1081 q 225 1179 227 1160 q 222 1215 224 1197 l 218 1230 q 399 1293 305 1238 q 389 1182 389 1254 z "},"":{"ha":767,"x_min":90,"x_max":677,"o":"m 90 644 q 157 674 115 652 q 243 733 199 696 l 252 717 q 305 641 273 682 q 379 553 336 600 q 468 654 434 613 q 515 720 502 696 l 525 734 q 677 644 587 682 q 564 564 618 607 q 458 472 510 521 q 564 380 510 423 q 677 300 618 337 q 525 210 587 262 l 515 224 q 468 290 502 248 q 379 391 434 331 q 305 303 336 344 q 252 227 273 262 l 243 211 q 157 270 199 248 q 90 300 115 292 q 301 472 198 371 q 90 644 198 573 z "},"":{"ha":918,"x_min":81,"x_max":837,"o":"m 475 0 q 353 53 427 13 l 336 63 q 312 -5 323 26 q 293 -65 300 -37 q 204 -24 245 -39 q 122 -5 163 -9 q 222 154 159 41 q 156 240 182 195 q 112 333 129 286 q 89 425 96 380 q 81 512 81 470 q 95 622 81 563 q 135 738 109 681 q 201 844 162 795 q 292 930 241 893 l 443 1027 q 566 972 479 1017 q 581 964 573 968 q 597 954 589 959 q 623 1028 611 991 q 647 1103 635 1065 q 678 1083 660 1093 q 719 1065 696 1074 q 766 1050 741 1057 q 818 1040 791 1043 l 712 855 q 770 773 746 817 q 808 685 794 730 q 829 596 823 640 q 837 513 836 552 q 827 407 837 456 q 800 314 817 357 q 760 236 783 271 q 711 175 737 201 q 627 95 640 104 l 475 0 m 300 929 q 211 749 242 895 q 191 575 191 654 q 215 422 191 499 q 289 279 239 345 l 415 528 q 486 677 452 604 q 548 825 519 751 q 435 887 498 861 q 300 929 371 913 m 387 189 l 408 176 q 508 126 456 146 q 618 96 561 107 q 711 287 682 132 q 724 372 720 332 q 728 449 728 412 q 725 515 728 481 q 711 584 721 549 q 684 655 701 619 q 644 728 668 692 l 521 477 q 448 324 481 395 q 387 189 414 253 z "},"":{"ha":917,"x_min":102,"x_max":815,"o":"m 102 964 q 184 984 142 969 q 273 1025 225 998 q 250 810 258 930 q 243 544 243 691 q 243 443 243 480 q 245 395 244 406 q 345 178 254 253 q 589 98 410 123 l 589 99 q 658 274 631 133 q 672 526 672 346 l 672 543 q 666 738 672 639 q 648 941 660 837 l 644 964 q 727 984 686 969 q 815 1025 768 998 q 791 825 800 926 q 783 618 783 724 q 787 449 783 513 q 794 372 791 385 q 771 308 789 345 q 726 232 753 271 q 666 157 699 193 q 597 97 633 121 l 428 -1 q 401 5 417 0 q 364 18 385 9 q 318 40 342 27 q 268 69 293 52 q 219 105 243 85 q 178 149 196 125 q 122 342 122 240 q 130 530 130 459 l 130 549 q 106 941 130 816 l 102 964 m 523 1090 q 438 1061 474 1082 l 378 1027 l 374 1038 q 334 1119 363 1075 q 316 1141 323 1135 q 250 1194 283 1172 l 204 1223 q 348 1287 296 1249 l 351 1280 q 389 1200 377 1217 q 411 1172 405 1179 q 471 1119 436 1145 q 523 1090 496 1101 z "},"":{"ha":917,"x_min":102,"x_max":815,"o":"m 102 964 q 184 984 142 969 q 273 1025 225 998 q 250 810 258 930 q 243 544 243 691 q 243 443 243 480 q 245 395 244 406 q 345 178 254 253 q 589 98 410 123 l 589 99 q 658 274 631 133 q 672 526 672 346 l 672 543 q 666 738 672 639 q 648 941 660 837 l 644 964 q 727 984 686 969 q 815 1025 768 998 q 791 825 800 926 q 783 618 783 724 q 787 449 783 513 q 794 372 791 385 q 771 308 789 345 q 726 232 753 271 q 666 157 699 193 q 597 97 633 121 l 428 -1 q 401 5 417 0 q 364 18 385 9 q 318 40 342 27 q 268 69 293 52 q 219 105 243 85 q 178 149 196 125 q 122 342 122 240 q 130 530 130 459 l 130 549 q 106 941 130 816 l 102 964 m 372 1090 q 423 1119 398 1101 q 484 1172 458 1145 q 505 1200 490 1179 q 547 1287 517 1217 q 690 1223 599 1249 l 645 1194 q 578 1141 611 1172 q 561 1119 571 1135 q 520 1038 532 1075 q 517 1027 517 1027 l 456 1061 q 372 1090 420 1082 z "},"":{"ha":917,"x_min":102,"x_max":815,"o":"m 102 964 q 184 984 142 969 q 273 1025 225 998 q 250 810 258 930 q 243 544 243 691 q 243 443 243 480 q 245 395 244 406 q 345 178 254 253 q 589 98 410 123 l 589 99 q 658 274 631 133 q 672 526 672 346 l 672 543 q 666 738 672 639 q 648 941 660 837 l 644 964 q 727 984 686 969 q 815 1025 768 998 q 791 825 800 926 q 783 618 783 724 q 787 449 783 513 q 794 372 791 385 q 771 308 789 345 q 726 232 753 271 q 666 157 699 193 q 597 97 633 121 l 428 -1 q 401 5 417 0 q 364 18 385 9 q 318 40 342 27 q 268 69 293 52 q 219 105 243 85 q 178 149 196 125 q 122 342 122 240 q 130 530 130 459 l 130 549 q 106 941 130 816 l 102 964 m 334 1135 q 383 1211 367 1168 l 387 1222 q 471 1251 435 1230 l 532 1285 l 535 1274 q 576 1193 547 1238 q 593 1171 586 1177 q 660 1118 626 1140 l 705 1088 q 562 1025 614 1063 q 520 1112 532 1095 q 498 1140 504 1134 q 464 1173 483 1157 q 416 1145 442 1163 q 357 1093 395 1131 q 334 1064 345 1080 q 313 1025 320 1043 q 233 1072 286 1063 q 334 1135 307 1108 z "},"":{"ha":917,"x_min":102,"x_max":815,"o":"m 102 964 q 184 984 142 969 q 273 1025 225 998 q 250 810 258 930 q 243 544 243 691 q 243 443 243 480 q 245 395 244 406 q 345 178 254 253 q 589 98 410 123 l 589 99 q 658 274 631 133 q 672 526 672 346 l 672 543 q 666 738 672 639 q 648 941 660 837 l 644 964 q 727 984 686 969 q 815 1025 768 998 q 791 825 800 926 q 783 618 783 724 q 787 449 783 513 q 794 372 791 385 q 771 308 789 345 q 726 232 753 271 q 666 157 699 193 q 597 97 633 121 l 428 -1 q 401 5 417 0 q 364 18 385 9 q 318 40 342 27 q 268 69 293 52 q 219 105 243 85 q 178 149 196 125 q 122 342 122 240 q 130 530 130 459 l 130 549 q 106 941 130 816 l 102 964 m 694 1184 q 695 1142 694 1165 q 701 1093 697 1120 q 645 1082 673 1089 q 594 1066 618 1075 q 550 1046 570 1057 q 519 1027 531 1036 q 532 1144 532 1083 q 531 1181 532 1162 q 527 1217 530 1199 l 523 1232 q 705 1295 610 1240 q 694 1184 694 1256 m 389 1182 q 390 1140 389 1163 q 395 1090 392 1118 q 340 1080 368 1087 q 289 1064 313 1073 q 245 1044 264 1055 q 214 1025 226 1034 q 227 1142 227 1081 q 225 1179 227 1160 q 222 1215 224 1197 l 218 1230 q 399 1293 305 1238 q 389 1182 389 1254 z "},"":{"ha":865,"x_min":0,"x_max":865,"o":"m 0 964 q 55 974 28 966 q 105 990 82 981 q 144 1008 127 999 q 171 1025 161 1017 q 225 873 195 949 q 290 722 254 798 q 368 573 326 647 q 460 429 410 500 q 593 621 514 458 q 693 841 659 757 q 727 966 727 925 q 865 1025 827 987 q 637 612 787 905 q 499 317 522 385 q 507 180 503 237 q 520 87 512 123 l 526 62 q 471 52 497 59 q 423 36 445 45 q 383 18 401 27 q 355 0 366 8 q 371 137 364 66 q 380 284 377 208 q 289 478 335 387 q 194 651 242 569 q 0 964 55 911 m 370 1090 q 422 1119 397 1101 q 482 1172 457 1145 q 504 1200 488 1179 q 545 1287 516 1217 q 689 1223 597 1249 l 644 1194 q 577 1141 610 1172 q 559 1119 570 1135 q 519 1038 530 1075 q 515 1027 515 1027 l 455 1061 q 370 1090 419 1082 z "},"":{"ha":858,"x_min":102,"x_max":790,"o":"m 102 0 q 124 216 117 102 q 131 456 131 329 q 124 756 130 635 q 106 941 117 878 l 102 964 q 184 984 142 969 q 273 1025 225 998 q 242 558 242 832 l 242 534 q 244 370 242 444 q 250 237 246 296 l 385 326 l 477 391 q 588 474 486 396 q 665 597 665 533 q 660 630 665 614 q 644 661 656 646 q 612 691 632 675 q 559 725 591 707 q 408 798 481 769 q 265 842 335 826 l 432 939 q 612 849 583 868 q 699 788 665 817 q 752 732 732 760 q 781 674 772 704 q 790 606 789 644 q 777 529 790 563 q 735 464 764 494 q 662 402 707 433 q 553 337 617 372 l 490 302 l 254 182 q 260 130 258 153 q 267 87 263 106 l 273 62 q 217 52 243 59 q 169 36 191 45 q 130 18 147 27 q 102 0 113 8 z "},"":{"ha":830,"x_min":102,"x_max":762,"o":"m 102 0 q 125 193 117 97 q 134 386 134 289 q 132 467 133 436 q 117 639 129 593 q 139 728 127 690 q 164 802 152 772 q 190 853 176 831 q 219 893 203 876 q 257 930 235 911 l 408 1025 q 454 1010 426 1021 q 516 980 483 999 q 585 936 550 962 q 652 875 621 909 q 696 741 696 807 q 684 686 696 713 q 649 636 673 659 q 589 597 625 613 q 503 575 552 581 q 711 465 671 505 q 749 404 735 441 q 762 317 762 366 q 747 248 762 283 q 697 176 732 214 q 608 99 637 113 l 427 0 q 371 14 407 1 q 294 56 334 28 l 435 145 q 600 100 505 109 l 601 101 q 674 258 674 153 q 553 401 674 352 l 309 505 l 474 587 q 568 659 541 627 q 595 721 595 691 q 565 786 595 756 q 475 849 535 815 q 371 899 422 880 q 271 928 320 918 l 251 747 q 247 658 248 722 q 245 488 245 593 l 245 471 q 251 282 245 378 q 269 83 257 186 l 273 60 q 190 41 231 56 q 106 3 149 26 l 102 0 z "},"":{"ha":738,"x_min":68,"x_max":670,"o":"m 83 570 q 143 644 101 610 l 175 670 l 330 766 q 425 727 368 756 q 527 653 479 699 q 611 528 587 595 q 640 385 637 463 q 665 87 644 193 l 670 62 q 587 43 624 57 q 499 0 528 22 q 525 364 525 183 q 525 382 525 373 q 500 500 525 460 q 382 599 458 564 q 182 660 315 631 q 171 601 171 643 q 180 532 171 574 l 83 570 m 356 0 q 233 57 317 14 q 111 155 170 90 q 68 280 68 222 q 68 283 68 281 q 144 416 78 366 q 422 503 255 502 q 183 334 216 427 q 176 296 176 314 q 198 240 176 264 q 296 161 256 181 q 498 94 419 101 l 356 0 m 404 828 q 319 799 355 820 l 259 765 l 256 777 q 215 857 244 813 q 197 880 205 873 q 131 932 165 910 l 85 962 q 229 1025 177 987 l 233 1018 q 271 939 258 956 q 292 910 286 917 q 353 857 317 883 q 404 828 378 839 z "},"":{"ha":738,"x_min":68,"x_max":670,"o":"m 83 570 q 143 644 101 610 l 175 670 l 330 766 q 425 727 368 756 q 527 653 479 699 q 611 528 587 595 q 640 385 637 463 q 665 87 644 193 l 670 62 q 587 43 624 57 q 499 0 528 22 q 525 364 525 183 q 525 382 525 373 q 500 500 525 460 q 382 599 458 564 q 182 660 315 631 q 171 601 171 643 q 180 532 171 574 l 83 570 m 356 0 q 233 57 317 14 q 111 155 170 90 q 68 280 68 222 q 68 283 68 281 q 144 416 78 366 q 422 503 255 502 q 183 334 216 427 q 176 296 176 314 q 198 240 176 264 q 296 161 256 181 q 498 94 419 101 l 356 0 m 279 828 q 330 857 305 839 q 391 910 366 883 q 412 939 397 917 q 454 1025 425 956 q 597 962 506 987 l 552 932 q 486 880 518 910 q 468 857 478 873 q 427 777 439 813 q 424 765 424 766 l 363 799 q 279 828 328 820 z "},"":{"ha":738,"x_min":68,"x_max":670,"o":"m 83 570 q 143 644 101 610 l 175 670 l 330 766 q 425 727 368 756 q 527 653 479 699 q 611 528 587 595 q 640 385 637 463 q 665 87 644 193 l 670 62 q 587 43 624 57 q 499 0 528 22 q 525 364 525 183 q 525 382 525 373 q 500 500 525 460 q 382 599 458 564 q 182 660 315 631 q 171 601 171 643 q 180 532 171 574 l 83 570 m 356 0 q 233 57 317 14 q 111 155 170 90 q 68 280 68 222 q 68 283 68 281 q 144 416 78 366 q 422 503 255 502 q 183 334 216 427 q 176 296 176 314 q 198 240 176 264 q 296 161 256 181 q 498 94 419 101 l 356 0 m 224 873 q 273 949 256 907 l 276 960 q 361 989 324 968 l 421 1023 l 425 1012 q 465 931 436 976 q 483 909 475 916 q 549 856 515 878 l 595 827 q 451 763 503 802 q 410 850 422 833 q 388 878 393 872 q 353 911 372 895 q 306 884 332 901 q 247 831 284 869 q 224 802 234 819 q 202 763 210 781 q 122 810 175 802 q 224 873 197 846 z "},"":{"ha":738,"x_min":68,"x_max":670,"o":"m 83 570 q 143 644 101 610 l 175 670 l 330 766 q 425 727 368 756 q 527 653 479 699 q 611 528 587 595 q 640 385 637 463 q 665 87 644 193 l 670 62 q 587 43 624 57 q 499 0 528 22 q 525 364 525 183 q 525 382 525 373 q 500 500 525 460 q 382 599 458 564 q 182 660 315 631 q 171 601 171 643 q 180 532 171 574 l 83 570 m 356 0 q 233 57 317 14 q 111 155 170 90 q 68 280 68 222 q 68 283 68 281 q 144 416 78 366 q 422 503 255 502 q 183 334 216 427 q 176 296 176 314 q 198 240 176 264 q 296 161 256 181 q 498 94 419 101 l 356 0 m 109 806 q 128 835 120 823 q 174 981 174 905 l 174 994 l 176 1000 q 229 1025 195 1025 q 345 953 275 1025 q 441 913 383 913 q 621 1013 483 914 l 597 972 q 562 840 562 907 l 562 825 l 559 819 q 510 798 536 798 q 393 871 461 798 q 306 909 357 909 l 299 909 q 109 806 253 909 z "},"":{"ha":738,"x_min":68,"x_max":670,"o":"m 83 570 q 143 644 101 610 l 175 670 l 330 766 q 425 727 368 756 q 527 653 479 699 q 611 528 587 595 q 640 385 637 463 q 665 87 644 193 l 670 62 q 587 43 624 57 q 499 0 528 22 q 525 364 525 183 q 525 382 525 373 q 500 500 525 460 q 382 599 458 564 q 182 660 315 631 q 171 601 171 643 q 180 532 171 574 l 83 570 m 356 0 q 233 57 317 14 q 111 155 170 90 q 68 280 68 222 q 68 283 68 281 q 144 416 78 366 q 422 503 255 502 q 183 334 216 427 q 176 296 176 314 q 198 240 176 264 q 296 161 256 181 q 498 94 419 101 l 356 0 m 582 941 q 584 900 582 922 q 589 850 585 877 q 533 839 561 846 q 482 823 506 832 q 438 804 458 814 q 407 785 419 793 q 420 901 420 840 q 419 938 420 920 q 415 975 418 956 l 411 989 q 593 1052 498 998 q 582 941 582 1013 m 277 939 q 278 898 277 920 q 283 848 280 875 q 228 837 256 844 q 177 821 201 830 q 133 802 153 812 q 102 783 114 791 q 115 899 115 838 q 114 936 115 918 q 110 972 113 954 l 106 987 q 288 1050 193 996 q 277 939 277 1011 z "},"":{"ha":738,"x_min":68,"x_max":670,"o":"m 83 570 q 143 644 101 610 l 175 670 l 330 766 q 425 727 368 756 q 527 653 479 699 q 611 528 587 595 q 640 385 637 463 q 665 87 644 193 l 670 62 q 587 43 624 57 q 499 0 528 22 q 525 364 525 183 q 525 382 525 373 q 500 500 525 460 q 382 599 458 564 q 182 660 315 631 q 171 601 171 643 q 180 532 171 574 l 83 570 m 356 0 q 233 57 317 14 q 111 155 170 90 q 68 280 68 222 q 68 283 68 281 q 144 416 78 366 q 422 503 255 502 q 183 334 216 427 q 176 296 176 314 q 198 240 176 264 q 296 161 256 181 q 498 94 419 101 l 356 0 m 408 918 q 375 970 408 949 q 269 1003 342 991 q 252 980 256 987 q 245 964 248 972 q 242 947 242 956 q 250 926 242 935 q 275 907 258 916 q 318 890 292 898 q 382 873 345 882 l 387 878 q 408 918 408 895 m 319 1084 q 360 1072 334 1082 q 412 1043 386 1061 q 455 997 437 1025 q 472 935 472 968 l 472 935 q 463 888 472 908 q 440 854 453 869 q 413 831 427 840 q 391 817 399 822 l 331 787 q 299 796 319 789 q 259 815 279 804 q 219 843 238 827 q 192 877 201 859 q 178 934 178 905 q 180 963 178 947 q 192 994 183 979 q 217 1025 201 1010 q 260 1055 233 1041 l 319 1084 z "},"":{"ha":1196,"x_min":68,"x_max":1128,"o":"m 356 0 q 233 57 317 14 q 111 155 170 90 q 68 280 68 222 l 68 283 q 144 416 78 366 q 422 503 255 502 q 183 334 216 427 q 176 296 176 314 q 198 240 176 264 q 296 161 256 181 q 498 94 419 101 l 356 0 m 83 570 q 143 644 101 610 l 175 670 l 330 766 q 425 727 368 756 q 527 653 479 699 q 600 555 574 607 q 656 639 623 602 q 697 675 673 657 l 840 769 q 962 712 876 757 q 1084 614 1025 680 q 1128 489 1128 547 l 1128 486 q 1052 353 1118 403 q 773 266 940 267 q 1022 432 983 338 q 1030 471 1030 452 l 1030 472 l 1030 473 q 1006 529 1030 502 q 899 608 969 573 q 705 674 780 667 q 659 547 680 632 q 642 431 642 480 q 646 387 642 408 q 696 266 655 327 q 813 168 738 203 q 1013 106 878 136 l 1014 106 q 1025 165 1025 123 q 1016 235 1025 192 l 1112 197 q 1053 122 1094 155 q 1021 96 1021 97 l 867 0 q 770 40 827 9 q 669 113 714 70 l 659 123 q 665 87 661 104 l 670 62 q 587 43 624 57 q 499 0 528 22 q 525 364 525 183 l 525 382 q 500 500 525 460 q 382 599 458 564 q 183 661 315 631 l 182 660 q 171 601 171 643 q 180 532 171 574 l 83 570 z "},"":{"ha":692,"x_min":68,"x_max":624,"o":"m 349 7 q 282 37 318 18 q 180 111 227 66 q 97 236 121 168 q 68 378 68 307 q 101 531 77 475 q 168 636 127 590 q 209 673 186 656 l 353 767 q 450 726 386 758 q 551 652 497 701 q 595 599 567 637 l 486 525 q 410 608 452 578 q 213 667 361 642 l 212 667 q 170 544 193 631 q 154 429 154 481 q 157 385 154 407 q 208 263 166 326 q 325 165 250 199 q 525 103 395 133 l 526 104 q 536 163 536 121 q 528 232 536 189 l 624 194 q 564 119 606 153 q 533 94 533 94 l 411 18 q 501 -113 501 -24 q 437 -235 501 -196 l 427 -238 q 261 -290 345 -243 l 256 -292 q 380 -100 380 -180 l 380 -96 q 349 7 380 -48 z "},"":{"ha":707,"x_min":68,"x_max":640,"o":"m 378 -3 q 282 37 338 7 q 180 111 226 67 q 97 236 121 168 q 68 378 74 292 l 68 381 q 101 531 68 454 q 168 636 126 590 q 209 673 186 655 l 351 766 q 474 709 387 754 q 596 612 537 677 q 640 486 640 544 q 640 483 640 485 q 564 350 629 400 q 285 263 452 264 q 534 429 495 335 q 542 468 542 449 q 542 469 542 469 q 542 471 542 470 q 518 526 542 499 q 411 605 481 570 q 217 671 292 664 q 170 544 191 629 q 154 429 154 477 q 157 385 154 406 q 208 263 167 324 q 325 165 250 201 q 525 103 390 134 l 526 104 q 536 163 536 121 q 528 232 536 189 l 624 194 q 564 119 606 153 q 533 94 533 94 l 378 -3 m 406 828 q 321 799 357 820 l 261 765 l 258 777 q 217 857 246 813 q 199 880 207 873 q 133 932 167 910 l 87 962 q 231 1025 179 987 l 235 1018 q 273 939 260 956 q 294 910 288 917 q 355 857 319 883 q 406 828 380 839 z "},"":{"ha":707,"x_min":68,"x_max":640,"o":"m 378 -3 q 282 37 338 7 q 180 111 226 67 q 97 236 121 168 q 68 378 74 292 l 68 381 q 101 531 68 454 q 168 636 126 590 q 209 673 186 655 l 351 766 q 474 709 387 754 q 596 612 537 677 q 640 486 640 544 q 640 483 640 485 q 564 350 629 400 q 285 263 452 264 q 534 429 495 335 q 542 468 542 449 q 542 469 542 469 q 542 471 542 470 q 518 526 542 499 q 411 605 481 570 q 217 671 292 664 q 170 544 191 629 q 154 429 154 477 q 157 385 154 406 q 208 263 167 324 q 325 165 250 201 q 525 103 390 134 l 526 104 q 536 163 536 121 q 528 232 536 189 l 624 194 q 564 119 606 153 q 533 94 533 94 l 378 -3 m 279 828 q 331 857 306 839 q 391 910 366 883 q 413 939 397 917 q 454 1025 425 956 q 598 962 507 987 l 553 932 q 486 880 519 910 q 469 857 479 873 q 428 777 439 813 q 425 765 425 766 l 364 799 q 279 828 328 820 z "},"":{"ha":707,"x_min":68,"x_max":640,"o":"m 378 -3 q 282 37 338 7 q 180 111 226 67 q 97 236 121 168 q 68 378 74 292 l 68 381 q 101 531 68 454 q 168 636 126 590 q 209 673 186 655 l 351 766 q 474 709 387 754 q 596 612 537 677 q 640 486 640 544 q 640 483 640 485 q 564 350 629 400 q 285 263 452 264 q 534 429 495 335 q 542 468 542 449 q 542 469 542 469 q 542 471 542 470 q 518 526 542 499 q 411 605 481 570 q 217 671 292 664 q 170 544 191 629 q 154 429 154 477 q 157 385 154 406 q 208 263 167 324 q 325 165 250 201 q 525 103 390 134 l 526 104 q 536 163 536 121 q 528 232 536 189 l 624 194 q 564 119 606 153 q 533 94 533 94 l 378 -3 m 224 873 q 273 949 256 907 l 276 960 q 361 989 324 968 l 421 1023 l 425 1012 q 465 931 436 976 q 483 909 475 916 q 549 856 515 878 l 595 827 q 451 763 503 802 q 410 850 422 833 q 388 878 393 872 q 353 911 372 895 q 306 884 332 901 q 247 831 284 869 q 224 802 234 819 q 202 763 210 781 q 122 810 175 802 q 224 873 197 846 z "},"":{"ha":707,"x_min":68,"x_max":640,"o":"m 378 -3 q 282 37 338 7 q 180 111 226 67 q 97 236 121 168 q 68 378 74 292 l 68 381 q 101 531 68 454 q 168 636 126 590 q 209 673 186 655 l 351 766 q 474 709 387 754 q 596 612 537 677 q 640 486 640 544 q 640 483 640 485 q 564 350 629 400 q 285 263 452 264 q 534 429 495 335 q 542 468 542 449 q 542 469 542 469 q 542 471 542 470 q 518 526 542 499 q 411 605 481 570 q 217 671 292 664 q 170 544 191 629 q 154 429 154 477 q 157 385 154 406 q 208 263 167 324 q 325 165 250 201 q 525 103 390 134 l 526 104 q 536 163 536 121 q 528 232 536 189 l 624 194 q 564 119 606 153 q 533 94 533 94 l 378 -3 m 582 941 q 584 900 582 922 q 589 850 585 877 q 533 839 561 846 q 482 823 506 832 q 438 804 458 814 q 407 785 419 793 q 420 901 420 840 q 419 938 420 920 q 415 975 418 956 l 411 989 q 593 1052 498 998 q 582 941 582 1013 m 277 939 q 278 898 277 920 q 283 848 280 875 q 228 837 256 844 q 177 821 201 830 q 133 802 153 812 q 102 783 114 791 q 115 899 115 838 q 114 936 115 918 q 110 972 113 954 l 106 987 q 288 1050 193 996 q 277 939 277 1011 z "},"":{"ha":389,"x_min":14,"x_max":332,"o":"m 113 0 q 133 186 126 102 q 139 338 139 270 q 138 440 139 393 q 134 531 137 488 q 127 614 132 574 q 117 695 123 654 l 113 706 q 196 725 155 711 q 279 764 237 740 l 284 766 q 250 440 250 649 l 250 416 q 279 87 250 226 l 284 62 q 229 52 255 59 q 181 36 203 45 q 141 18 159 27 q 113 0 124 8 m 332 828 q 248 799 283 820 l 187 765 l 184 777 q 143 857 172 813 q 125 880 133 873 q 59 932 93 910 l 14 962 q 157 1025 105 987 l 161 1018 q 199 939 186 956 q 220 910 214 917 q 281 857 245 883 q 332 828 306 839 z "},"":{"ha":389,"x_min":51,"x_max":370,"o":"m 113 0 q 133 186 126 102 q 139 338 139 270 q 138 440 139 393 q 134 531 137 488 q 127 614 132 574 q 117 695 123 654 l 113 706 q 196 725 155 711 q 279 764 237 740 l 284 766 q 250 440 250 649 l 250 416 q 279 87 250 226 l 284 62 q 229 52 255 59 q 181 36 203 45 q 141 18 159 27 q 113 0 124 8 m 51 828 q 102 857 77 839 q 163 910 138 883 q 184 939 169 917 q 226 1025 197 956 q 370 962 278 987 l 324 932 q 258 880 290 910 q 240 857 250 873 q 199 777 211 813 q 196 765 196 766 l 136 799 q 51 828 100 820 z "},"":{"ha":407,"x_min":-28,"x_max":444,"o":"m 113 0 q 133 186 126 102 q 139 338 139 270 q 138 440 139 393 q 134 531 137 488 q 127 614 132 574 q 117 695 123 654 l 113 706 q 196 725 155 711 q 279 764 237 740 l 284 766 q 250 440 250 649 l 250 416 q 279 87 250 226 l 284 62 q 229 52 255 59 q 181 36 203 45 q 141 18 159 27 q 113 0 124 8 m 73 873 q 122 949 106 907 l 125 960 q 210 989 174 968 l 271 1023 l 274 1012 q 315 931 286 976 q 332 909 325 916 q 399 856 365 878 l 444 827 q 300 763 353 802 q 259 850 271 833 q 237 878 243 872 q 203 911 222 895 q 155 884 181 901 q 96 831 134 869 q 73 802 83 819 q 52 763 59 781 q -28 810 24 802 q 73 873 46 846 z "},"":{"ha":423,"x_min":-31,"x_max":460,"o":"m 132 -2 q 151 184 144 100 q 157 336 157 268 q 156 438 157 391 q 153 529 155 486 q 145 612 150 572 q 135 693 141 652 l 132 704 q 214 723 173 709 q 298 762 255 738 l 302 764 q 269 438 269 647 l 269 414 q 297 85 269 224 l 302 60 q 247 50 273 57 q 199 34 221 43 q 160 16 177 25 q 132 -2 142 6 m 450 941 q 451 900 450 922 q 456 850 453 877 q 401 839 429 846 q 350 823 374 832 q 306 804 326 814 q 275 785 287 793 q 288 901 288 840 q 287 938 288 920 q 283 975 286 956 l 279 989 q 460 1052 366 998 q 450 941 450 1013 m 144 939 q 146 898 144 920 q 151 848 148 875 q 96 837 123 844 q 44 821 68 830 q 1 802 20 812 q -31 783 -18 791 q -18 899 -18 838 q -19 936 -18 918 q -22 972 -20 954 l -26 987 q 155 1050 61 996 q 144 939 144 1011 z "},"":{"ha":825,"x_min":68,"x_max":743,"o":"m 525 103 q 618 286 589 138 q 630 371 626 330 q 635 448 635 411 q 627 539 635 489 q 597 640 618 589 q 540 740 576 692 q 448 827 504 789 q 354 730 363 751 q 341 771 351 745 q 312 825 332 798 l 323 830 q 345 842 330 833 q 380 867 359 851 q 295 903 340 887 q 199 929 250 918 l 349 1026 q 472 971 388 1015 l 496 958 q 654 1113 616 1063 q 697 1019 666 1063 l 688 1014 q 552 916 678 1013 q 649 815 610 868 q 708 700 688 763 q 743 508 742 600 q 733 405 743 454 q 706 313 724 356 q 666 235 689 270 q 618 174 644 199 q 533 94 547 102 l 378 -3 q 303 26 345 5 q 221 78 261 47 q 147 149 180 109 q 97 236 114 189 q 68 381 68 303 q 103 525 68 464 q 201 627 138 587 q 348 687 263 667 q 534 708 433 707 l 537 702 q 392 653 460 682 q 274 588 324 625 q 196 506 224 551 q 167 406 167 460 q 168 394 167 399 q 168 386 168 389 q 208 263 168 336 q 256 208 229 231 q 320 166 283 184 q 407 133 357 148 q 525 103 457 118 z "},"":{"ha":800,"x_min":102,"x_max":732,"o":"m 102 0 q 127 338 127 203 q 127 411 127 405 q 105 695 125 569 l 102 706 q 268 764 184 715 l 273 766 q 243 674 259 726 l 392 766 q 488 727 431 756 q 589 653 541 699 q 673 528 649 596 q 702 385 700 463 q 727 87 708 188 l 732 62 q 650 43 687 57 q 562 0 591 22 q 588 344 588 178 q 587 382 587 366 q 563 500 587 460 q 445 599 522 560 q 244 660 377 633 l 243 660 q 239 440 239 610 l 239 416 q 267 87 239 226 l 273 62 q 190 43 227 57 q 102 0 131 22 m 108 806 q 127 835 119 823 q 173 981 173 905 l 172 994 l 174 1000 q 227 1025 193 1025 q 343 953 274 1025 q 440 913 382 913 q 619 1013 481 914 l 595 972 q 560 840 560 907 l 561 825 l 558 819 q 509 798 535 798 q 392 871 460 798 q 304 909 356 909 l 298 909 q 108 806 252 909 z "},"":{"ha":730,"x_min":68,"x_max":663,"o":"m 213 667 l 212 667 q 170 544 193 630 q 154 429 154 482 q 157 385 154 408 q 208 263 166 325 q 325 165 250 199 q 525 103 395 133 l 526 104 q 564 238 542 140 q 578 345 578 297 q 574 391 578 371 q 524 512 564 450 q 407 610 492 562 q 213 667 340 647 m 378 -3 q 282 37 338 7 q 180 111 227 66 q 97 236 121 168 q 68 378 68 305 q 68 381 68 380 q 101 531 68 454 q 168 636 127 593 q 209 673 187 656 l 353 767 q 450 726 386 758 q 551 652 497 701 q 635 523 611 594 q 663 382 663 447 l 663 379 q 633 231 663 286 q 556 118 587 146 q 533 94 539 103 l 378 -3 m 404 828 q 319 799 355 820 l 259 765 l 256 777 q 215 857 244 813 q 197 880 205 873 q 131 932 165 910 l 85 962 q 229 1025 177 987 l 233 1018 q 271 939 258 956 q 292 910 286 917 q 353 857 317 883 q 404 828 378 839 z "},"":{"ha":730,"x_min":68,"x_max":663,"o":"m 213 667 l 212 667 q 170 544 193 630 q 154 429 154 482 q 157 385 154 408 q 208 263 166 325 q 325 165 250 199 q 525 103 395 133 l 526 104 q 564 238 542 140 q 578 345 578 297 q 574 391 578 371 q 524 512 564 450 q 407 610 492 562 q 213 667 340 647 m 378 -3 q 282 37 338 7 q 180 111 227 66 q 97 236 121 168 q 68 378 68 305 q 68 381 68 380 q 101 531 68 454 q 168 636 127 593 q 209 673 187 656 l 353 767 q 450 726 386 758 q 551 652 497 701 q 635 523 611 594 q 663 382 663 447 l 663 379 q 633 231 663 286 q 556 118 587 146 q 533 94 539 103 l 378 -3 m 281 828 q 332 857 307 839 q 393 910 368 883 q 414 939 399 917 q 456 1025 427 956 q 600 962 508 987 l 554 932 q 488 880 520 910 q 470 857 480 873 q 429 777 441 813 q 426 765 426 766 l 366 799 q 281 828 330 820 z "},"":{"ha":730,"x_min":68,"x_max":663,"o":"m 213 667 l 212 667 q 170 544 193 630 q 154 429 154 482 q 157 385 154 408 q 208 263 166 325 q 325 165 250 199 q 525 103 395 133 l 526 104 q 564 238 542 140 q 578 345 578 297 q 574 391 578 371 q 524 512 564 450 q 407 610 492 562 q 213 667 340 647 m 378 -3 q 282 37 338 7 q 180 111 227 66 q 97 236 121 168 q 68 378 68 305 q 68 381 68 380 q 101 531 68 454 q 168 636 127 593 q 209 673 187 656 l 353 767 q 450 726 386 758 q 551 652 497 701 q 635 523 611 594 q 663 382 663 447 l 663 379 q 633 231 663 286 q 556 118 587 146 q 533 94 539 103 l 378 -3 m 223 873 q 272 949 256 907 l 275 960 q 360 989 323 968 l 420 1023 l 424 1012 q 465 931 435 976 q 482 909 475 916 q 549 856 515 878 l 594 827 q 450 763 503 802 q 409 850 421 833 q 387 878 393 872 q 353 911 372 895 q 305 884 331 901 q 246 831 283 869 q 223 802 233 819 q 201 763 209 781 q 121 810 174 802 q 223 873 196 846 z "},"":{"ha":730,"x_min":68,"x_max":663,"o":"m 213 667 l 212 667 q 170 544 193 630 q 154 429 154 482 q 157 385 154 408 q 208 263 166 325 q 325 165 250 199 q 525 103 395 133 l 526 104 q 564 238 542 140 q 578 345 578 297 q 574 391 578 371 q 524 512 564 450 q 407 610 492 562 q 213 667 340 647 m 378 -3 q 282 37 338 7 q 180 111 227 66 q 97 236 121 168 q 68 378 68 305 q 68 381 68 380 q 101 531 68 454 q 168 636 127 593 q 209 673 187 656 l 353 767 q 450 726 386 758 q 551 652 497 701 q 635 523 611 594 q 663 382 663 447 l 663 379 q 633 231 663 286 q 556 118 587 146 q 533 94 539 103 l 378 -3 m 109 806 q 127 835 119 823 q 174 981 174 905 l 173 994 l 175 1000 q 228 1025 194 1025 q 344 953 275 1025 q 441 913 382 913 q 620 1013 482 914 l 596 972 q 561 840 561 907 l 562 825 l 559 819 q 509 798 536 798 q 393 871 460 798 q 305 909 357 909 l 298 909 q 109 806 252 909 z "},"":{"ha":730,"x_min":68,"x_max":663,"o":"m 213 667 l 212 667 q 170 544 193 630 q 154 429 154 482 q 157 385 154 408 q 208 263 166 325 q 325 165 250 199 q 525 103 395 133 l 526 104 q 564 238 542 140 q 578 345 578 297 q 574 391 578 371 q 524 512 564 450 q 407 610 492 562 q 213 667 340 647 m 378 -3 q 282 37 338 7 q 180 111 227 66 q 97 236 121 168 q 68 378 68 305 q 68 381 68 380 q 101 531 68 454 q 168 636 127 593 q 209 673 187 656 l 353 767 q 450 726 386 758 q 551 652 497 701 q 635 523 611 594 q 663 382 663 447 l 663 379 q 633 231 663 286 q 556 118 587 146 q 533 94 539 103 l 378 -3 m 582 941 q 584 900 582 922 q 589 850 585 877 q 533 839 561 846 q 482 823 506 832 q 438 804 458 814 q 407 785 419 793 q 420 901 420 840 q 419 938 420 920 q 415 975 418 956 l 411 989 q 593 1052 498 998 q 582 941 582 1013 m 277 939 q 278 898 277 920 q 283 848 280 875 q 228 837 256 844 q 177 821 201 830 q 133 802 153 812 q 102 783 114 791 q 115 899 115 838 q 114 936 115 918 q 110 972 113 954 l 106 987 q 288 1050 193 996 q 277 939 277 1011 z "},"":{"ha":767,"x_min":54,"x_max":713,"o":"m 468 210 q 470 168 468 191 q 475 118 471 145 q 419 107 447 115 q 368 91 392 100 q 325 72 344 82 q 293 53 305 62 q 306 170 306 109 q 305 206 306 188 q 301 243 304 224 l 297 257 q 479 320 385 266 q 468 210 468 281 m 467 781 q 468 739 467 762 q 473 689 470 716 q 418 679 446 686 q 367 662 391 671 q 323 643 342 653 q 292 624 304 633 q 304 741 304 680 q 303 777 304 759 q 300 814 302 795 l 296 828 q 477 891 383 837 q 467 781 467 852 m 54 387 q 80 452 66 410 q 100 557 94 494 l 117 552 q 427 525 222 525 q 713 557 564 525 q 683 469 693 511 q 669 387 672 428 l 652 391 q 361 414 511 414 l 338 414 q 54 387 192 414 z "},"":{"ha":730,"x_min":68,"x_max":663,"o":"m 378 -3 q 282 37 337 7 l 277 39 q 250 -60 256 -20 l 245 -57 q 161 -19 202 -33 q 79 1 120 -4 q 118 52 96 20 q 165 126 140 83 q 91 247 115 180 q 68 381 68 313 q 78 462 68 420 q 107 543 88 504 q 152 615 125 581 q 209 673 178 649 l 353 767 q 393 752 369 762 q 450 726 418 743 l 458 721 q 475 770 468 747 q 488 814 483 793 q 519 794 501 804 q 560 776 538 785 q 608 761 583 768 q 659 751 633 754 q 616 692 637 723 q 574 629 595 662 q 615 568 598 600 q 642 504 631 536 q 658 440 653 472 q 663 382 663 409 q 633 231 663 286 q 556 118 587 145 q 533 94 541 104 l 378 -3 m 213 667 q 195 626 205 654 q 176 565 185 599 q 160 495 167 532 q 154 429 154 459 q 171 332 154 383 q 228 237 187 281 l 336 447 q 377 530 359 490 q 412 607 395 570 l 407 610 q 213 667 342 647 m 328 163 q 412 133 363 148 q 526 104 461 118 q 539 142 530 115 q 556 204 548 170 q 571 276 565 239 q 578 345 578 314 q 563 439 578 392 q 513 528 547 487 q 460 432 486 481 q 410 335 434 382 q 365 243 386 287 q 328 163 344 199 z "},"":{"ha":800,"x_min":68,"x_max":699,"o":"m 68 704 q 122 714 96 707 q 171 730 149 721 q 210 749 193 739 q 239 766 227 758 q 212 422 212 588 q 215 370 214 393 q 218 329 216 347 q 224 295 220 310 q 237 266 229 279 q 282 214 257 237 q 345 172 308 191 q 434 137 382 153 q 557 106 485 121 q 561 186 559 132 q 562 326 562 241 l 562 350 q 554 527 560 445 q 533 680 549 610 l 528 704 q 582 714 556 707 q 630 730 608 721 q 670 749 652 739 q 699 766 687 758 q 679 580 686 664 q 673 429 673 496 q 674 326 673 373 q 677 235 675 278 q 684 152 680 192 q 695 71 688 112 l 699 60 q 616 41 657 56 q 532 3 575 26 l 528 0 q 542 43 534 20 q 557 92 549 66 l 408 0 q 339 27 380 7 q 257 76 298 46 q 180 147 216 106 q 127 239 145 188 q 98 381 100 304 q 89 554 95 480 q 73 680 83 629 l 68 704 m 404 828 q 319 799 355 820 l 259 765 l 256 777 q 215 857 244 813 q 197 880 205 873 q 131 932 165 910 l 85 962 q 229 1025 177 987 l 233 1018 q 271 939 258 956 q 292 910 286 917 q 353 857 317 883 q 404 828 378 839 z "},"":{"ha":800,"x_min":68,"x_max":699,"o":"m 68 704 q 122 714 96 707 q 171 730 149 721 q 210 749 193 739 q 239 766 227 758 q 212 422 212 588 q 215 370 214 393 q 218 329 216 347 q 224 295 220 310 q 237 266 229 279 q 282 214 257 237 q 345 172 308 191 q 434 137 382 153 q 557 106 485 121 q 561 186 559 132 q 562 326 562 241 l 562 350 q 554 527 560 445 q 533 680 549 610 l 528 704 q 582 714 556 707 q 630 730 608 721 q 670 749 652 739 q 699 766 687 758 q 679 580 686 664 q 673 429 673 496 q 674 326 673 373 q 677 235 675 278 q 684 152 680 192 q 695 71 688 112 l 699 60 q 616 41 657 56 q 532 3 575 26 l 528 0 q 542 43 534 20 q 557 92 549 66 l 408 0 q 339 27 380 7 q 257 76 298 46 q 180 147 216 106 q 127 239 145 188 q 98 381 100 304 q 89 554 95 480 q 73 680 83 629 l 68 704 m 279 828 q 331 857 306 839 q 391 910 366 883 q 413 939 397 917 q 454 1025 425 956 q 598 962 507 987 l 553 932 q 486 880 519 910 q 469 857 479 873 q 428 777 439 813 q 425 765 425 766 l 364 799 q 279 828 328 820 z "},"":{"ha":800,"x_min":68,"x_max":699,"o":"m 68 704 q 122 714 96 707 q 171 730 149 721 q 210 749 193 739 q 239 766 227 758 q 212 422 212 588 q 215 370 214 393 q 218 329 216 347 q 224 295 220 310 q 237 266 229 279 q 282 214 257 237 q 345 172 308 191 q 434 137 382 153 q 557 106 485 121 q 561 186 559 132 q 562 326 562 241 l 562 350 q 554 527 560 445 q 533 680 549 610 l 528 704 q 582 714 556 707 q 630 730 608 721 q 670 749 652 739 q 699 766 687 758 q 679 580 686 664 q 673 429 673 496 q 674 326 673 373 q 677 235 675 278 q 684 152 680 192 q 695 71 688 112 l 699 60 q 616 41 657 56 q 532 3 575 26 l 528 0 q 542 43 534 20 q 557 92 549 66 l 408 0 q 339 27 380 7 q 257 76 298 46 q 180 147 216 106 q 127 239 145 188 q 98 381 100 304 q 89 554 95 480 q 73 680 83 629 l 68 704 m 224 873 q 273 949 256 907 l 276 960 q 361 989 324 968 l 421 1023 l 425 1012 q 465 931 436 976 q 483 909 475 916 q 549 856 515 878 l 595 827 q 451 763 503 802 q 410 850 422 833 q 388 878 393 872 q 353 911 372 895 q 306 884 332 901 q 247 831 284 869 q 224 802 234 819 q 202 763 210 781 q 122 810 175 802 q 224 873 197 846 z "},"":{"ha":800,"x_min":68,"x_max":699,"o":"m 68 704 q 122 714 96 707 q 171 730 149 721 q 210 749 193 739 q 239 766 227 758 q 212 422 212 588 q 215 370 214 393 q 218 329 216 347 q 224 295 220 310 q 237 266 229 279 q 282 214 257 237 q 345 172 308 191 q 434 137 382 153 q 557 106 485 121 q 561 186 559 132 q 562 326 562 241 l 562 350 q 554 527 560 445 q 533 680 549 610 l 528 704 q 582 714 556 707 q 630 730 608 721 q 670 749 652 739 q 699 766 687 758 q 679 580 686 664 q 673 429 673 496 q 674 326 673 373 q 677 235 675 278 q 684 152 680 192 q 695 71 688 112 l 699 60 q 616 41 657 56 q 532 3 575 26 l 528 0 q 542 43 534 20 q 557 92 549 66 l 408 0 q 339 27 380 7 q 257 76 298 46 q 180 147 216 106 q 127 239 145 188 q 98 381 100 304 q 89 554 95 480 q 73 680 83 629 l 68 704 m 582 941 q 584 900 582 922 q 589 850 585 877 q 533 839 561 846 q 482 823 506 832 q 438 804 458 814 q 407 785 419 793 q 420 901 420 840 q 419 938 420 920 q 415 975 418 956 l 411 989 q 593 1052 498 998 q 582 941 582 1013 m 277 939 q 278 898 277 920 q 283 848 280 875 q 228 837 256 844 q 177 821 201 830 q 133 802 153 812 q 102 783 114 791 q 115 899 115 838 q 114 936 115 918 q 110 972 113 954 l 106 987 q 288 1050 193 996 q 277 939 277 1011 z "},"":{"ha":800,"x_min":68,"x_max":699,"o":"m 68 704 q 122 714 96 707 q 171 730 149 721 q 210 749 193 739 q 239 766 227 758 q 212 422 212 588 q 215 370 214 393 q 218 329 216 347 q 224 295 220 310 q 237 266 229 279 q 282 214 257 237 q 345 172 308 191 q 434 137 382 153 q 556 106 485 121 l 557 106 q 558 157 557 132 q 558 208 558 182 l 558 232 q 552 507 557 395 q 533 680 547 618 l 528 704 q 582 714 556 707 q 630 730 608 721 q 670 749 652 739 q 699 766 687 758 q 676 551 684 664 q 669 311 669 437 q 676 10 670 132 q 694 -175 683 -111 l 699 -198 q 616 -217 658 -203 q 528 -258 575 -232 q 547 -96 539 -182 q 557 92 554 -9 l 408 0 q 339 27 380 7 q 257 76 298 46 q 180 147 216 106 q 127 239 145 188 q 98 381 100 304 q 89 554 95 480 q 73 680 83 629 l 68 704 m 279 828 q 331 857 306 839 q 391 910 366 883 q 413 939 397 917 q 454 1025 425 956 q 598 962 507 987 l 553 932 q 486 880 519 910 q 469 857 479 873 q 428 777 439 813 q 425 765 425 766 l 364 799 q 279 828 328 820 z "},"":{"ha":774,"x_min":102,"x_max":707,"o":"m 250 292 q 366 156 284 208 q 562 96 420 121 l 563 97 q 580 137 570 110 q 599 198 590 164 q 615 268 608 231 q 621 335 621 304 q 611 408 621 370 q 580 481 601 446 q 527 548 559 517 q 450 599 494 578 q 332 652 378 631 q 261 682 285 672 l 397 766 q 444 750 417 761 q 498 723 471 739 q 551 690 526 708 q 594 653 576 672 q 677 532 647 596 q 707 385 707 468 l 707 382 q 696 304 703 338 q 680 243 690 271 q 651 187 669 214 q 607 127 634 160 q 566 91 593 112 l 422 0 q 344 27 391 5 q 248 91 298 50 q 256 -40 250 26 q 269 -175 261 -106 l 273 -196 l 273 -198 q 190 -217 231 -203 q 102 -258 149 -232 q 116 -129 110 -203 q 126 36 122 -54 q 132 232 130 127 q 134 456 134 338 q 126 756 133 635 q 109 941 120 878 l 104 964 q 187 984 146 969 q 275 1025 228 998 q 245 558 245 832 l 245 534 q 246 404 245 464 q 250 292 247 343 z "},"":{"ha":800,"x_min":68,"x_max":699,"o":"m 68 704 q 122 714 96 707 q 171 730 149 721 q 210 749 193 739 q 239 766 227 758 q 212 422 212 588 q 215 370 214 393 q 218 329 216 347 q 224 295 220 310 q 237 266 229 279 q 282 214 257 237 q 345 172 308 191 q 434 137 382 153 q 556 106 485 121 l 557 106 q 558 157 557 132 q 558 208 558 182 l 558 232 q 552 507 557 395 q 533 680 547 618 l 528 704 q 582 714 556 707 q 630 730 608 721 q 670 749 652 739 q 699 766 687 758 q 676 551 684 664 q 669 311 669 437 q 676 10 670 132 q 694 -175 683 -111 l 699 -198 q 616 -217 658 -203 q 528 -258 575 -232 q 547 -96 539 -182 q 557 92 554 -9 l 408 0 q 339 27 380 7 q 257 76 298 46 q 180 147 216 106 q 127 239 145 188 q 98 381 100 304 q 89 554 95 480 q 73 680 83 629 l 68 704 m 582 941 q 584 900 582 922 q 589 850 585 877 q 533 839 561 846 q 482 823 506 832 q 438 804 458 814 q 407 785 419 793 q 420 901 420 840 q 419 938 420 920 q 415 975 418 956 l 411 989 q 593 1052 498 998 q 582 941 582 1013 m 277 939 q 278 898 277 920 q 283 848 280 875 q 228 837 256 844 q 177 821 201 830 q 133 802 153 812 q 102 783 114 791 q 115 899 115 838 q 114 936 115 918 q 110 972 113 954 l 106 987 q 288 1050 193 996 q 277 939 277 1011 z "},"":{"ha":865,"x_min":0,"x_max":865,"o":"m 865 62 q 812 52 838 59 q 764 37 786 45 q 724 18 741 28 q 694 0 706 9 q 659 123 684 41 q 596 330 635 205 q 523 335 559 333 q 449 337 487 337 q 429 337 438 337 q 414 336 420 336 q 222 324 296 336 l 216 323 q 158 153 178 216 q 138 68 138 90 l 138 60 q 0 0 43 41 q 99 214 47 94 q 210 483 151 334 q 342 939 317 754 l 345 966 q 516 1025 428 975 q 654 511 537 823 q 865 62 779 173 m 575 397 l 546 490 q 468 721 500 637 q 418 825 435 804 q 273 479 382 772 l 243 399 q 316 393 277 395 q 397 391 354 391 l 411 391 q 575 397 512 391 m 675 1202 q 644 1114 657 1168 q 630 1031 634 1076 l 618 1037 q 453 1065 576 1059 l 434 1065 q 224 1031 325 1065 q 268 1202 261 1119 l 275 1199 q 459 1172 336 1172 l 472 1172 q 675 1202 612 1172 z "},"":{"ha":738,"x_min":68,"x_max":670,"o":"m 83 570 q 143 644 101 610 l 175 670 l 330 766 q 425 727 368 756 q 527 653 479 699 q 611 528 587 595 q 640 385 637 463 q 665 87 644 193 l 670 62 q 587 43 624 57 q 499 0 528 22 q 525 364 525 183 q 525 382 525 373 q 500 500 525 460 q 382 599 458 564 q 182 660 315 631 q 171 601 171 643 q 180 532 171 574 l 83 570 m 356 0 q 233 57 317 14 q 111 155 170 90 q 68 280 68 222 q 68 283 68 281 q 144 416 78 366 q 422 503 255 502 q 183 334 216 427 q 176 296 176 314 q 198 240 176 264 q 296 161 256 181 q 498 94 419 101 l 356 0 m 559 1027 q 527 939 541 993 q 513 856 517 900 l 502 861 q 336 889 459 883 l 317 890 q 107 855 208 890 q 151 1026 144 943 l 159 1023 q 342 996 219 996 l 355 996 q 559 1027 495 996 z "},"":{"ha":865,"x_min":0,"x_max":865,"o":"m 865 62 q 812 52 838 59 q 764 37 786 45 q 724 18 741 28 q 694 0 706 9 q 659 123 684 41 q 596 330 635 205 q 523 335 559 333 q 449 337 487 337 q 429 337 438 337 q 414 336 420 336 q 222 324 296 336 l 216 323 q 158 153 178 216 q 138 68 138 90 l 138 60 q 0 0 43 41 q 99 214 47 94 q 210 483 151 334 q 342 939 317 754 l 345 966 q 516 1025 428 975 q 654 511 537 823 q 865 62 779 173 m 575 397 l 546 490 q 468 721 500 637 q 418 825 435 804 q 273 479 382 772 l 243 399 q 316 393 277 395 q 397 391 354 391 l 411 391 q 575 397 512 391 m 653 1273 q 421 1059 629 1059 q 332 1103 369 1059 l 328 1112 q 245 1271 308 1193 q 448 1182 355 1192 l 465 1181 q 653 1273 568 1192 z "},"":{"ha":738,"x_min":68,"x_max":670,"o":"m 83 570 q 143 644 101 610 l 175 670 l 330 766 q 425 727 368 756 q 527 653 479 699 q 611 528 587 595 q 640 385 637 463 q 665 87 644 193 l 670 62 q 587 43 624 57 q 499 0 528 22 q 525 364 525 183 q 525 382 525 373 q 500 500 525 460 q 382 599 458 564 q 182 660 315 631 q 171 601 171 643 q 180 532 171 574 l 83 570 m 356 0 q 233 57 317 14 q 111 155 170 90 q 68 280 68 222 q 68 283 68 281 q 144 416 78 366 q 422 503 255 502 q 183 334 216 427 q 176 296 176 314 q 198 240 176 264 q 296 161 256 181 q 498 94 419 101 l 356 0 m 534 1026 q 302 812 511 812 q 214 857 250 812 l 209 865 q 127 1024 189 946 q 330 935 237 945 l 347 935 q 534 1026 450 945 z "},"":{"ha":865,"x_min":0,"x_max":865,"o":"m 575 397 l 546 490 q 468 721 500 637 q 418 825 435 804 q 273 479 383 774 l 243 399 q 316 393 277 395 q 397 391 354 391 l 411 391 q 575 397 512 391 m 865 62 q 784 44 821 57 q 723 18 747 31 q 674 -115 675 -53 q 798 -307 674 -195 l 793 -304 q 627 -253 709 -258 l 618 -250 q 553 -127 553 -211 q 690 19 553 -19 q 654 141 677 64 q 596 330 631 218 q 523 335 559 333 q 449 337 487 337 q 429 337 438 337 q 414 336 420 336 q 222 324 296 336 l 216 323 q 158 153 178 216 q 138 68 138 90 l 138 60 q 0 0 43 41 q 99 214 47 94 q 210 483 151 334 q 296 732 264 618 q 342 939 329 845 l 345 966 q 516 1025 428 975 q 654 511 537 823 q 865 62 779 173 z "},"":{"ha":738,"x_min":68,"x_max":670,"o":"m 356 0 q 233 57 317 14 q 111 155 170 90 q 68 280 68 222 l 68 283 q 144 416 78 366 q 422 503 255 502 q 183 334 216 427 q 176 296 176 314 q 198 240 176 264 q 296 161 256 181 q 498 94 419 101 l 356 0 m 83 570 q 143 644 101 610 l 175 670 l 330 766 q 425 727 368 756 q 527 653 479 699 q 611 528 587 595 q 640 385 637 463 q 665 87 645 191 l 670 62 q 587 43 623 57 q 519 13 546 28 q 467 -120 468 -60 l 467 -125 q 591 -316 467 -204 l 587 -314 q 420 -262 503 -268 l 411 -259 q 347 -137 347 -220 q 501 14 347 -22 q 525 364 525 190 l 525 382 q 500 500 525 460 q 382 599 458 564 q 183 661 315 631 l 182 660 q 171 601 171 643 q 180 532 171 574 l 83 570 z "},"":{"ha":886,"x_min":81,"x_max":805,"o":"m 805 328 q 799 311 802 316 q 711 175 758 222 q 655 119 676 139 q 627 95 634 100 l 475 0 q 385 36 437 10 q 281 103 333 62 q 185 198 229 144 q 118 319 141 252 q 91 417 100 370 q 81 512 81 465 q 97 631 81 570 q 141 749 113 692 q 208 852 170 805 q 292 930 247 899 l 443 1027 q 489 1011 462 1022 q 549 982 516 1000 q 620 937 583 964 q 694 874 656 911 q 733 829 715 852 l 598 763 q 536 829 568 802 q 468 876 504 857 q 391 908 432 895 q 300 929 350 920 l 300 928 q 211 749 241 895 q 191 573 191 651 q 199 482 191 530 q 228 386 208 434 q 281 293 248 338 q 361 208 313 247 q 472 140 408 170 q 618 96 536 111 q 682 271 682 152 q 668 374 682 326 l 805 328 m 370 1090 q 422 1119 397 1101 q 482 1172 457 1145 q 504 1200 488 1179 q 545 1287 516 1217 q 689 1223 597 1249 l 644 1194 q 577 1141 610 1172 q 559 1119 570 1135 q 519 1038 530 1075 q 515 1027 515 1027 l 455 1061 q 370 1090 419 1082 z "},"":{"ha":692,"x_min":68,"x_max":624,"o":"m 378 -3 q 282 37 338 7 q 180 111 227 66 q 97 236 121 168 q 68 381 68 307 q 101 531 75 475 q 168 636 127 590 q 209 673 186 656 l 353 767 q 450 726 386 758 q 551 652 497 701 q 595 599 567 637 l 486 525 q 410 608 452 578 q 213 667 361 642 l 212 667 q 170 544 193 630 q 154 429 154 482 q 157 385 154 407 q 208 263 166 326 q 325 165 250 199 q 525 103 395 133 l 526 104 q 536 163 536 121 q 528 232 536 189 l 624 194 q 564 119 606 153 q 533 94 533 94 l 378 -3 m 280 828 q 332 857 307 839 q 392 910 367 883 q 414 939 398 917 q 455 1025 426 956 q 599 962 507 987 l 553 932 q 487 880 519 910 q 469 857 479 873 q 429 777 440 813 q 425 765 425 766 l 365 799 q 280 828 329 820 z "},"":{"ha":886,"x_min":81,"x_max":805,"o":"m 805 328 q 799 311 802 316 q 711 175 758 222 q 655 119 676 139 q 627 95 634 100 l 475 0 q 385 36 437 10 q 281 103 333 62 q 185 198 229 144 q 118 319 141 252 q 91 417 100 370 q 81 512 81 465 q 97 631 81 570 q 141 749 113 692 q 208 852 170 805 q 292 930 247 899 l 443 1027 q 489 1011 462 1022 q 549 982 516 1000 q 620 937 583 964 q 694 874 656 911 q 733 829 715 852 l 598 763 q 536 829 568 802 q 468 876 504 857 q 391 908 432 895 q 300 929 350 920 l 300 928 q 211 749 241 895 q 191 573 191 651 q 199 482 191 530 q 228 386 208 434 q 281 293 248 338 q 361 208 313 247 q 472 140 408 170 q 618 96 536 111 q 682 271 682 152 q 668 374 682 326 l 805 328 m 336 1135 q 385 1211 369 1168 l 389 1222 q 473 1251 437 1230 l 534 1285 l 537 1274 q 578 1193 549 1238 q 595 1171 588 1177 q 662 1118 628 1140 l 707 1088 q 564 1025 616 1063 q 522 1112 534 1095 q 500 1140 506 1134 q 466 1173 485 1157 q 418 1145 444 1163 q 359 1093 397 1131 q 336 1064 347 1080 q 315 1025 322 1043 q 235 1072 288 1063 q 336 1135 309 1108 z "},"":{"ha":692,"x_min":68,"x_max":624,"o":"m 378 -3 q 282 37 338 7 q 180 111 227 66 q 97 236 121 168 q 68 381 68 307 q 101 531 75 475 q 168 636 127 590 q 209 673 186 656 l 353 767 q 450 726 386 758 q 551 652 497 701 q 595 599 567 637 l 486 525 q 410 608 452 578 q 213 667 361 642 l 212 667 q 170 544 193 630 q 154 429 154 482 q 157 385 154 407 q 208 263 166 326 q 325 165 250 199 q 525 103 395 133 l 526 104 q 536 163 536 121 q 528 232 536 189 l 624 194 q 564 119 606 153 q 533 94 533 94 l 378 -3 m 223 873 q 272 949 256 907 l 275 960 q 360 989 323 968 l 420 1023 l 424 1012 q 465 931 435 976 q 482 909 475 916 q 549 856 515 878 l 594 827 q 450 763 503 802 q 409 850 421 833 q 387 878 393 872 q 353 911 372 895 q 305 884 331 901 q 246 831 283 869 q 223 802 233 819 q 201 763 209 781 q 121 810 174 802 q 223 873 196 846 z "},"":{"ha":886,"x_min":81,"x_max":805,"o":"m 805 328 q 799 311 802 316 q 711 175 758 222 q 655 119 676 139 q 627 95 634 100 l 475 0 q 385 36 437 10 q 281 103 333 62 q 185 198 229 144 q 118 319 141 252 q 91 417 100 370 q 81 512 81 465 q 97 631 81 570 q 141 749 113 692 q 208 852 170 805 q 292 930 247 899 l 443 1027 q 489 1011 462 1022 q 549 982 516 1000 q 620 937 583 964 q 694 874 656 911 q 733 829 715 852 l 598 763 q 536 829 568 802 q 468 876 504 857 q 391 908 432 895 q 300 929 350 920 l 300 928 q 211 749 241 895 q 191 573 191 651 q 199 482 191 530 q 228 386 208 434 q 281 293 248 338 q 361 208 313 247 q 472 140 408 170 q 618 96 536 111 q 682 271 682 152 q 668 374 682 326 l 805 328 m 351 1052 q 363 1168 363 1109 q 359 1242 363 1205 l 355 1256 q 536 1319 444 1265 q 526 1208 526 1280 q 532 1117 526 1171 q 439 1095 484 1112 q 351 1052 380 1074 z "},"":{"ha":692,"x_min":68,"x_max":624,"o":"m 378 -3 q 282 37 338 7 q 180 111 227 66 q 97 236 121 168 q 68 381 68 307 q 101 531 75 475 q 168 636 127 590 q 209 673 186 656 l 353 767 q 450 726 386 758 q 551 652 497 701 q 595 599 567 637 l 486 525 q 410 608 452 578 q 213 667 361 642 l 212 667 q 170 544 193 630 q 154 429 154 482 q 157 385 154 407 q 208 263 166 326 q 325 165 250 199 q 525 103 395 133 l 526 104 q 536 163 536 121 q 528 232 536 189 l 624 194 q 564 119 606 153 q 533 94 533 94 l 378 -3 m 264 807 q 277 924 277 864 q 273 997 277 960 l 269 1011 q 450 1074 357 1021 q 439 964 439 1035 q 446 872 439 926 q 353 850 397 867 q 264 807 294 829 z "},"":{"ha":886,"x_min":81,"x_max":805,"o":"m 805 328 q 799 311 802 316 q 711 175 758 222 q 655 119 676 139 q 627 95 634 100 l 475 0 q 385 36 437 10 q 281 103 333 62 q 185 198 229 144 q 118 319 141 252 q 91 417 100 370 q 81 512 81 465 q 97 631 81 570 q 141 749 113 692 q 208 852 170 805 q 292 930 247 899 l 443 1027 q 489 1011 462 1022 q 549 982 516 1000 q 620 937 583 964 q 694 874 656 911 q 733 829 715 852 l 598 763 q 536 829 568 802 q 468 876 504 857 q 391 908 432 895 q 300 929 350 920 l 300 928 q 211 749 241 895 q 191 573 191 651 q 199 482 191 530 q 228 386 208 434 q 281 293 248 338 q 361 208 313 247 q 472 140 408 170 q 618 96 536 111 q 682 271 682 152 q 668 374 682 326 l 805 328 m 571 1173 q 522 1098 538 1140 l 519 1086 q 434 1057 471 1078 l 374 1023 l 370 1035 q 330 1116 359 1071 q 312 1138 319 1131 q 245 1191 279 1168 l 200 1220 q 344 1284 267 1233 l 347 1276 q 385 1197 373 1214 q 407 1168 401 1175 q 441 1136 422 1152 q 489 1163 463 1145 q 548 1215 511 1178 q 571 1244 561 1228 q 593 1284 585 1265 q 673 1236 620 1245 q 571 1173 598 1200 z "},"":{"ha":692,"x_min":68,"x_max":624,"o":"m 378 -3 q 282 37 338 7 q 180 111 227 66 q 97 236 121 168 q 68 381 68 307 q 101 531 75 475 q 168 636 127 590 q 209 673 186 656 l 353 767 q 450 726 386 758 q 551 652 497 701 q 595 599 567 637 l 486 525 q 410 608 452 578 q 213 667 361 642 l 212 667 q 170 544 193 630 q 154 429 154 482 q 157 385 154 407 q 208 263 166 326 q 325 165 250 199 q 525 103 395 133 l 526 104 q 536 163 536 121 q 528 232 536 189 l 624 194 q 564 119 606 153 q 533 94 533 94 l 378 -3 m 493 911 q 444 836 460 878 l 441 825 q 356 795 393 817 l 296 762 l 292 773 q 252 854 281 809 q 234 876 241 869 q 168 929 201 907 l 122 958 q 266 1022 189 971 l 269 1015 q 307 935 295 952 q 329 907 323 913 q 363 874 345 890 q 411 901 385 884 q 470 954 433 916 q 493 983 483 966 q 515 1022 507 1004 q 595 975 542 983 q 493 911 520 939 z "},"":{"ha":935,"x_min":61,"x_max":857,"o":"m 135 0 q 157 196 150 104 q 165 367 165 287 q 157 547 165 459 q 139 716 149 634 l 135 739 q 217 759 176 744 q 306 800 258 773 q 282 616 290 699 q 275 467 275 534 l 275 437 q 288 199 283 283 q 296 95 293 114 l 328 79 q 431 60 381 60 q 627 157 547 60 q 682 245 660 203 q 719 327 705 286 q 738 411 732 368 q 744 502 744 453 q 736 598 744 555 q 712 680 728 642 q 671 749 696 717 q 612 811 646 781 q 510 871 570 848 q 373 894 450 894 q 298 885 338 894 q 218 861 258 877 q 137 823 177 845 q 61 772 97 800 l 106 950 l 216 994 q 311 1017 267 1008 q 390 1025 354 1025 q 454 1020 419 1025 q 528 1002 488 1015 q 611 964 568 988 q 701 901 654 939 q 761 836 732 875 q 810 745 789 796 q 844 633 831 694 q 857 501 857 572 q 841 364 857 427 q 802 248 826 300 q 746 156 777 196 q 682 90 714 116 q 571 23 627 45 q 452 0 514 1 l 306 62 q 245 51 271 58 q 199 35 219 44 q 163 17 178 26 q 135 0 148 8 m 568 1188 q 519 1113 535 1155 l 515 1101 q 431 1072 467 1093 l 370 1038 l 367 1050 q 326 1131 355 1086 q 309 1153 316 1146 q 242 1206 276 1183 l 197 1235 q 340 1299 263 1248 l 344 1291 q 382 1212 370 1229 q 404 1183 398 1190 q 438 1151 419 1166 q 486 1178 460 1160 q 545 1230 507 1193 q 568 1259 557 1243 q 589 1299 582 1280 q 669 1251 616 1260 q 568 1188 595 1215 z "},"":{"ha":953,"x_min":68,"x_max":987,"o":"m 530 463 q 410 610 496 555 q 213 670 355 646 l 212 669 q 170 547 193 633 q 154 431 154 486 q 157 387 154 410 q 208 266 166 330 q 325 168 248 203 q 516 108 392 136 q 532 422 531 248 q 530 463 532 443 m 673 1025 q 644 569 644 821 q 645 496 644 544 q 669 83 649 208 l 673 60 q 507 3 591 51 l 503 0 q 514 85 509 41 l 378 0 q 282 39 338 10 q 180 113 218 73 q 97 239 126 172 q 68 381 68 300 q 68 384 68 384 q 101 534 71 463 q 168 639 122 584 q 209 675 182 656 l 353 766 q 450 728 392 759 q 528 675 487 709 q 507 941 522 804 l 504 954 l 503 962 l 503 964 q 669 1022 584 974 l 673 1025 m 668 828 q 720 857 694 839 q 780 910 755 883 q 802 939 786 917 q 843 1025 814 956 q 987 962 895 987 l 941 932 q 875 880 907 910 q 857 857 867 873 q 817 777 828 813 q 813 765 813 766 l 753 799 q 668 828 717 820 z "},"":{"ha":935,"x_min":20,"x_max":857,"o":"m 135 0 q 157 196 150 104 q 165 367 165 287 q 165 395 165 381 q 164 421 165 408 q 20 409 57 417 q 37 449 29 424 q 49 509 45 475 q 96 499 71 502 q 160 496 121 497 q 151 608 157 553 q 139 716 146 663 l 135 739 q 217 759 176 744 q 306 800 258 773 q 284 632 292 708 q 275 492 276 555 q 328 491 304 492 q 375 490 351 490 q 488 495 437 490 q 581 509 538 500 l 580 506 q 553 409 558 462 l 543 412 q 314 425 492 425 q 295 425 304 425 q 276 424 286 425 q 296 95 290 130 l 328 79 q 431 60 381 60 q 627 157 547 60 q 682 245 660 203 q 719 327 705 286 q 738 411 732 368 q 744 502 744 453 q 736 598 744 555 q 712 680 728 642 q 671 749 696 717 q 612 811 646 781 q 510 871 570 848 q 373 894 450 894 q 298 885 338 894 q 218 861 258 877 q 137 823 177 845 q 61 772 97 800 l 106 950 l 216 994 q 311 1017 267 1008 q 390 1025 354 1025 q 454 1020 419 1025 q 528 1002 488 1015 q 611 964 568 988 q 701 901 654 939 q 761 836 732 875 q 810 745 789 796 q 844 633 831 694 q 857 501 857 572 q 842 365 857 428 q 802 250 827 302 q 746 157 778 197 q 682 90 715 117 q 452 0 574 2 l 306 62 q 245 51 271 58 q 199 35 219 44 q 163 17 178 26 q 135 0 148 8 z "},"":{"ha":774,"x_min":68,"x_max":746,"o":"m 530 463 q 410 610 496 555 q 213 670 355 646 l 212 669 q 170 547 193 633 q 154 431 154 486 q 157 387 154 410 q 208 266 166 330 q 325 168 248 203 q 516 108 393 136 q 532 422 531 248 q 530 463 532 443 m 511 901 l 507 941 l 504 954 l 503 962 l 503 964 q 669 1022 584 974 l 673 1025 q 659 907 665 968 q 746 918 715 911 l 745 915 q 718 818 723 871 l 707 821 q 653 827 703 824 q 644 569 644 705 q 645 496 644 544 q 669 83 649 208 l 673 60 q 507 3 591 51 l 503 0 q 514 85 509 41 l 378 0 q 282 39 338 10 q 180 113 219 72 q 97 239 126 172 q 68 381 68 300 l 68 384 q 101 534 71 463 q 168 639 122 584 q 209 675 182 656 l 353 766 q 450 728 391 759 q 528 675 487 709 q 517 834 524 753 l 515 834 q 270 818 296 831 q 290 869 281 836 q 299 918 296 891 l 310 914 q 511 901 342 904 z "},"":{"ha":718,"x_min":102,"x_max":684,"o":"m 353 28 q 102 0 237 28 q 124 213 117 100 q 131 454 131 326 q 124 760 131 637 q 106 941 117 882 l 102 964 q 184 984 143 969 q 273 1025 225 998 q 356 1000 315 1010 q 449 990 397 990 q 644 1025 538 990 q 589 854 594 935 q 378 922 463 861 q 311 976 338 954 q 271 1011 284 998 q 242 563 242 825 l 242 551 q 562 627 429 560 q 535 557 549 602 q 517 456 522 513 l 498 462 q 270 485 421 485 l 243 485 q 265 98 245 207 q 297 93 286 93 q 684 171 530 93 q 658 107 671 147 q 638 0 645 66 l 621 5 q 353 28 547 28 m 591 1202 q 559 1114 572 1168 q 545 1031 549 1076 l 534 1037 q 368 1065 491 1059 l 349 1065 q 139 1031 240 1065 q 183 1202 176 1119 l 191 1199 q 374 1172 251 1172 l 387 1172 q 591 1202 527 1172 z "},"":{"ha":707,"x_min":68,"x_max":640,"o":"m 378 -3 q 282 37 338 7 q 180 111 226 67 q 97 236 121 168 q 68 378 74 292 l 68 381 q 101 531 68 454 q 168 636 126 590 q 209 673 186 655 l 351 766 q 474 709 387 754 q 596 612 537 677 q 640 486 640 544 q 640 483 640 485 q 564 350 629 400 q 285 263 452 264 q 534 429 495 335 q 542 468 542 449 q 542 469 542 469 q 542 471 542 470 q 518 526 542 499 q 411 605 481 570 q 217 671 292 664 q 170 544 191 629 q 154 429 154 477 q 157 385 154 406 q 208 263 167 324 q 325 165 250 201 q 525 103 390 134 l 526 104 q 536 163 536 121 q 528 232 536 189 l 624 194 q 564 119 606 153 q 533 94 533 94 l 378 -3 m 558 1027 q 526 939 540 993 q 513 856 517 900 l 501 861 q 336 889 458 883 l 317 890 q 106 855 208 890 q 151 1026 144 943 l 158 1023 q 342 996 218 996 l 355 996 q 558 1027 494 996 z "},"":{"ha":718,"x_min":102,"x_max":684,"o":"m 353 28 q 102 0 237 28 q 124 213 117 100 q 131 454 131 326 q 124 760 131 637 q 106 941 117 882 l 102 964 q 184 984 143 969 q 273 1025 225 998 q 356 1000 315 1010 q 449 990 397 990 q 644 1025 538 990 q 589 854 594 935 q 378 922 463 861 q 311 976 338 954 q 271 1011 284 998 q 242 563 242 825 l 242 551 q 562 627 429 560 q 535 557 549 602 q 517 456 522 513 l 498 462 q 270 485 421 485 l 243 485 q 265 98 245 207 q 297 93 286 93 q 684 171 530 93 q 658 107 671 147 q 638 0 645 66 l 621 5 q 353 28 547 28 m 653 1273 q 421 1059 629 1059 q 332 1103 369 1059 l 328 1112 q 245 1271 308 1193 q 448 1182 355 1192 l 465 1181 q 653 1273 568 1192 z "},"":{"ha":707,"x_min":68,"x_max":640,"o":"m 378 -3 q 282 37 338 7 q 180 111 226 67 q 97 236 121 168 q 68 378 74 292 l 68 381 q 101 531 68 454 q 168 636 126 590 q 209 673 186 655 l 351 766 q 474 709 387 754 q 596 612 537 677 q 640 486 640 544 q 640 483 640 485 q 564 350 629 400 q 285 263 452 264 q 534 429 495 335 q 542 468 542 449 q 542 469 542 469 q 542 471 542 470 q 518 526 542 499 q 411 605 481 570 q 217 671 292 664 q 170 544 191 629 q 154 429 154 477 q 157 385 154 406 q 208 263 167 324 q 325 165 250 201 q 525 103 390 134 l 526 104 q 536 163 536 121 q 528 232 536 189 l 624 194 q 564 119 606 153 q 533 94 533 94 l 378 -3 m 536 1026 q 304 812 512 812 q 215 857 252 812 l 210 865 q 128 1024 191 946 q 331 935 238 945 l 348 935 q 536 1026 451 945 z "},"":{"ha":718,"x_min":102,"x_max":684,"o":"m 353 28 q 102 0 237 28 q 124 213 117 100 q 131 454 131 326 q 124 760 131 637 q 106 941 117 882 l 102 964 q 184 984 143 969 q 273 1025 225 998 q 356 1000 315 1010 q 449 990 397 990 q 644 1025 538 990 q 589 854 594 935 q 378 922 463 861 q 311 976 338 954 q 271 1011 284 998 q 242 563 242 825 l 242 551 q 562 627 429 560 q 535 557 549 602 q 517 456 522 513 l 498 462 q 270 485 421 485 l 243 485 q 265 98 245 207 q 297 93 286 93 q 684 171 530 93 q 658 107 671 147 q 638 0 645 66 l 621 5 q 353 28 547 28 m 351 1052 q 363 1168 363 1109 q 359 1242 363 1205 l 355 1256 q 536 1319 444 1265 q 526 1208 526 1280 q 532 1117 526 1171 q 439 1095 484 1112 q 351 1052 380 1074 z "},"":{"ha":707,"x_min":68,"x_max":640,"o":"m 378 -3 q 282 37 338 7 q 180 111 226 67 q 97 236 121 168 q 68 378 74 292 l 68 381 q 101 531 68 454 q 168 636 126 590 q 209 673 186 655 l 351 766 q 474 709 387 754 q 596 612 537 677 q 640 486 640 544 q 640 483 640 485 q 564 350 629 400 q 285 263 452 264 q 534 429 495 335 q 542 468 542 449 q 542 469 542 469 q 542 471 542 470 q 518 526 542 499 q 411 605 481 570 q 217 671 292 664 q 170 544 191 629 q 154 429 154 477 q 157 385 154 406 q 208 263 167 324 q 325 165 250 201 q 525 103 390 134 l 526 104 q 536 163 536 121 q 528 232 536 189 l 624 194 q 564 119 606 153 q 533 94 533 94 l 378 -3 m 264 807 q 277 924 277 864 q 273 997 277 960 l 269 1011 q 450 1074 357 1021 q 439 964 439 1035 q 446 872 439 926 q 353 850 397 867 q 264 807 294 829 z "},"":{"ha":718,"x_min":102,"x_max":696,"o":"m 353 28 q 102 0 237 28 q 124 213 117 100 q 131 454 131 326 q 124 760 131 638 q 106 941 117 882 l 102 964 q 184 983 143 969 q 268 1022 225 998 l 273 1025 q 356 999 315 1008 q 449 990 397 990 q 643 1025 538 990 q 589 854 594 935 q 378 922 463 861 q 311 976 338 954 q 271 1011 284 998 q 242 563 242 825 l 242 551 q 562 627 429 560 q 535 557 549 602 q 517 456 522 513 l 498 462 q 270 485 421 485 l 243 485 q 265 98 245 207 q 297 93 286 93 q 684 171 530 93 q 658 107 671 147 q 638 0 645 66 l 620 5 q 572 -125 574 -62 q 696 -317 572 -205 l 692 -315 q 526 -263 607 -268 l 516 -260 q 452 -138 452 -221 q 597 12 452 -26 q 353 28 519 28 z "},"":{"ha":707,"x_min":68,"x_max":640,"o":"m 334 12 q 282 37 311 22 q 180 111 226 67 q 97 236 121 168 q 68 378 74 292 l 68 381 q 101 531 68 453 q 168 636 126 590 q 209 673 186 655 l 351 766 q 474 709 387 754 q 596 612 537 677 q 640 486 640 544 l 640 483 q 564 350 629 400 q 285 263 452 264 q 534 429 495 335 q 542 468 542 449 l 542 469 l 542 471 q 518 526 542 499 q 411 605 481 570 q 217 671 292 664 q 170 544 191 629 q 154 429 154 477 q 157 385 154 406 q 208 263 167 324 q 325 165 250 201 q 525 103 390 134 l 526 104 q 536 163 536 121 q 528 232 536 189 l 624 194 q 564 119 606 153 q 533 94 533 94 l 386 2 q 349 -108 350 -57 l 349 -113 q 473 -304 349 -192 l 469 -302 q 302 -250 385 -256 l 293 -247 q 229 -125 229 -208 q 334 12 229 -29 z "},"":{"ha":718,"x_min":102,"x_max":684,"o":"m 353 28 q 102 0 237 28 q 124 213 117 100 q 131 454 131 326 q 124 760 131 637 q 106 941 117 882 l 102 964 q 184 984 143 969 q 273 1025 225 998 q 356 1000 315 1010 q 449 990 397 990 q 644 1025 538 990 q 589 854 594 935 q 378 922 463 861 q 311 976 338 954 q 271 1011 284 998 q 242 563 242 825 l 242 551 q 562 627 429 560 q 535 557 549 602 q 517 456 522 513 l 498 462 q 270 485 421 485 l 243 485 q 265 98 245 207 q 297 93 286 93 q 684 171 530 93 q 658 107 671 147 q 638 0 645 66 l 621 5 q 353 28 547 28 m 571 1173 q 522 1098 538 1140 l 519 1086 q 434 1057 471 1078 l 374 1023 l 370 1035 q 330 1116 359 1071 q 312 1138 319 1131 q 245 1191 279 1168 l 200 1220 q 344 1284 267 1233 l 347 1276 q 385 1197 373 1214 q 407 1168 401 1175 q 441 1136 422 1152 q 489 1163 463 1145 q 548 1215 511 1178 q 571 1244 561 1228 q 593 1284 585 1265 q 673 1236 620 1245 q 571 1173 598 1200 z "},"":{"ha":707,"x_min":68,"x_max":640,"o":"m 378 -3 q 282 37 338 7 q 180 111 226 67 q 97 236 121 168 q 68 378 74 292 l 68 381 q 101 531 68 454 q 168 636 126 590 q 209 673 186 655 l 351 766 q 474 709 387 754 q 596 612 537 677 q 640 486 640 544 q 640 483 640 485 q 564 350 629 400 q 285 263 452 264 q 534 429 495 335 q 542 468 542 449 q 542 469 542 469 q 542 471 542 470 q 518 526 542 499 q 411 605 481 570 q 217 671 292 664 q 170 544 191 629 q 154 429 154 477 q 157 385 154 406 q 208 263 167 324 q 325 165 250 201 q 525 103 390 134 l 526 104 q 536 163 536 121 q 528 232 536 189 l 624 194 q 564 119 606 153 q 533 94 533 94 l 378 -3 m 492 911 q 444 836 460 878 l 440 825 q 355 795 392 817 l 295 762 l 292 773 q 251 854 280 809 q 233 876 241 869 q 167 929 201 907 l 121 958 q 265 1022 188 971 l 269 1015 q 307 935 294 952 q 328 907 323 913 q 363 874 344 890 q 410 901 385 884 q 469 954 432 916 q 492 983 482 966 q 514 1022 507 1004 q 594 975 541 983 q 492 911 519 939 z "},"":{"ha":879,"x_min":81,"x_max":777,"o":"m 623 96 q 633 183 629 142 q 636 260 636 224 l 636 279 q 630 378 635 331 q 611 470 625 425 l 606 486 q 688 505 647 490 q 777 546 730 519 q 734 299 734 444 l 734 282 q 770 79 734 155 l 777 62 q 721 52 747 59 q 673 36 695 45 q 634 17 651 26 q 606 0 616 8 q 614 47 610 24 q 622 92 618 71 l 475 0 q 418 20 450 7 q 352 54 386 34 q 282 101 317 75 q 216 161 248 128 q 159 234 185 195 q 118 319 134 273 q 81 512 81 423 q 97 631 81 570 q 141 749 113 692 q 208 852 170 805 q 292 930 247 899 l 443 1027 q 488 1011 461 1022 q 549 982 515 1000 q 619 938 582 964 q 694 874 656 911 q 733 829 715 852 l 598 763 q 536 829 568 802 q 468 876 504 857 q 391 907 432 895 q 300 929 350 920 l 300 928 q 211 749 241 895 q 191 573 191 651 q 201 472 191 525 q 236 366 211 418 q 302 265 260 314 q 408 176 344 216 q 623 96 503 115 m 335 1135 q 384 1211 368 1168 l 387 1222 q 472 1251 435 1230 l 532 1285 l 536 1274 q 576 1193 547 1238 q 594 1171 587 1177 q 661 1118 627 1140 l 706 1088 q 562 1025 614 1063 q 521 1112 533 1095 q 499 1140 505 1134 q 465 1173 484 1157 q 417 1145 443 1163 q 358 1093 395 1131 q 335 1064 345 1080 q 313 1025 321 1043 q 233 1072 286 1063 q 335 1135 308 1108 z "},"":{"ha":782,"x_min":68,"x_max":681,"o":"m 660 56 q 567 -79 634 -2 q 484 -157 522 -131 l 333 -254 q 260 -225 269 -230 q 169 -155 224 -205 q 130 -110 147 -133 l 252 -49 l 312 -104 q 460 -156 367 -156 q 475 -156 467 -156 l 476 -155 q 544 20 519 -121 q 554 113 553 75 q 556 306 556 256 q 556 326 556 317 q 555 380 555 367 q 524 500 555 459 q 407 598 481 564 q 212 666 336 631 q 162 538 174 601 q 151 428 151 478 q 157 376 151 404 q 207 254 170 307 q 321 159 245 196 q 522 94 394 124 l 378 0 q 281 41 347 8 q 180 115 235 65 q 96 244 120 173 q 68 388 68 320 q 98 536 68 462 q 175 649 130 616 l 199 669 l 353 766 q 450 726 400 753 q 551 652 494 701 q 662 529 637 579 l 664 385 q 675 158 669 206 q 681 109 681 110 l 660 56 m 224 873 q 273 949 256 907 l 276 960 q 361 989 324 968 l 421 1023 l 425 1012 q 465 931 436 976 q 483 909 475 916 q 549 856 515 878 l 595 827 q 451 763 503 802 q 410 850 422 833 q 388 878 393 872 q 353 911 372 895 q 306 884 332 901 q 247 831 284 869 q 224 802 234 819 q 202 763 210 781 q 122 810 175 802 q 224 873 197 846 z "},"":{"ha":879,"x_min":81,"x_max":777,"o":"m 623 96 q 633 183 629 142 q 636 260 636 224 l 636 279 q 630 378 635 331 q 611 470 625 425 l 606 486 q 688 505 647 490 q 777 546 730 519 q 734 299 734 444 l 734 282 q 770 79 734 155 l 777 62 q 721 52 747 59 q 673 36 695 45 q 634 17 651 26 q 606 0 616 8 q 614 47 610 24 q 622 92 618 71 l 475 0 q 418 20 450 7 q 352 54 386 34 q 282 101 317 75 q 216 161 248 128 q 159 234 185 195 q 118 319 134 273 q 81 512 81 423 q 97 631 81 570 q 141 749 113 692 q 208 852 170 805 q 292 930 247 899 l 443 1027 q 488 1011 461 1022 q 549 982 515 1000 q 619 938 582 964 q 694 874 656 911 q 733 829 715 852 l 598 763 q 536 829 568 802 q 468 876 504 857 q 391 907 432 895 q 300 929 350 920 l 300 928 q 211 749 241 895 q 191 573 191 651 q 201 472 191 525 q 236 366 211 418 q 302 265 260 314 q 408 176 344 216 q 623 96 503 115 m 653 1273 q 421 1059 629 1059 q 332 1103 369 1059 l 328 1112 q 245 1271 308 1193 q 448 1182 355 1192 l 465 1181 q 653 1273 568 1192 z "},"":{"ha":782,"x_min":68,"x_max":681,"o":"m 660 56 q 567 -79 634 -2 q 484 -157 522 -131 l 333 -254 q 260 -225 269 -230 q 169 -155 224 -205 q 130 -110 147 -133 l 252 -49 l 312 -104 q 460 -156 367 -156 q 475 -156 467 -156 l 476 -155 q 544 20 519 -121 q 554 113 553 75 q 556 306 556 256 q 556 326 556 317 q 555 380 555 367 q 524 500 555 459 q 407 598 481 564 q 212 666 336 631 q 162 538 174 601 q 151 428 151 478 q 157 376 151 404 q 207 254 170 307 q 321 159 245 196 q 522 94 394 124 l 378 0 q 281 41 347 8 q 180 115 235 65 q 96 244 120 173 q 68 388 68 320 q 98 536 68 462 q 175 649 130 616 l 199 669 l 353 766 q 450 726 400 753 q 551 652 494 701 q 662 529 637 579 l 664 385 q 675 158 669 206 q 681 109 681 110 l 660 56 m 534 1026 q 302 812 511 812 q 214 857 250 812 l 209 865 q 127 1024 189 946 q 330 935 237 945 l 347 935 q 534 1026 450 945 z "},"":{"ha":879,"x_min":81,"x_max":777,"o":"m 623 96 q 633 183 629 142 q 636 260 636 224 l 636 279 q 630 378 635 331 q 611 470 625 425 l 606 486 q 688 505 647 490 q 777 546 730 519 q 734 299 734 444 l 734 282 q 770 79 734 155 l 777 62 q 721 52 747 59 q 673 36 695 45 q 634 17 651 26 q 606 0 616 8 q 614 47 610 24 q 622 92 618 71 l 475 0 q 418 20 450 7 q 352 54 386 34 q 282 101 317 75 q 216 161 248 128 q 159 234 185 195 q 118 319 134 273 q 81 512 81 423 q 97 631 81 570 q 141 749 113 692 q 208 852 170 805 q 292 930 247 899 l 443 1027 q 488 1011 461 1022 q 549 982 515 1000 q 619 938 582 964 q 694 874 656 911 q 733 829 715 852 l 598 763 q 536 829 568 802 q 468 876 504 857 q 391 907 432 895 q 300 929 350 920 l 300 928 q 211 749 241 895 q 191 573 191 651 q 201 472 191 525 q 236 366 211 418 q 302 265 260 314 q 408 176 344 216 q 623 96 503 115 m 350 1052 q 363 1168 363 1109 q 358 1242 363 1205 l 354 1256 q 536 1319 443 1265 q 525 1208 525 1280 q 532 1117 525 1171 q 438 1095 483 1112 q 350 1052 379 1074 z "},"":{"ha":782,"x_min":68,"x_max":681,"o":"m 660 56 q 567 -79 634 -2 q 484 -157 522 -131 l 333 -254 q 260 -225 269 -230 q 169 -155 224 -205 q 130 -110 147 -133 l 252 -49 l 312 -104 q 460 -156 367 -156 q 475 -156 467 -156 l 476 -155 q 544 20 519 -121 q 554 113 553 75 q 556 306 556 256 q 556 326 556 317 q 555 380 555 367 q 524 500 555 459 q 407 598 481 564 q 212 666 336 631 q 162 538 174 601 q 151 428 151 478 q 157 376 151 404 q 207 254 170 307 q 321 159 245 196 q 522 94 394 124 l 378 0 q 281 41 347 8 q 180 115 235 65 q 96 244 120 173 q 68 388 68 320 q 98 536 68 462 q 175 649 130 616 l 199 669 l 353 766 q 450 726 400 753 q 551 652 494 701 q 662 529 637 579 l 664 385 q 675 158 669 206 q 681 109 681 110 l 660 56 m 264 807 q 277 924 277 864 q 273 997 277 960 l 269 1011 q 450 1074 357 1021 q 439 964 439 1035 q 446 872 439 926 q 353 850 397 867 q 264 807 294 829 z "},"":{"ha":879,"x_min":81,"x_max":777,"o":"m 623 96 q 633 183 629 142 q 636 260 636 224 l 636 279 q 630 378 635 331 q 611 470 625 425 l 606 486 q 688 505 647 490 q 777 546 730 519 q 734 299 734 444 l 734 282 q 770 79 734 155 l 777 62 q 721 52 747 59 q 673 36 695 45 q 634 17 651 26 q 606 0 616 8 q 614 47 610 24 q 622 92 618 71 l 475 0 q 418 20 450 7 q 352 54 386 34 q 282 101 317 75 q 216 161 248 128 q 159 234 185 195 q 118 319 134 273 q 81 512 81 423 q 97 631 81 570 q 141 749 113 692 q 208 852 170 805 q 292 930 247 899 l 443 1027 q 488 1011 461 1022 q 549 982 515 1000 q 619 938 582 964 q 694 874 656 911 q 733 829 715 852 l 598 763 q 536 829 568 802 q 468 876 504 857 q 391 907 432 895 q 300 929 350 920 l 300 928 q 211 749 241 895 q 191 573 191 651 q 201 472 191 525 q 236 366 211 418 q 302 265 260 314 q 408 176 344 216 q 623 96 503 115 m 200 -199 q 252 -170 227 -189 q 312 -117 287 -144 q 334 -89 318 -111 q 375 -2 346 -72 q 519 -66 427 -41 l 473 -95 q 407 -148 439 -117 q 389 -170 399 -155 q 349 -251 360 -214 q 345 -262 345 -262 l 285 -229 q 200 -199 249 -208 z "},"":{"ha":782,"x_min":68,"x_max":681,"o":"m 660 56 q 567 -79 634 -2 q 484 -157 522 -131 l 333 -254 q 260 -225 269 -230 q 169 -155 224 -205 q 130 -110 147 -133 l 252 -49 l 312 -104 q 460 -156 367 -156 q 475 -156 467 -156 l 476 -155 q 544 20 519 -121 q 554 113 553 75 q 556 306 556 256 q 556 326 556 317 q 555 380 555 367 q 524 500 555 459 q 407 598 481 564 q 212 666 336 631 q 162 538 174 601 q 151 428 151 478 q 157 376 151 404 q 207 254 170 307 q 321 159 245 196 q 522 94 394 124 l 378 0 q 281 41 347 8 q 180 115 235 65 q 96 244 120 173 q 68 388 68 320 q 98 536 68 462 q 175 649 130 616 l 199 669 l 353 766 q 450 726 400 753 q 551 652 494 701 q 662 529 637 579 l 664 385 q 675 158 669 206 q 681 109 681 110 l 660 56 m 600 959 q 548 930 573 948 q 488 877 513 904 q 466 848 482 870 q 425 762 454 831 q 281 825 372 800 l 326 854 q 393 907 360 877 q 410 930 400 914 q 451 1010 439 974 q 454 1022 454 1021 l 515 988 q 600 959 551 967 z "},"":{"ha":889,"x_min":102,"x_max":787,"o":"m 102 0 q 131 456 131 202 q 130 529 131 492 q 106 941 125 827 l 102 964 q 268 1022 184 974 l 273 1025 q 242 570 243 837 q 425 559 329 559 q 437 559 431 559 q 644 573 582 559 q 621 941 639 828 l 616 964 q 783 1022 699 974 l 787 1025 q 757 558 757 833 q 757 534 757 547 q 782 87 757 208 l 787 62 q 705 43 741 57 q 616 0 646 22 q 646 463 646 205 q 646 486 646 474 q 488 495 580 495 q 439 494 463 495 q 243 484 276 490 q 267 87 245 193 l 273 62 q 190 43 227 57 q 102 0 131 22 m 335 1135 q 384 1211 368 1168 l 387 1222 q 472 1251 435 1230 l 532 1285 l 536 1274 q 576 1193 547 1238 q 594 1171 587 1177 q 661 1118 627 1140 l 706 1088 q 562 1025 614 1063 q 521 1112 533 1095 q 499 1140 505 1134 q 465 1173 484 1157 q 417 1145 443 1163 q 358 1093 395 1131 q 335 1064 345 1080 q 313 1025 321 1043 q 233 1072 286 1063 q 335 1135 308 1108 z "},"":{"ha":800,"x_min":-28,"x_max":732,"o":"m 102 0 q 124 216 117 102 q 131 456 131 329 q 124 756 130 635 q 106 941 117 878 l 102 964 q 184 984 142 969 q 268 1022 225 998 l 273 1025 q 254 862 261 949 q 243 674 246 775 l 392 766 q 436 751 411 762 q 488 726 460 741 q 543 690 515 711 q 596 645 571 670 q 641 591 621 621 q 673 528 661 562 q 702 385 700 463 q 711 212 705 286 q 727 87 718 138 l 732 62 q 678 52 704 59 q 630 36 652 45 q 590 18 608 27 q 562 0 572 8 q 588 344 588 178 q 586 396 587 373 q 582 438 585 419 q 575 472 580 456 q 563 500 571 487 q 518 553 543 530 q 455 594 492 576 q 367 629 418 613 q 244 660 315 645 l 243 660 q 242 609 243 635 q 242 558 242 584 l 242 534 q 248 260 243 371 q 267 87 254 149 l 273 62 q 217 52 243 59 q 169 36 191 45 q 130 18 147 27 q 102 0 113 8 m 74 1137 q 123 1213 106 1171 l 126 1224 q 211 1253 174 1232 l 271 1287 l 275 1276 q 315 1195 286 1240 q 333 1173 326 1179 q 399 1120 366 1142 l 445 1090 q 301 1027 353 1065 q 260 1114 272 1097 q 238 1142 243 1136 q 203 1175 222 1159 q 156 1147 182 1165 q 97 1095 134 1133 q 74 1066 84 1082 q 52 1027 60 1045 q -28 1074 25 1065 q 74 1137 47 1110 z "},"":{"ha":889,"x_min":42,"x_max":836,"o":"m 102 0 q 124 215 117 102 q 131 456 131 328 q 127 648 131 561 q 120 802 124 736 q 42 793 50 799 q 59 834 52 808 q 71 893 67 859 l 82 890 l 113 885 q 110 915 112 901 q 106 941 108 929 l 102 964 q 184 984 143 969 q 273 1025 225 998 q 263 954 267 990 q 255 878 258 918 l 444 874 q 543 876 497 875 q 629 878 589 876 q 621 941 625 914 l 616 964 q 699 984 658 969 q 787 1025 740 998 q 778 957 782 992 q 770 884 774 922 q 808 888 792 886 q 836 893 825 890 q 808 793 812 846 l 797 797 l 764 800 q 759 684 760 744 q 757 558 757 624 l 757 534 q 763 259 758 370 q 782 87 768 148 l 787 62 q 732 52 758 59 q 684 36 706 45 q 645 18 662 27 q 616 0 627 8 q 638 218 631 103 q 646 463 646 334 l 646 486 q 573 493 612 491 q 488 495 534 495 q 323 491 385 495 q 243 484 261 487 q 250 238 245 337 q 267 87 256 140 l 273 62 q 217 52 243 59 q 169 36 191 45 q 130 18 147 27 q 102 0 113 8 m 250 805 q 244 692 246 750 q 242 570 242 633 q 425 559 328 559 l 437 559 q 644 573 581 559 q 641 699 643 641 q 635 804 638 756 l 448 808 q 340 807 390 807 q 250 805 291 806 z "},"":{"ha":800,"x_min":16,"x_max":732,"o":"m 102 0 q 124 216 117 102 q 131 456 131 329 q 127 676 131 580 q 117 842 123 773 q 16 828 35 837 q 34 868 26 843 q 45 928 41 894 l 56 924 q 109 917 71 920 q 108 930 109 924 q 106 941 107 936 l 102 964 q 184 984 142 969 q 268 1022 225 998 l 273 1025 q 264 969 268 998 q 258 911 261 941 q 492 928 428 914 l 491 925 q 465 828 469 881 l 454 831 q 252 846 443 838 q 247 763 249 806 q 243 674 245 720 l 392 766 q 436 751 411 762 q 488 726 460 741 q 543 690 515 711 q 596 645 571 670 q 641 591 621 621 q 673 528 661 562 q 702 385 699 463 q 711 212 705 286 q 727 87 718 138 l 732 62 q 679 52 705 59 q 631 37 653 45 q 591 18 608 28 q 562 0 573 9 q 588 344 588 178 q 586 396 587 373 q 582 438 585 419 q 575 472 580 456 q 563 500 571 487 q 518 553 543 530 q 455 594 492 576 q 367 629 418 613 q 244 660 315 645 l 243 660 q 242 609 243 635 q 242 558 242 584 l 242 534 q 248 260 243 371 q 267 87 254 149 l 273 62 q 217 52 243 59 q 169 36 191 45 q 130 18 147 27 q 102 0 113 8 z "},"":{"ha":443,"x_min":-32,"x_max":479,"o":"m 135 0 q 164 456 164 203 q 163 529 164 493 q 139 941 158 826 l 135 964 q 301 1022 218 974 l 306 1025 q 275 558 275 832 q 275 534 275 547 q 300 87 275 209 l 306 62 q 223 43 260 57 q 135 0 164 22 m -32 1034 q -13 1063 -21 1051 q 33 1209 33 1134 l 33 1222 l 35 1229 q 87 1253 54 1253 q 203 1181 134 1253 q 300 1141 242 1141 q 479 1241 342 1143 l 456 1201 q 420 1068 420 1135 l 421 1053 l 418 1047 q 369 1026 395 1026 q 252 1099 320 1026 q 165 1137 216 1137 l 158 1137 q -32 1034 112 1137 z "},"":{"ha":443,"x_min":-33,"x_max":478,"o":"m 142 0 q 161 186 155 102 q 168 338 168 270 q 166 440 168 393 q 163 531 165 488 q 156 614 160 574 q 145 695 151 654 l 142 706 q 224 725 183 711 q 308 764 265 740 l 313 766 q 279 440 279 649 l 279 416 q 307 87 279 226 l 313 62 q 257 52 283 59 q 209 36 231 45 q 170 18 187 27 q 142 0 153 8 m -33 806 q -14 835 -22 823 q 32 981 32 905 l 31 994 l 33 1000 q 86 1025 52 1025 q 202 953 133 1025 q 299 913 241 913 q 478 1013 340 914 l 454 972 q 419 840 419 907 l 420 825 l 417 819 q 368 798 394 798 q 251 871 319 798 q 163 909 215 909 l 157 909 q -33 806 111 909 z "},"":{"ha":384,"x_min":-33,"x_max":418,"o":"m 106 0 q 136 456 136 203 q 135 529 136 493 q 111 941 130 826 l 106 964 q 273 1022 189 974 l 277 1025 q 247 558 247 832 q 247 534 247 547 q 272 87 247 209 l 277 62 q 195 43 231 57 q 106 0 136 22 m 418 1202 q 387 1114 400 1168 q 373 1031 377 1076 l 361 1037 q 196 1065 319 1059 l 177 1065 q -33 1031 68 1065 q 11 1202 4 1119 l 18 1199 q 202 1172 79 1172 l 215 1172 q 418 1202 355 1172 z "},"":{"ha":389,"x_min":-29,"x_max":422,"o":"m 113 0 q 133 186 126 102 q 139 338 139 270 q 138 440 139 393 q 134 531 137 488 q 127 614 132 574 q 117 695 123 654 l 113 706 q 196 725 155 711 q 279 764 237 740 l 284 766 q 250 440 250 649 l 250 416 q 279 87 250 226 l 284 62 q 229 52 255 59 q 181 36 203 45 q 141 18 159 27 q 113 0 124 8 m 422 1027 q 391 939 404 993 q 377 856 381 900 l 366 861 q 200 889 323 883 l 181 890 q -29 855 72 890 q 15 1026 8 943 l 22 1023 q 206 996 83 996 l 219 996 q 422 1027 359 996 z "},"":{"ha":374,"x_min":-16,"x_max":391,"o":"m 102 0 q 131 456 131 203 q 130 529 131 493 q 106 941 125 826 l 102 964 q 268 1022 184 974 l 273 1025 q 242 558 242 832 q 242 534 242 547 q 267 87 242 209 l 273 62 q 190 43 227 57 q 102 0 131 22 m 391 1273 q 159 1059 368 1059 q 71 1103 107 1059 l 66 1112 q -16 1271 46 1193 q 186 1182 94 1192 l 203 1181 q 391 1273 307 1192 z "},"":{"ha":389,"x_min":-8,"x_max":399,"o":"m 113 0 q 133 186 126 102 q 139 338 139 270 q 138 440 139 393 q 134 531 137 488 q 127 614 132 574 q 117 695 123 654 l 113 706 q 196 725 155 711 q 279 764 237 740 l 284 766 q 250 440 250 649 l 250 416 q 279 87 250 226 l 284 62 q 229 52 255 59 q 181 36 203 45 q 141 18 159 27 q 113 0 124 8 m 399 1026 q 168 812 376 812 q 79 857 115 812 l 74 865 q -8 1024 54 946 q 195 935 102 945 l 212 935 q 399 1026 315 945 z "},"":{"ha":374,"x_min":-37,"x_max":273,"o":"m 140 22 q 84 -121 85 -53 q 208 -313 84 -201 l 203 -311 q 37 -259 119 -264 l 28 -256 q -37 -134 -37 -217 q 104 14 -37 -24 q 124 224 117 114 q 131 456 131 334 q 124 756 130 635 q 106 941 117 878 l 102 964 q 184 984 142 969 q 273 1025 225 998 q 242 558 242 832 l 242 534 q 248 260 243 371 q 267 87 254 149 l 273 62 q 197 46 231 58 q 140 22 163 34 l 140 22 z "},"":{"ha":389,"x_min":-16,"x_max":288,"o":"m 102 803 q 115 920 115 859 q 114 956 115 938 q 110 993 113 975 l 106 1007 q 283 1067 193 1016 l 288 1070 q 277 960 277 1031 q 278 918 277 941 q 283 868 280 895 q 228 858 256 865 q 177 841 201 850 q 133 822 153 832 q 102 803 114 812 m 115 18 q 133 194 127 115 q 139 338 139 273 q 138 440 139 393 q 134 531 137 488 q 127 614 132 574 q 117 695 123 654 l 113 706 q 196 725 155 711 q 279 764 237 740 l 284 766 q 250 440 250 649 l 250 416 q 279 87 250 226 l 284 62 q 215 48 246 58 q 159 26 183 37 q 104 -115 106 -47 q 229 -307 104 -195 l 224 -304 q 58 -253 139 -258 l 48 -250 q -16 -127 -16 -211 q 115 18 -16 -21 z "},"":{"ha":374,"x_min":95,"x_max":281,"o":"m 102 0 q 131 456 131 203 q 130 529 131 493 q 106 941 125 826 l 102 964 q 268 1022 184 974 l 273 1025 q 242 558 242 832 q 242 534 242 547 q 267 87 242 209 l 273 62 q 190 43 227 57 q 102 0 131 22 m 95 1052 q 108 1168 108 1109 q 103 1242 108 1205 l 99 1256 q 281 1319 188 1265 q 270 1208 270 1280 q 277 1117 270 1171 q 183 1095 228 1112 q 95 1052 124 1074 z "},"":{"ha":389,"x_min":113,"x_max":284,"o":"m 113 0 q 133 186 126 102 q 139 338 139 270 q 138 440 139 393 q 134 531 137 488 q 127 614 132 574 q 117 695 123 654 l 113 706 q 196 725 155 711 q 279 764 237 740 l 284 766 q 250 440 250 649 l 250 416 q 279 87 250 226 l 284 62 q 229 52 255 59 q 181 36 203 45 q 141 18 159 27 q 113 0 124 8 z "},"":{"ha":1025,"x_min":102,"x_max":924,"o":"m 102 0 q 131 456 131 203 q 130 529 131 493 q 106 941 125 826 l 102 964 q 268 1022 184 974 l 273 1025 q 242 558 242 832 q 242 534 242 547 q 267 87 242 209 l 273 62 q 190 43 227 57 q 102 0 131 22 m 264 198 l 399 264 q 464 196 431 224 q 531 151 496 169 q 608 120 567 134 q 697 98 648 107 q 766 274 738 132 q 781 526 781 345 l 781 543 q 774 736 781 637 q 757 941 768 836 l 753 964 q 835 984 794 969 q 924 1025 876 998 q 900 829 908 928 q 892 628 892 730 q 896 456 892 522 q 903 372 900 390 q 877 302 897 341 q 830 225 858 263 q 770 153 803 188 q 706 97 738 119 l 555 0 q 512 15 539 5 q 452 43 485 25 q 380 89 418 62 q 304 153 342 115 q 283 175 293 164 q 264 198 273 186 z "},"":{"ha":676,"x_min":102,"x_max":574,"o":"m 102 803 q 115 920 115 859 q 114 956 115 938 q 110 993 113 975 l 106 1007 q 283 1067 193 1016 l 288 1070 q 277 960 277 1031 q 278 918 277 941 q 283 868 280 895 q 228 858 256 865 q 177 841 201 850 q 133 822 153 832 q 102 803 114 812 m 113 0 q 133 186 126 102 q 139 338 139 270 q 138 440 139 393 q 134 531 137 488 q 127 614 132 574 q 117 695 123 654 l 113 706 q 196 725 155 711 q 279 764 237 740 l 284 766 q 250 440 250 649 l 250 416 q 279 87 250 226 l 284 62 q 229 52 255 59 q 181 36 203 45 q 141 18 159 27 q 113 0 124 8 m 389 803 q 401 920 401 859 q 400 956 401 938 q 397 993 399 975 l 393 1007 q 570 1067 480 1016 l 574 1070 q 564 960 564 1031 q 565 918 564 941 q 570 868 567 895 q 515 858 543 865 q 464 841 488 850 q 420 822 439 832 q 389 803 401 812 m 279 -250 q 413 16 371 -127 q 427 267 427 63 l 427 284 q 421 478 427 379 q 404 683 415 577 l 399 706 q 482 725 441 711 q 566 764 523 740 l 570 766 q 547 571 555 669 q 539 370 539 472 q 544 212 539 277 q 555 117 548 147 q 548 97 555 115 q 526 48 541 78 q 492 -17 512 19 q 446 -88 471 -53 q 286 -252 357 -208 l 279 -250 z "},"":{"ha":761,"x_min":0,"x_max":825,"o":"m 0 198 l 135 264 q 199 196 167 224 q 267 151 231 169 q 343 120 302 134 q 433 98 384 107 q 502 274 473 132 q 516 526 516 345 l 516 543 q 510 736 516 637 q 492 941 504 836 l 488 964 q 571 984 530 969 q 659 1025 612 998 q 636 829 644 928 q 628 628 628 730 q 632 456 628 522 q 638 372 635 390 q 613 302 632 341 q 566 225 593 263 q 506 153 538 188 q 441 97 473 119 l 291 0 q 248 15 275 5 q 187 43 220 25 q 116 89 154 62 q 39 153 78 115 q 19 175 28 164 q 0 198 9 186 m 454 1135 q 503 1211 487 1168 l 507 1222 q 591 1251 555 1230 l 652 1285 l 655 1274 q 696 1193 667 1238 q 713 1171 706 1177 q 780 1118 746 1140 l 825 1088 q 682 1025 734 1063 q 640 1112 652 1095 q 618 1140 624 1134 q 584 1173 603 1157 q 536 1145 562 1163 q 477 1093 515 1131 q 454 1064 465 1080 q 433 1025 440 1043 q 353 1072 406 1063 q 454 1135 427 1108 z "},"":{"ha":411,"x_min":-28,"x_max":445,"o":"m -8 -250 q 126 16 84 -127 q 140 267 140 63 l 140 284 q 134 478 140 379 q 117 683 128 577 l 113 706 q 195 725 154 711 q 279 764 236 740 l 283 766 q 260 571 268 669 q 252 370 252 472 q 257 212 252 277 q 269 117 261 147 q 261 97 269 115 q 239 48 254 78 q 205 -17 225 19 q 159 -88 184 -53 q -1 -252 71 -208 l -8 -250 m 74 873 q 123 949 106 907 l 126 960 q 211 989 174 968 l 271 1023 l 275 1012 q 315 931 286 976 q 333 909 326 916 q 399 856 366 878 l 445 827 q 301 763 353 802 q 260 850 272 833 q 238 878 243 872 q 203 911 222 895 q 156 884 182 901 q 97 831 134 869 q 74 802 84 819 q 52 763 60 781 q -28 810 25 802 q 74 873 47 846 z "},"":{"ha":829,"x_min":102,"x_max":761,"o":"m 102 0 q 124 215 117 102 q 131 456 131 328 q 124 756 130 635 q 106 941 117 878 l 102 964 q 184 984 143 969 q 273 1025 225 998 q 242 534 242 833 q 242 472 242 502 q 243 414 243 443 q 423 657 306 486 q 554 860 510 785 q 598 958 598 935 l 598 967 q 746 1025 706 987 q 471 637 644 915 q 511 522 488 579 q 566 397 533 465 q 646 249 599 330 q 761 60 693 167 q 679 41 720 56 q 590 0 637 26 q 499 267 551 141 q 373 495 446 393 q 249 265 300 386 q 256 161 252 205 q 267 87 260 117 l 273 62 q 217 52 243 59 q 169 36 191 45 q 130 18 147 27 q 102 0 113 8 m 199 -199 q 251 -170 226 -189 q 311 -117 286 -144 q 333 -89 317 -111 q 374 -2 345 -72 q 518 -66 427 -41 l 473 -95 q 406 -148 439 -117 q 389 -170 399 -155 q 348 -251 359 -214 q 345 -262 345 -262 l 284 -229 q 199 -199 248 -208 z "},"":{"ha":709,"x_min":102,"x_max":709,"o":"m 102 0 q 124 216 117 102 q 131 456 131 329 q 124 756 130 635 q 106 941 117 878 l 102 964 q 184 984 142 969 q 273 1025 225 998 q 242 558 242 832 l 242 534 q 242 474 242 503 q 243 418 242 446 q 273 447 252 427 q 322 497 294 468 q 383 560 351 526 q 447 629 416 594 q 507 697 479 664 q 553 757 534 730 l 560 766 q 607 729 584 744 q 646 709 631 714 q 465 552 580 661 l 397 485 q 709 58 488 269 q 626 38 667 53 q 538 -3 585 24 q 317 396 439 245 q 247 290 267 335 q 255 172 250 222 q 267 87 260 121 l 273 62 q 217 52 243 59 q 169 36 191 45 q 130 18 147 27 q 102 0 113 8 m 199 -199 q 251 -170 226 -189 q 311 -117 286 -144 q 333 -89 317 -111 q 374 -2 345 -72 q 518 -66 427 -41 l 473 -95 q 406 -148 439 -117 q 389 -170 399 -155 q 348 -251 359 -214 q 345 -262 345 -262 l 284 -229 q 199 -199 248 -208 z "},"":{"ha":709,"x_min":99,"x_max":709,"o":"m 102 0 q 124 188 117 102 q 132 345 132 273 q 130 439 131 395 q 126 526 129 484 q 117 610 123 568 q 99 706 111 653 q 181 725 140 711 q 265 764 222 740 l 270 766 q 241 492 241 574 l 241 468 q 243 418 242 442 q 273 447 252 427 q 322 497 294 468 q 383 560 351 526 q 447 629 416 594 q 507 697 479 664 q 553 757 534 730 l 560 766 q 607 729 584 744 q 646 709 631 714 q 465 552 580 661 l 397 485 q 709 58 488 269 q 626 38 667 53 q 543 0 585 24 l 538 -3 q 317 396 439 245 q 247 290 267 335 q 255 172 250 222 q 267 87 260 121 l 273 62 q 217 52 243 59 q 169 36 191 45 q 130 18 147 27 q 102 0 113 8 z "},"":{"ha":650,"x_min":46,"x_max":684,"o":"m 353 28 q 102 0 237 28 q 124 215 117 102 q 131 456 131 328 q 124 756 130 635 q 106 941 117 878 l 102 964 q 184 984 143 969 q 273 1025 225 998 q 242 558 242 833 l 242 534 q 265 98 242 224 q 297 93 283 93 q 684 171 530 93 q 657 104 671 147 q 638 0 644 61 l 621 5 q 353 28 547 28 m 46 1090 q 98 1119 73 1101 q 158 1172 133 1145 q 180 1200 164 1179 q 221 1287 192 1217 q 365 1223 273 1249 l 319 1194 q 253 1141 286 1172 q 235 1119 245 1135 q 195 1038 206 1075 q 191 1027 191 1027 l 131 1061 q 46 1090 95 1082 z "},"":{"ha":374,"x_min":45,"x_max":363,"o":"m 102 0 q 131 456 131 203 q 130 529 131 493 q 106 941 125 826 l 102 964 q 268 1022 184 974 l 273 1025 q 242 558 242 832 q 242 534 242 547 q 267 87 242 209 l 273 62 q 190 43 227 57 q 102 0 131 22 m 45 1090 q 96 1119 71 1101 q 157 1172 132 1145 q 178 1200 163 1179 q 220 1287 191 1217 q 363 1223 272 1249 l 318 1194 q 252 1141 284 1172 q 234 1119 244 1135 q 193 1038 205 1075 q 190 1027 190 1027 l 130 1061 q 45 1090 94 1082 z "},"":{"ha":650,"x_min":102,"x_max":684,"o":"m 353 28 q 102 0 237 28 q 124 215 117 102 q 131 456 131 328 q 124 756 130 635 q 106 941 117 878 l 102 964 q 184 984 143 969 q 273 1025 225 998 q 242 558 242 833 l 242 534 q 265 98 242 224 q 297 93 283 93 q 684 171 530 93 q 657 104 671 147 q 638 0 644 61 l 621 5 q 353 28 547 28 m 199 -199 q 251 -170 226 -189 q 311 -117 286 -144 q 333 -89 317 -111 q 374 -2 345 -72 q 518 -66 427 -41 l 473 -95 q 406 -148 439 -117 q 389 -170 399 -155 q 348 -251 359 -214 q 345 -262 345 -262 l 284 -229 q 199 -199 248 -208 z "},"":{"ha":374,"x_min":18,"x_max":337,"o":"m 102 0 q 131 456 131 203 q 130 529 131 493 q 106 941 125 826 l 102 964 q 268 1022 184 974 l 273 1025 q 242 558 242 832 q 242 534 242 547 q 267 87 242 209 l 273 62 q 190 43 227 57 q 102 0 131 22 m 18 -199 q 70 -170 45 -189 q 130 -117 105 -144 q 152 -89 136 -111 q 193 -2 164 -72 q 337 -66 245 -41 l 292 -95 q 225 -148 258 -117 q 208 -170 218 -155 q 167 -251 178 -214 q 163 -262 163 -262 l 103 -229 q 18 -199 67 -208 z "},"":{"ha":650,"x_min":102,"x_max":684,"o":"m 353 28 q 102 0 237 28 q 124 215 117 102 q 131 456 131 328 q 124 756 130 635 q 106 941 117 878 l 102 964 q 184 984 143 969 q 273 1025 225 998 q 242 558 242 833 l 242 534 q 265 98 242 224 q 297 93 283 93 q 684 171 530 93 q 657 104 671 147 q 638 0 644 61 l 621 5 q 353 28 547 28 m 279 828 q 331 857 306 839 q 391 910 366 883 q 413 939 397 917 q 454 1025 425 956 q 598 962 507 987 l 553 932 q 486 880 519 910 q 469 857 479 873 q 428 777 439 813 q 425 765 425 766 l 364 799 q 279 828 328 820 z "},"":{"ha":564,"x_min":102,"x_max":600,"o":"m 102 0 q 131 456 131 203 q 130 529 131 493 q 106 941 125 826 l 102 964 q 268 1022 184 974 l 273 1025 q 242 558 242 832 q 242 534 242 547 q 267 87 242 209 l 273 62 q 190 43 227 57 q 102 0 131 22 m 281 828 q 332 857 307 839 q 393 910 368 883 q 414 939 399 917 q 456 1025 427 956 q 600 962 508 987 l 554 932 q 488 880 520 910 q 470 857 480 873 q 429 777 441 813 q 426 765 426 766 l 366 799 q 281 828 330 820 z "},"":{"ha":650,"x_min":102,"x_max":684,"o":"m 353 28 q 102 0 237 28 q 124 215 117 102 q 131 456 131 328 q 124 756 130 635 q 106 941 117 878 l 102 964 q 184 984 143 969 q 273 1025 225 998 q 242 558 242 833 l 242 534 q 265 98 242 224 q 297 93 283 93 q 684 171 530 93 q 657 104 671 147 q 638 0 644 61 l 621 5 q 353 28 547 28 m 323 500 q 336 617 336 557 q 332 690 336 654 l 328 705 q 509 768 416 714 q 498 657 498 728 q 505 566 498 620 q 412 544 456 560 q 323 500 353 522 z "},"":{"ha":475,"x_min":102,"x_max":509,"o":"m 102 0 q 131 456 131 203 q 130 529 131 493 q 106 941 125 826 l 102 964 q 268 1022 184 974 l 273 1025 q 242 558 242 832 q 242 534 242 547 q 267 87 242 209 l 273 62 q 190 43 227 57 q 102 0 131 22 m 323 501 q 336 618 336 558 q 332 691 336 654 l 328 705 q 509 768 416 715 q 498 658 498 729 q 505 566 498 621 q 412 545 456 561 q 323 501 353 523 z "},"":{"ha":650,"x_min":53,"x_max":684,"o":"m 353 28 q 102 0 237 28 q 128 311 122 143 q 113 292 119 300 q 102 277 107 284 q 86 319 97 296 q 53 368 75 341 l 63 374 q 131 429 79 382 l 131 456 q 124 756 130 635 q 106 941 117 878 l 102 964 q 184 984 143 969 q 273 1025 225 998 q 242 558 242 833 l 242 533 l 250 541 q 452 766 416 709 q 503 676 467 719 l 493 671 q 427 616 475 661 q 300 496 379 572 l 243 437 q 265 98 246 204 q 297 93 283 93 q 684 171 530 93 q 657 104 671 147 q 638 0 644 61 l 621 5 q 353 28 547 28 z "},"":{"ha":382,"x_min":-33,"x_max":416,"o":"m 16 277 q -1 319 10 299 q -33 368 -12 340 l -23 374 q 31 417 -7 382 q 135 513 70 452 q 135 528 135 519 q 134 548 135 536 q 123 805 130 707 q 110 941 117 903 l 106 964 q 188 984 146 969 q 277 1025 229 998 q 256 838 263 937 q 247 627 248 739 q 323 711 294 676 q 366 766 353 745 q 416 676 381 719 l 407 671 q 351 626 391 661 q 246 528 311 590 q 253 265 247 375 q 271 87 260 155 l 277 62 q 222 52 248 59 q 174 36 196 45 q 135 18 152 28 q 106 0 117 8 q 126 193 119 90 q 135 414 134 296 q 16 277 41 315 z "},"":{"ha":876,"x_min":61,"x_max":774,"o":"m 70 954 l 61 964 q 232 1025 163 976 q 311 804 264 913 q 418 589 358 694 q 544 381 477 483 q 683 184 610 279 q 691 467 691 320 l 691 490 q 687 764 690 654 q 675 938 684 875 l 672 964 q 707 974 691 967 q 735 989 722 981 q 774 1025 748 998 q 761 815 765 927 q 757 571 757 703 q 760 288 757 408 q 772 85 764 168 l 774 62 q 721 52 747 59 q 673 37 695 45 q 633 18 650 28 q 604 0 615 9 q 347 506 588 83 l 215 732 q 213 578 213 661 q 216 288 213 410 q 228 83 220 165 l 231 60 q 129 0 182 51 q 147 469 147 202 l 147 488 q 145 693 147 602 q 138 857 143 785 q 100 916 117 891 q 70 954 83 940 m 370 1090 q 422 1119 397 1101 q 482 1172 457 1145 q 504 1200 488 1179 q 545 1287 516 1217 q 689 1223 597 1249 l 644 1194 q 577 1141 610 1172 q 559 1119 570 1135 q 519 1038 530 1075 q 515 1027 515 1027 l 455 1061 q 370 1090 419 1082 z "},"":{"ha":800,"x_min":102,"x_max":732,"o":"m 102 0 q 127 338 127 203 q 127 411 127 405 q 105 695 125 569 l 102 706 q 268 764 184 715 l 273 766 q 243 674 259 726 l 392 766 q 488 727 431 756 q 589 653 541 699 q 673 528 649 596 q 702 385 700 463 q 727 87 708 188 l 732 62 q 650 43 687 57 q 562 0 591 22 q 588 344 588 178 q 587 382 587 366 q 563 500 587 460 q 445 599 522 560 q 244 660 377 633 l 243 660 q 239 440 239 610 l 239 416 q 267 87 239 226 l 273 62 q 190 43 227 57 q 102 0 131 22 m 279 828 q 331 857 306 839 q 391 910 366 883 q 413 939 397 917 q 454 1025 425 956 q 598 962 507 987 l 553 932 q 486 880 519 910 q 469 857 479 873 q 428 777 439 813 q 425 765 425 766 l 364 799 q 279 828 328 820 z "},"":{"ha":876,"x_min":61,"x_max":774,"o":"m 70 954 l 61 964 q 232 1025 163 976 q 311 804 264 913 q 418 589 358 694 q 544 381 477 483 q 683 184 610 279 q 691 467 691 320 l 691 490 q 687 764 690 654 q 675 938 684 875 l 672 964 q 707 974 691 967 q 735 989 722 981 q 774 1025 748 998 q 761 815 765 927 q 757 571 757 703 q 760 288 757 408 q 772 85 764 168 l 774 62 q 721 52 747 59 q 673 37 695 45 q 633 18 650 28 q 604 0 615 9 q 347 506 588 83 l 215 732 q 213 578 213 661 q 216 288 213 410 q 228 83 220 165 l 231 60 q 129 0 182 51 q 147 469 147 202 l 147 488 q 145 693 147 602 q 138 857 143 785 q 100 916 117 891 q 70 954 83 940 m 199 -199 q 251 -170 226 -189 q 311 -117 286 -144 q 333 -89 317 -111 q 374 -2 345 -72 q 518 -66 427 -41 l 473 -95 q 406 -148 439 -117 q 389 -170 399 -155 q 348 -251 359 -214 q 345 -262 345 -262 l 284 -229 q 199 -199 248 -208 z "},"":{"ha":800,"x_min":102,"x_max":732,"o":"m 102 0 q 127 338 127 203 q 127 411 127 405 q 105 695 125 569 l 102 706 q 268 764 184 715 l 273 766 q 243 674 259 726 l 392 766 q 488 727 431 756 q 589 653 541 699 q 673 528 649 596 q 702 385 700 463 q 727 87 708 188 l 732 62 q 650 43 687 57 q 562 0 591 22 q 588 344 588 178 q 587 382 587 366 q 563 500 587 460 q 445 599 522 560 q 244 660 377 633 l 243 660 q 239 440 239 610 l 239 416 q 267 87 239 226 l 273 62 q 190 43 227 57 q 102 0 131 22 m 199 -199 q 251 -170 226 -189 q 311 -117 286 -144 q 333 -89 317 -111 q 374 -2 345 -72 q 518 -66 427 -41 l 473 -95 q 406 -148 439 -117 q 389 -170 399 -155 q 348 -251 359 -214 q 345 -262 345 -262 l 284 -229 q 199 -199 248 -208 z "},"":{"ha":876,"x_min":61,"x_max":774,"o":"m 70 954 l 61 964 q 232 1025 163 976 q 311 804 264 913 q 418 589 358 694 q 544 381 477 483 q 683 184 610 279 q 691 467 691 320 l 691 490 q 687 764 690 654 q 675 938 684 875 l 672 964 q 707 974 691 967 q 735 989 722 981 q 774 1025 748 998 q 761 815 765 927 q 757 571 757 703 q 760 288 757 408 q 772 85 764 168 l 774 62 q 721 52 747 59 q 673 37 695 45 q 633 18 650 28 q 604 0 615 9 q 347 506 588 83 l 215 732 q 213 578 213 661 q 216 288 213 410 q 228 83 220 165 l 231 60 q 129 0 182 51 q 147 469 147 202 l 147 488 q 145 693 147 602 q 138 857 143 785 q 100 916 117 891 q 70 954 83 940 m 572 1173 q 523 1098 539 1140 l 519 1086 q 435 1057 471 1078 l 374 1023 l 371 1035 q 330 1116 359 1071 q 313 1138 320 1131 q 246 1191 280 1168 l 201 1220 q 345 1284 267 1233 l 348 1276 q 386 1197 374 1214 q 408 1168 402 1175 q 442 1136 423 1152 q 490 1163 464 1145 q 549 1215 511 1178 q 572 1244 562 1228 q 593 1284 586 1265 q 673 1236 621 1245 q 572 1173 599 1200 z "},"":{"ha":800,"x_min":102,"x_max":732,"o":"m 102 0 q 127 338 127 203 q 127 411 127 405 q 105 695 125 569 l 102 706 q 268 764 184 715 l 273 766 q 243 674 259 726 l 392 766 q 488 727 431 756 q 589 653 541 699 q 673 528 649 596 q 702 385 700 463 q 727 87 708 188 l 732 62 q 650 43 687 57 q 562 0 591 22 q 588 344 588 178 q 587 382 587 366 q 563 500 587 460 q 445 599 522 560 q 244 660 377 633 l 243 660 q 239 440 239 610 l 239 416 q 267 87 239 226 l 273 62 q 190 43 227 57 q 102 0 131 22 m 493 911 q 444 836 460 878 l 441 825 q 356 795 393 817 l 296 762 l 292 773 q 252 854 281 809 q 234 876 241 869 q 168 929 201 907 l 122 958 q 266 1022 189 971 l 269 1015 q 307 935 295 952 q 329 907 323 913 q 363 874 345 890 q 411 901 385 884 q 470 954 433 916 q 493 983 483 966 q 515 1022 507 1004 q 595 975 542 983 q 493 911 520 939 z "},"":{"ha":873,"x_min":-35,"x_max":806,"o":"m 175 0 q 201 338 201 203 q 200 411 201 405 q 178 695 199 569 l 175 706 q 341 764 257 715 l 346 766 q 317 674 332 726 l 465 766 q 561 727 504 756 q 663 653 614 699 q 747 528 722 596 q 775 385 773 463 q 800 87 781 188 l 806 62 q 723 43 760 57 q 635 0 664 22 q 661 344 661 178 q 661 382 661 366 q 636 500 661 460 q 518 599 595 560 q 317 660 450 633 l 317 660 q 312 440 312 610 l 312 416 q 340 87 312 226 l 346 62 q 263 43 300 57 q 175 0 204 22 m -35 713 q 17 742 -8 724 q 77 795 52 768 q 99 823 83 802 q 140 910 111 840 q 284 846 193 871 l 239 817 q 172 764 205 795 q 155 742 165 758 q 114 661 125 698 q 111 650 111 650 l 50 684 q -35 713 14 705 z "},"":{"ha":876,"x_min":61,"x_max":774,"o":"m 70 954 l 61 964 q 232 1025 163 976 q 311 804 264 913 q 418 589 359 694 q 544 381 477 483 q 683 184 610 279 q 691 467 691 320 l 691 490 q 687 764 690 653 q 675 938 684 876 l 672 964 q 707 974 691 967 q 735 989 722 981 q 774 1025 748 998 q 761 815 765 928 q 757 571 757 703 q 757 530 757 549 q 758 495 758 511 q 772 85 758 229 l 774 62 q 768 27 774 48 q 752 -19 762 6 q 727 -71 741 -43 q 694 -125 712 -98 q 519 -256 655 -182 l 512 -254 q 604 0 596 -87 q 347 506 588 83 l 215 732 q 213 578 213 661 q 213 529 213 550 q 214 493 214 508 q 228 83 214 224 l 231 60 q 129 0 182 52 q 147 469 147 202 l 147 488 q 145 693 147 602 q 138 857 143 785 q 70 954 95 924 z "},"":{"ha":800,"x_min":102,"x_max":732,"o":"m 102 0 q 121 186 115 102 q 127 338 127 270 q 126 440 127 393 q 123 531 125 488 q 116 614 120 574 q 105 695 111 654 l 102 706 q 184 725 143 711 q 268 764 225 740 l 273 766 q 258 723 266 747 q 243 674 251 700 l 392 766 q 436 751 411 762 q 488 726 460 741 q 543 690 515 711 q 596 645 571 670 q 641 591 621 621 q 673 528 661 562 q 702 385 699 463 q 711 212 705 286 q 727 87 718 138 l 732 62 q 722 2 732 35 q 698 -60 713 -30 q 665 -117 683 -91 q 631 -160 648 -144 q 473 -256 567 -220 l 466 -254 q 560 -23 557 -112 l 562 0 q 588 344 588 178 q 586 396 587 373 q 582 438 585 419 q 575 472 580 456 q 563 500 571 487 q 518 553 543 530 q 455 594 492 576 q 367 629 418 613 q 244 660 315 645 l 243 660 q 240 580 241 635 q 239 440 239 526 l 239 416 q 267 87 239 226 l 273 62 q 217 52 243 59 q 169 36 191 45 q 130 18 147 27 q 102 0 113 8 z "},"":{"ha":918,"x_min":81,"x_max":837,"o":"m 300 929 q 211 749 243 895 q 191 575 191 654 q 195 508 191 540 q 258 324 206 419 q 408 176 307 239 q 618 96 505 117 l 619 97 q 711 287 682 132 q 728 449 728 376 q 724 517 728 484 q 661 701 714 603 q 515 846 612 789 q 300 929 418 903 m 475 0 q 353 53 427 13 q 224 151 284 91 q 118 319 149 228 q 81 509 81 421 q 81 512 81 511 q 123 712 81 608 q 209 852 154 789 q 292 930 252 903 l 443 1027 q 566 972 486 1016 q 694 874 626 940 q 802 701 771 797 q 837 513 836 600 q 837 509 837 513 q 799 311 837 400 q 711 175 762 226 q 627 95 641 104 l 475 0 m 675 1202 q 644 1114 657 1168 q 630 1031 634 1076 l 618 1037 q 453 1065 576 1059 l 434 1065 q 224 1031 325 1065 q 268 1202 261 1119 l 275 1199 q 459 1172 336 1172 l 472 1172 q 675 1202 612 1172 z "},"":{"ha":730,"x_min":68,"x_max":663,"o":"m 213 667 l 212 667 q 170 544 193 630 q 154 429 154 482 q 157 385 154 408 q 208 263 166 325 q 325 165 250 199 q 525 103 395 133 l 526 104 q 564 238 542 140 q 578 345 578 297 q 574 391 578 371 q 524 512 564 450 q 407 610 492 562 q 213 667 340 647 m 378 -3 q 282 37 338 7 q 180 111 227 66 q 97 236 121 168 q 68 378 68 305 q 68 381 68 380 q 101 531 68 454 q 168 636 127 593 q 209 673 187 656 l 353 767 q 450 726 386 758 q 551 652 497 701 q 635 523 611 594 q 663 382 663 447 l 663 379 q 633 231 663 286 q 556 118 587 146 q 533 94 539 103 l 378 -3 m 591 1027 q 559 939 573 993 q 546 856 550 900 l 534 861 q 369 889 492 883 l 350 890 q 140 855 241 890 q 184 1026 177 943 l 191 1023 q 375 996 252 996 l 388 996 q 591 1027 528 996 z "},"":{"ha":918,"x_min":81,"x_max":837,"o":"m 300 929 q 211 749 243 895 q 191 575 191 654 q 195 508 191 540 q 258 324 206 419 q 408 176 307 239 q 618 96 505 117 l 619 97 q 711 287 682 132 q 728 449 728 376 q 724 517 728 484 q 661 701 714 603 q 515 846 612 789 q 300 929 418 903 m 475 0 q 353 53 427 13 q 224 151 284 91 q 118 319 149 228 q 81 509 81 421 q 81 512 81 511 q 123 712 81 608 q 209 852 154 789 q 292 930 252 903 l 443 1027 q 566 972 486 1016 q 694 874 626 940 q 802 701 771 797 q 837 513 836 600 q 837 509 837 513 q 799 311 837 400 q 711 175 762 226 q 627 95 641 104 l 475 0 m 653 1273 q 421 1059 629 1059 q 332 1103 369 1059 l 328 1112 q 245 1271 308 1193 q 448 1182 355 1192 l 465 1181 q 653 1273 568 1192 z "},"":{"ha":730,"x_min":68,"x_max":663,"o":"m 213 667 l 212 667 q 170 544 193 630 q 154 429 154 482 q 157 385 154 408 q 208 263 166 325 q 325 165 250 199 q 525 103 395 133 l 526 104 q 564 238 542 140 q 578 345 578 297 q 574 391 578 371 q 524 512 564 450 q 407 610 492 562 q 213 667 340 647 m 378 -3 q 282 37 338 7 q 180 111 227 66 q 97 236 121 168 q 68 378 68 305 q 68 381 68 380 q 101 531 68 454 q 168 636 127 593 q 209 673 187 656 l 353 767 q 450 726 386 758 q 551 652 497 701 q 635 523 611 594 q 663 382 663 447 l 663 379 q 633 231 663 286 q 556 118 587 146 q 533 94 539 103 l 378 -3 m 536 1026 q 304 812 512 812 q 215 857 252 812 l 210 865 q 128 1024 191 946 q 331 935 238 945 l 348 935 q 536 1026 451 945 z "}}}
